G75*
%MOIN*%
%OFA0B0*%
%FSLAX25Y25*%
%IPPOS*%
%LPD*%
%AMOC8*
5,1,8,0,0,1.08239X$1,22.5*
%
%ADD10C,0.01000*%
%ADD11R,0.02756X0.00984*%
%ADD12R,0.00984X0.02756*%
%ADD13C,0.00700*%
%ADD14R,0.05000X0.02500*%
%ADD15C,0.00600*%
%ADD16OC8,0.07400*%
%ADD17R,0.04331X0.03937*%
%ADD18R,0.03937X0.04331*%
%ADD19R,0.03543X0.03150*%
%ADD20C,0.02381*%
%ADD21C,0.01200*%
%ADD22C,0.02400*%
%ADD23C,0.01600*%
%ADD24C,0.04961*%
D10*
X0033746Y0031676D02*
X0025861Y0040325D01*
X0019100Y0049877D01*
X0013563Y0060187D01*
X0009335Y0071100D01*
X0006481Y0082450D01*
X0005042Y0094064D01*
X0005042Y0099475D01*
X0027877Y0099475D01*
X0027290Y0097623D01*
X0026469Y0090203D01*
X0026469Y0090203D01*
X0026790Y0086484D01*
X0026882Y0085425D01*
X0027282Y0084654D01*
X0027282Y0084209D01*
X0027536Y0083597D01*
X0027282Y0082985D01*
X0027282Y0077516D01*
X0027351Y0077349D01*
X0026965Y0077189D01*
X0026160Y0076384D01*
X0025724Y0075332D01*
X0025724Y0070256D01*
X0026160Y0069204D01*
X0026965Y0068399D01*
X0028017Y0067963D01*
X0033486Y0067963D01*
X0034098Y0068217D01*
X0034710Y0067963D01*
X0036735Y0067963D01*
X0036735Y0062874D01*
X0037171Y0061822D01*
X0037976Y0061017D01*
X0038097Y0060967D01*
X0038097Y0059400D01*
X0041081Y0059400D01*
X0041081Y0058432D01*
X0038097Y0058432D01*
X0038097Y0056553D01*
X0038199Y0056172D01*
X0038397Y0055830D01*
X0038676Y0055550D01*
X0039018Y0055353D01*
X0039400Y0055251D01*
X0041081Y0055251D01*
X0041081Y0058432D01*
X0042050Y0058432D01*
X0042050Y0059400D01*
X0045034Y0059400D01*
X0045034Y0060967D01*
X0045155Y0061017D01*
X0045961Y0061822D01*
X0046396Y0062874D01*
X0046396Y0068271D01*
X0046810Y0068100D01*
X0049483Y0068100D01*
X0049483Y0062874D01*
X0049919Y0061822D01*
X0050724Y0061017D01*
X0050845Y0060967D01*
X0050845Y0059400D01*
X0053829Y0059400D01*
X0053829Y0058432D01*
X0050845Y0058432D01*
X0050845Y0056553D01*
X0050947Y0056172D01*
X0051145Y0055830D01*
X0051424Y0055550D01*
X0051766Y0055353D01*
X0052148Y0055251D01*
X0053829Y0055251D01*
X0053829Y0058432D01*
X0054798Y0058432D01*
X0054798Y0059400D01*
X0057782Y0059400D01*
X0057782Y0060967D01*
X0057904Y0061017D01*
X0058709Y0061822D01*
X0059144Y0062874D01*
X0059144Y0067916D01*
X0059210Y0067889D01*
X0062690Y0067889D01*
X0062424Y0067246D01*
X0062424Y0062170D01*
X0062860Y0061118D01*
X0063665Y0060313D01*
X0064717Y0059877D01*
X0070186Y0059877D01*
X0070798Y0060131D01*
X0071410Y0059877D01*
X0072773Y0059877D01*
X0073125Y0059525D01*
X0073504Y0059060D01*
X0073692Y0058958D01*
X0076190Y0056460D01*
X0076190Y0055516D01*
X0076626Y0054464D01*
X0077431Y0053659D01*
X0078483Y0053223D01*
X0083559Y0053223D01*
X0084611Y0053659D01*
X0085327Y0054375D01*
X0085613Y0054089D01*
X0085653Y0050147D01*
X0085653Y0043372D01*
X0086272Y0041879D01*
X0087414Y0040736D01*
X0092650Y0035500D01*
X0094143Y0034881D01*
X0094490Y0034881D01*
X0095019Y0034352D01*
X0095140Y0034302D01*
X0095140Y0032735D01*
X0098125Y0032735D01*
X0098125Y0031766D01*
X0099093Y0031766D01*
X0099093Y0028585D01*
X0100775Y0028585D01*
X0101156Y0028688D01*
X0101499Y0028885D01*
X0101778Y0029164D01*
X0101975Y0029506D01*
X0102077Y0029888D01*
X0102077Y0031766D01*
X0099093Y0031766D01*
X0099093Y0032735D01*
X0102077Y0032735D01*
X0102077Y0034302D01*
X0102199Y0034352D01*
X0102728Y0034881D01*
X0103238Y0034881D01*
X0103767Y0034352D01*
X0103889Y0034302D01*
X0103889Y0032735D01*
X0106873Y0032735D01*
X0106873Y0031766D01*
X0107841Y0031766D01*
X0107841Y0028585D01*
X0109523Y0028585D01*
X0109905Y0028688D01*
X0110247Y0028885D01*
X0110526Y0029164D01*
X0110723Y0029506D01*
X0110826Y0029888D01*
X0110826Y0031766D01*
X0107841Y0031766D01*
X0107841Y0032735D01*
X0110826Y0032735D01*
X0110826Y0034302D01*
X0110947Y0034352D01*
X0111476Y0034881D01*
X0111486Y0034881D01*
X0112015Y0034352D01*
X0112137Y0034302D01*
X0112137Y0032735D01*
X0115121Y0032735D01*
X0115121Y0031766D01*
X0116089Y0031766D01*
X0116089Y0028585D01*
X0117771Y0028585D01*
X0118153Y0028688D01*
X0118495Y0028885D01*
X0118774Y0029164D01*
X0118971Y0029506D01*
X0119074Y0029888D01*
X0119074Y0031766D01*
X0116089Y0031766D01*
X0116089Y0032735D01*
X0119074Y0032735D01*
X0119074Y0033357D01*
X0119272Y0032879D01*
X0120414Y0031736D01*
X0121414Y0030736D01*
X0122907Y0030118D01*
X0149736Y0030118D01*
X0151229Y0030736D01*
X0169118Y0048626D01*
X0172654Y0048626D01*
X0176498Y0052470D01*
X0176498Y0057906D01*
X0173253Y0061151D01*
X0175136Y0063034D01*
X0175136Y0064688D01*
X0170436Y0064688D01*
X0170436Y0065688D01*
X0175136Y0065688D01*
X0175136Y0067342D01*
X0173253Y0069224D01*
X0176498Y0072470D01*
X0176498Y0077906D01*
X0174216Y0080188D01*
X0176498Y0082470D01*
X0176498Y0087906D01*
X0173253Y0091151D01*
X0175136Y0093034D01*
X0175136Y0094688D01*
X0170436Y0094688D01*
X0170436Y0095688D01*
X0175136Y0095688D01*
X0175136Y0097342D01*
X0173002Y0099475D01*
X0194943Y0099475D01*
X0194250Y0088235D01*
X0194249Y0088235D01*
X0192099Y0076731D01*
X0188551Y0065579D01*
X0183660Y0054947D01*
X0177499Y0044996D01*
X0170162Y0035879D01*
X0161760Y0027732D01*
X0152421Y0020679D01*
X0142285Y0014827D01*
X0131508Y0010266D01*
X0120251Y0007063D01*
X0108687Y0005268D01*
X0096989Y0004907D01*
X0085336Y0005987D01*
X0073903Y0008491D01*
X0062865Y0012380D01*
X0052389Y0017597D01*
X0042633Y0024061D01*
X0033746Y0031676D01*
X0033776Y0031650D02*
X0095140Y0031650D01*
X0095140Y0031766D02*
X0095140Y0029888D01*
X0095243Y0029506D01*
X0095440Y0029164D01*
X0095719Y0028885D01*
X0096062Y0028688D01*
X0096443Y0028585D01*
X0098125Y0028585D01*
X0098125Y0031766D01*
X0095140Y0031766D01*
X0095140Y0030652D02*
X0034941Y0030652D01*
X0036107Y0029653D02*
X0095203Y0029653D01*
X0096185Y0028655D02*
X0037272Y0028655D01*
X0038438Y0027656D02*
X0161660Y0027656D01*
X0162712Y0028655D02*
X0118029Y0028655D01*
X0119011Y0029653D02*
X0163741Y0029653D01*
X0164771Y0030652D02*
X0151025Y0030652D01*
X0152143Y0031650D02*
X0165801Y0031650D01*
X0166831Y0032649D02*
X0153141Y0032649D01*
X0154140Y0033647D02*
X0167860Y0033647D01*
X0168890Y0034646D02*
X0155138Y0034646D01*
X0156137Y0035644D02*
X0169920Y0035644D01*
X0170162Y0035879D02*
X0170162Y0035879D01*
X0170777Y0036643D02*
X0157135Y0036643D01*
X0158134Y0037641D02*
X0171580Y0037641D01*
X0172384Y0038640D02*
X0159133Y0038640D01*
X0160131Y0039638D02*
X0173187Y0039638D01*
X0173991Y0040637D02*
X0161130Y0040637D01*
X0162128Y0041635D02*
X0174794Y0041635D01*
X0175597Y0042634D02*
X0163127Y0042634D01*
X0164125Y0043632D02*
X0176401Y0043632D01*
X0177204Y0044631D02*
X0165124Y0044631D01*
X0166122Y0045629D02*
X0177891Y0045629D01*
X0178509Y0046628D02*
X0167121Y0046628D01*
X0168119Y0047626D02*
X0179127Y0047626D01*
X0179745Y0048625D02*
X0169118Y0048625D01*
X0173652Y0049623D02*
X0180364Y0049623D01*
X0180982Y0050622D02*
X0174650Y0050622D01*
X0175649Y0051620D02*
X0181600Y0051620D01*
X0182218Y0052619D02*
X0176498Y0052619D01*
X0176498Y0053617D02*
X0182837Y0053617D01*
X0183455Y0054616D02*
X0176498Y0054616D01*
X0176498Y0055614D02*
X0183967Y0055614D01*
X0184426Y0056613D02*
X0176498Y0056613D01*
X0176498Y0057611D02*
X0184886Y0057611D01*
X0185345Y0058610D02*
X0175794Y0058610D01*
X0174795Y0059608D02*
X0185804Y0059608D01*
X0186264Y0060607D02*
X0173797Y0060607D01*
X0173707Y0061605D02*
X0186723Y0061605D01*
X0187183Y0062604D02*
X0174706Y0062604D01*
X0175136Y0063602D02*
X0187642Y0063602D01*
X0188101Y0064601D02*
X0175136Y0064601D01*
X0175136Y0066598D02*
X0188875Y0066598D01*
X0188558Y0065599D02*
X0170436Y0065599D01*
X0173882Y0068595D02*
X0189511Y0068595D01*
X0189828Y0069594D02*
X0173622Y0069594D01*
X0174620Y0070592D02*
X0190146Y0070592D01*
X0190464Y0071591D02*
X0175619Y0071591D01*
X0176498Y0072589D02*
X0190781Y0072589D01*
X0191099Y0073588D02*
X0176498Y0073588D01*
X0176498Y0074586D02*
X0191417Y0074586D01*
X0191734Y0075585D02*
X0176498Y0075585D01*
X0176498Y0076583D02*
X0192052Y0076583D01*
X0192258Y0077582D02*
X0176498Y0077582D01*
X0175824Y0078580D02*
X0192445Y0078580D01*
X0192631Y0079579D02*
X0174825Y0079579D01*
X0174606Y0080577D02*
X0192818Y0080577D01*
X0193005Y0081576D02*
X0175604Y0081576D01*
X0176498Y0082574D02*
X0193191Y0082574D01*
X0193378Y0083573D02*
X0176498Y0083573D01*
X0176498Y0084571D02*
X0193565Y0084571D01*
X0193751Y0085570D02*
X0176498Y0085570D01*
X0176498Y0086568D02*
X0193938Y0086568D01*
X0194125Y0087567D02*
X0176498Y0087567D01*
X0175839Y0088565D02*
X0194270Y0088565D01*
X0194331Y0089564D02*
X0174840Y0089564D01*
X0173842Y0090562D02*
X0194393Y0090562D01*
X0194455Y0091561D02*
X0173663Y0091561D01*
X0174661Y0092559D02*
X0194516Y0092559D01*
X0194578Y0093558D02*
X0175136Y0093558D01*
X0175136Y0094556D02*
X0194639Y0094556D01*
X0194701Y0095555D02*
X0170436Y0095555D01*
X0170436Y0099869D02*
X0169436Y0099869D01*
X0169436Y0100388D01*
X0167782Y0100388D01*
X0167263Y0099869D01*
X0162586Y0099869D01*
X0162083Y0100372D01*
X0157788Y0100372D01*
X0157285Y0099869D01*
X0037908Y0099869D01*
X0038267Y0101003D01*
X0040969Y0105914D01*
X0044576Y0110203D01*
X0048952Y0113706D01*
X0053926Y0116289D01*
X0059309Y0117851D01*
X0062046Y0118223D01*
X0072539Y0118650D01*
X0073569Y0119126D01*
X0074370Y0119126D01*
X0074937Y0119693D01*
X0075503Y0119126D01*
X0076231Y0119126D01*
X0077565Y0118601D01*
X0081666Y0118674D01*
X0081585Y0118369D01*
X0081585Y0116490D01*
X0084569Y0116490D01*
X0084569Y0115522D01*
X0081585Y0115522D01*
X0081585Y0113643D01*
X0081687Y0113262D01*
X0081884Y0112919D01*
X0082164Y0112640D01*
X0082506Y0112443D01*
X0082887Y0112340D01*
X0084569Y0112340D01*
X0084569Y0115522D01*
X0085537Y0115522D01*
X0085537Y0116490D01*
X0088522Y0116490D01*
X0088522Y0118369D01*
X0088419Y0118750D01*
X0088413Y0118762D01*
X0092876Y0118799D01*
X0092888Y0118794D01*
X0093663Y0118805D01*
X0094439Y0118812D01*
X0094452Y0118817D01*
X0095348Y0118830D01*
X0095348Y0118830D01*
X0098512Y0119911D01*
X0098513Y0119911D01*
X0101188Y0121916D01*
X0101188Y0121916D01*
X0101188Y0121916D01*
X0103112Y0124650D01*
X0103112Y0124651D01*
X0104098Y0127845D01*
X0104098Y0127845D01*
X0104085Y0128752D01*
X0104093Y0128773D01*
X0104073Y0129540D01*
X0104069Y0129774D01*
X0188958Y0129774D01*
X0193070Y0099869D01*
X0172609Y0099869D01*
X0172090Y0100388D01*
X0170436Y0100388D01*
X0170436Y0099869D01*
X0166869Y0099475D02*
X0165899Y0098505D01*
X0164929Y0099475D01*
X0166869Y0099475D01*
X0165944Y0098550D02*
X0165853Y0098550D01*
X0159936Y0095188D02*
X0141932Y0095188D01*
X0121810Y0075066D01*
X0112770Y0075066D01*
X0112495Y0074790D01*
X0112495Y0072822D02*
X0112613Y0072703D01*
X0124172Y0072703D01*
X0136656Y0085188D01*
X0159936Y0085188D01*
X0164840Y0089564D02*
X0165031Y0089564D01*
X0164936Y0089468D02*
X0164216Y0090188D01*
X0165899Y0091871D01*
X0166619Y0091151D01*
X0164936Y0089468D01*
X0164591Y0090562D02*
X0166030Y0090562D01*
X0166209Y0091561D02*
X0165589Y0091561D01*
X0155655Y0090188D02*
X0154018Y0088550D01*
X0140049Y0088550D01*
X0143324Y0091826D01*
X0154018Y0091826D01*
X0155655Y0090188D01*
X0155281Y0090562D02*
X0142061Y0090562D01*
X0141063Y0089564D02*
X0155031Y0089564D01*
X0154033Y0088565D02*
X0140064Y0088565D01*
X0143060Y0091561D02*
X0154282Y0091561D01*
X0154018Y0098550D02*
X0141263Y0098550D01*
X0140027Y0098038D01*
X0120417Y0078428D01*
X0112998Y0078428D01*
X0114424Y0079854D01*
X0114936Y0081090D01*
X0114936Y0083829D01*
X0115011Y0083829D01*
X0115011Y0084404D01*
X0117995Y0084404D01*
X0117995Y0084987D01*
X0118116Y0085037D01*
X0118921Y0085842D01*
X0119357Y0086894D01*
X0119357Y0091182D01*
X0118921Y0092234D01*
X0118116Y0093039D01*
X0117064Y0093475D01*
X0112382Y0093475D01*
X0111330Y0093039D01*
X0110525Y0092234D01*
X0110447Y0092046D01*
X0110196Y0092113D01*
X0108515Y0092113D01*
X0108515Y0089326D01*
X0107940Y0089326D01*
X0107940Y0092113D01*
X0106258Y0092113D01*
X0105876Y0092011D01*
X0105534Y0091813D01*
X0105255Y0091534D01*
X0105058Y0091192D01*
X0104955Y0090810D01*
X0104955Y0089326D01*
X0107940Y0089326D01*
X0107940Y0088751D01*
X0104955Y0088751D01*
X0104955Y0088168D01*
X0104834Y0088118D01*
X0104029Y0087313D01*
X0103593Y0086261D01*
X0103593Y0083893D01*
X0103326Y0083246D01*
X0103326Y0082869D01*
X0099721Y0082869D01*
X0098669Y0082433D01*
X0097864Y0081628D01*
X0097428Y0080576D01*
X0097428Y0078144D01*
X0096281Y0078144D01*
X0095620Y0078806D01*
X0094865Y0079561D01*
X0094865Y0082371D01*
X0094429Y0083423D01*
X0093624Y0084228D01*
X0092572Y0084664D01*
X0091801Y0084664D01*
X0090794Y0085081D01*
X0089456Y0085081D01*
X0088448Y0084664D01*
X0087603Y0084664D01*
X0087955Y0085516D01*
X0087955Y0090985D01*
X0087520Y0092037D01*
X0086715Y0092843D01*
X0086593Y0092893D01*
X0086593Y0094459D01*
X0083609Y0094459D01*
X0083609Y0095428D01*
X0082640Y0095428D01*
X0082640Y0094459D01*
X0079656Y0094459D01*
X0079656Y0092893D01*
X0079535Y0092843D01*
X0078730Y0092037D01*
X0078294Y0090985D01*
X0078294Y0085904D01*
X0073551Y0085904D01*
X0072499Y0085469D01*
X0071694Y0084663D01*
X0071259Y0083611D01*
X0071259Y0083009D01*
X0070884Y0083109D01*
X0069203Y0083109D01*
X0069203Y0079928D01*
X0068234Y0079928D01*
X0068234Y0078959D01*
X0065250Y0078959D01*
X0065250Y0077393D01*
X0065154Y0077353D01*
X0064679Y0077550D01*
X0059210Y0077550D01*
X0058598Y0077297D01*
X0057986Y0077550D01*
X0052789Y0077550D01*
X0052279Y0077761D01*
X0046810Y0077761D01*
X0046198Y0077508D01*
X0045586Y0077761D01*
X0040117Y0077761D01*
X0039788Y0077625D01*
X0036944Y0077625D01*
X0036944Y0082985D01*
X0036690Y0083597D01*
X0036944Y0084209D01*
X0036944Y0084501D01*
X0037527Y0086344D01*
X0037436Y0087403D01*
X0037337Y0090072D01*
X0037924Y0095374D01*
X0039222Y0099475D01*
X0154943Y0099475D01*
X0154018Y0098550D01*
X0085510Y0098550D01*
X0085672Y0098507D02*
X0085291Y0098609D01*
X0083609Y0098609D01*
X0083609Y0095428D01*
X0086593Y0095428D01*
X0086593Y0097306D01*
X0086491Y0097688D01*
X0086294Y0098030D01*
X0086014Y0098309D01*
X0085672Y0098507D01*
X0086527Y0097552D02*
X0139541Y0097552D01*
X0138543Y0096553D02*
X0086593Y0096553D01*
X0086593Y0095555D02*
X0137544Y0095555D01*
X0136546Y0094556D02*
X0083609Y0094556D01*
X0082640Y0094556D02*
X0037833Y0094556D01*
X0037723Y0093558D02*
X0079656Y0093558D01*
X0079252Y0092559D02*
X0037612Y0092559D01*
X0037502Y0091561D02*
X0078532Y0091561D01*
X0078294Y0090562D02*
X0037391Y0090562D01*
X0037356Y0089564D02*
X0078294Y0089564D01*
X0078294Y0088565D02*
X0037393Y0088565D01*
X0037430Y0087567D02*
X0078294Y0087567D01*
X0078294Y0086568D02*
X0037508Y0086568D01*
X0037282Y0085570D02*
X0072744Y0085570D01*
X0071656Y0084571D02*
X0036966Y0084571D01*
X0036700Y0083573D02*
X0071259Y0083573D01*
X0069203Y0082574D02*
X0068234Y0082574D01*
X0068234Y0083109D02*
X0066552Y0083109D01*
X0066171Y0083007D01*
X0065829Y0082809D01*
X0065550Y0082530D01*
X0065352Y0082188D01*
X0065250Y0081806D01*
X0065250Y0079928D01*
X0068234Y0079928D01*
X0068234Y0083109D01*
X0068234Y0081576D02*
X0069203Y0081576D01*
X0069203Y0080577D02*
X0068234Y0080577D01*
X0068234Y0079579D02*
X0036944Y0079579D01*
X0036944Y0080577D02*
X0065250Y0080577D01*
X0065250Y0081576D02*
X0036944Y0081576D01*
X0036944Y0082574D02*
X0065594Y0082574D01*
X0065250Y0078580D02*
X0036944Y0078580D01*
X0046019Y0077582D02*
X0046377Y0077582D01*
X0052712Y0077582D02*
X0065250Y0077582D01*
X0062569Y0067596D02*
X0059144Y0067596D01*
X0059144Y0066598D02*
X0062424Y0066598D01*
X0062424Y0065599D02*
X0059144Y0065599D01*
X0059144Y0064601D02*
X0062424Y0064601D01*
X0062424Y0063602D02*
X0059144Y0063602D01*
X0059032Y0062604D02*
X0062424Y0062604D01*
X0062658Y0061605D02*
X0058492Y0061605D01*
X0057782Y0060607D02*
X0063371Y0060607D01*
X0057782Y0059608D02*
X0073042Y0059608D01*
X0074040Y0058610D02*
X0054798Y0058610D01*
X0054798Y0058432D02*
X0057782Y0058432D01*
X0057782Y0056553D01*
X0057680Y0056172D01*
X0057483Y0055830D01*
X0057203Y0055550D01*
X0056861Y0055353D01*
X0056480Y0055251D01*
X0054798Y0055251D01*
X0054798Y0058432D01*
X0054798Y0057611D02*
X0053829Y0057611D01*
X0053829Y0056613D02*
X0054798Y0056613D01*
X0054798Y0055614D02*
X0053829Y0055614D01*
X0051360Y0055614D02*
X0044519Y0055614D01*
X0044455Y0055550D02*
X0044734Y0055830D01*
X0044932Y0056172D01*
X0045034Y0056553D01*
X0045034Y0058432D01*
X0042050Y0058432D01*
X0042050Y0055251D01*
X0043732Y0055251D01*
X0044113Y0055353D01*
X0044455Y0055550D01*
X0045034Y0056613D02*
X0050845Y0056613D01*
X0050845Y0057611D02*
X0045034Y0057611D01*
X0045034Y0059608D02*
X0050845Y0059608D01*
X0050845Y0060607D02*
X0045034Y0060607D01*
X0045744Y0061605D02*
X0050136Y0061605D01*
X0049595Y0062604D02*
X0046284Y0062604D01*
X0046396Y0063602D02*
X0049483Y0063602D01*
X0049483Y0064601D02*
X0046396Y0064601D01*
X0046396Y0065599D02*
X0049483Y0065599D01*
X0049483Y0066598D02*
X0046396Y0066598D01*
X0046396Y0067596D02*
X0049483Y0067596D01*
X0053829Y0058610D02*
X0042050Y0058610D01*
X0041081Y0058610D02*
X0014410Y0058610D01*
X0013874Y0059608D02*
X0038097Y0059608D01*
X0038097Y0060607D02*
X0013400Y0060607D01*
X0013014Y0061605D02*
X0037388Y0061605D01*
X0036847Y0062604D02*
X0012627Y0062604D01*
X0012240Y0063602D02*
X0036735Y0063602D01*
X0036735Y0064601D02*
X0011853Y0064601D01*
X0011466Y0065599D02*
X0036735Y0065599D01*
X0036735Y0066598D02*
X0011079Y0066598D01*
X0010693Y0067596D02*
X0036735Y0067596D01*
X0026769Y0068595D02*
X0010306Y0068595D01*
X0009919Y0069594D02*
X0025998Y0069594D01*
X0025724Y0070592D02*
X0009532Y0070592D01*
X0009212Y0071591D02*
X0025724Y0071591D01*
X0025724Y0072589D02*
X0008961Y0072589D01*
X0008710Y0073588D02*
X0025724Y0073588D01*
X0025724Y0074586D02*
X0008459Y0074586D01*
X0008207Y0075585D02*
X0025829Y0075585D01*
X0026359Y0076583D02*
X0007956Y0076583D01*
X0007705Y0077582D02*
X0027282Y0077582D01*
X0027282Y0078580D02*
X0007454Y0078580D01*
X0007203Y0079579D02*
X0027282Y0079579D01*
X0027282Y0080577D02*
X0006952Y0080577D01*
X0006701Y0081576D02*
X0027282Y0081576D01*
X0027282Y0082574D02*
X0006465Y0082574D01*
X0006342Y0083573D02*
X0027525Y0083573D01*
X0027282Y0084571D02*
X0006218Y0084571D01*
X0006094Y0085570D02*
X0026869Y0085570D01*
X0026783Y0086568D02*
X0005971Y0086568D01*
X0005847Y0087567D02*
X0026697Y0087567D01*
X0026611Y0088565D02*
X0005723Y0088565D01*
X0005600Y0089564D02*
X0026524Y0089564D01*
X0026509Y0090562D02*
X0005476Y0090562D01*
X0005353Y0091561D02*
X0026619Y0091561D01*
X0026730Y0092559D02*
X0005229Y0092559D01*
X0005105Y0093558D02*
X0026841Y0093558D01*
X0026951Y0094556D02*
X0005042Y0094556D01*
X0005042Y0095555D02*
X0027062Y0095555D01*
X0027172Y0096553D02*
X0005042Y0096553D01*
X0005042Y0097552D02*
X0027283Y0097552D01*
X0027290Y0097623D02*
X0027290Y0097623D01*
X0027584Y0098550D02*
X0005042Y0098550D01*
X0006455Y0099869D02*
X0011755Y0129774D01*
X0096135Y0129774D01*
X0096145Y0129396D01*
X0096119Y0128987D01*
X0095876Y0128202D01*
X0095404Y0127530D01*
X0094746Y0127038D01*
X0093969Y0126772D01*
X0093559Y0126734D01*
X0085789Y0126670D01*
X0085771Y0126677D01*
X0085002Y0126663D01*
X0084232Y0126657D01*
X0084214Y0126649D01*
X0077424Y0126529D01*
X0076282Y0126032D01*
X0075503Y0126032D01*
X0074937Y0125466D01*
X0074370Y0126032D01*
X0073688Y0126032D01*
X0072217Y0126572D01*
X0062282Y0126169D01*
X0062193Y0126197D01*
X0061497Y0126137D01*
X0060799Y0126108D01*
X0060715Y0126069D01*
X0057824Y0125820D01*
X0057824Y0125820D01*
X0050915Y0123814D01*
X0050915Y0123814D01*
X0044530Y0120500D01*
X0038914Y0116004D01*
X0034284Y0110498D01*
X0030816Y0104195D01*
X0029447Y0099869D01*
X0006455Y0099869D01*
X0006576Y0100547D02*
X0029662Y0100547D01*
X0029978Y0101546D02*
X0006753Y0101546D01*
X0006930Y0102544D02*
X0030294Y0102544D01*
X0030610Y0103543D02*
X0007107Y0103543D01*
X0007283Y0104541D02*
X0031007Y0104541D01*
X0030816Y0104195D02*
X0030816Y0104195D01*
X0031556Y0105540D02*
X0007460Y0105540D01*
X0007637Y0106538D02*
X0032105Y0106538D01*
X0032655Y0107537D02*
X0007814Y0107537D01*
X0007991Y0108535D02*
X0033204Y0108535D01*
X0033753Y0109534D02*
X0008168Y0109534D01*
X0008345Y0110532D02*
X0034313Y0110532D01*
X0034284Y0110498D02*
X0034284Y0110498D01*
X0035152Y0111531D02*
X0008522Y0111531D01*
X0008699Y0112530D02*
X0035992Y0112530D01*
X0036832Y0113528D02*
X0008876Y0113528D01*
X0009053Y0114527D02*
X0037672Y0114527D01*
X0038512Y0115525D02*
X0009230Y0115525D01*
X0009407Y0116524D02*
X0039564Y0116524D01*
X0038914Y0116004D02*
X0038914Y0116004D01*
X0038914Y0116004D01*
X0040811Y0117522D02*
X0009584Y0117522D01*
X0009761Y0118521D02*
X0042058Y0118521D01*
X0043305Y0119519D02*
X0009938Y0119519D01*
X0010115Y0120518D02*
X0044564Y0120518D01*
X0044530Y0120500D02*
X0044530Y0120500D01*
X0046487Y0121516D02*
X0010292Y0121516D01*
X0010469Y0122515D02*
X0048411Y0122515D01*
X0050334Y0123513D02*
X0010646Y0123513D01*
X0010823Y0124512D02*
X0053317Y0124512D01*
X0056758Y0125510D02*
X0010999Y0125510D01*
X0011176Y0126509D02*
X0070649Y0126509D01*
X0072390Y0126509D02*
X0077378Y0126509D01*
X0074981Y0125510D02*
X0074892Y0125510D01*
X0074763Y0119519D02*
X0075110Y0119519D01*
X0069359Y0118521D02*
X0081625Y0118521D01*
X0081585Y0117522D02*
X0058176Y0117522D01*
X0054735Y0116524D02*
X0081585Y0116524D01*
X0081585Y0114527D02*
X0050531Y0114527D01*
X0048729Y0113528D02*
X0081615Y0113528D01*
X0082355Y0112530D02*
X0047482Y0112530D01*
X0046235Y0111531D02*
X0191466Y0111531D01*
X0191329Y0112530D02*
X0087751Y0112530D01*
X0087601Y0112443D02*
X0087943Y0112640D01*
X0088222Y0112919D01*
X0088419Y0113262D01*
X0088522Y0113643D01*
X0088522Y0115522D01*
X0085537Y0115522D01*
X0085537Y0112340D01*
X0087219Y0112340D01*
X0087601Y0112443D01*
X0088491Y0113528D02*
X0191191Y0113528D01*
X0191054Y0114527D02*
X0088522Y0114527D01*
X0088522Y0116524D02*
X0190780Y0116524D01*
X0190642Y0117522D02*
X0088522Y0117522D01*
X0088481Y0118521D02*
X0190505Y0118521D01*
X0190368Y0119519D02*
X0097365Y0119519D01*
X0099322Y0120518D02*
X0190230Y0120518D01*
X0190093Y0121516D02*
X0100654Y0121516D01*
X0101609Y0122515D02*
X0189956Y0122515D01*
X0189819Y0123513D02*
X0102312Y0123513D01*
X0103015Y0124512D02*
X0189681Y0124512D01*
X0189544Y0125510D02*
X0103378Y0125510D01*
X0103686Y0126509D02*
X0189407Y0126509D01*
X0189269Y0127507D02*
X0103994Y0127507D01*
X0104088Y0128506D02*
X0189132Y0128506D01*
X0188995Y0129504D02*
X0104074Y0129504D01*
X0096142Y0129504D02*
X0011707Y0129504D01*
X0011530Y0128506D02*
X0095970Y0128506D01*
X0095372Y0127507D02*
X0011353Y0127507D01*
X0039664Y0103543D02*
X0192564Y0103543D01*
X0192427Y0104541D02*
X0040214Y0104541D01*
X0040763Y0105540D02*
X0192290Y0105540D01*
X0192153Y0106538D02*
X0041494Y0106538D01*
X0042334Y0107537D02*
X0192015Y0107537D01*
X0191878Y0108535D02*
X0043174Y0108535D01*
X0044014Y0109534D02*
X0191741Y0109534D01*
X0191603Y0110532D02*
X0044988Y0110532D01*
X0052455Y0115525D02*
X0084569Y0115525D01*
X0085537Y0115525D02*
X0190917Y0115525D01*
X0192702Y0102544D02*
X0039115Y0102544D01*
X0038566Y0101546D02*
X0192839Y0101546D01*
X0192976Y0100547D02*
X0038123Y0100547D01*
X0038929Y0098550D02*
X0080740Y0098550D01*
X0080577Y0098507D02*
X0080235Y0098309D01*
X0079956Y0098030D01*
X0079758Y0097688D01*
X0079656Y0097306D01*
X0079656Y0095428D01*
X0082640Y0095428D01*
X0082640Y0098609D01*
X0080959Y0098609D01*
X0080577Y0098507D01*
X0079722Y0097552D02*
X0038613Y0097552D01*
X0038297Y0096553D02*
X0079656Y0096553D01*
X0079656Y0095555D02*
X0037981Y0095555D01*
X0038097Y0057611D02*
X0014946Y0057611D01*
X0015482Y0056613D02*
X0038097Y0056613D01*
X0038612Y0055614D02*
X0016019Y0055614D01*
X0016555Y0054616D02*
X0076563Y0054616D01*
X0076190Y0055614D02*
X0057267Y0055614D01*
X0057782Y0056613D02*
X0076037Y0056613D01*
X0075039Y0057611D02*
X0057782Y0057611D01*
X0042050Y0057611D02*
X0041081Y0057611D01*
X0041081Y0056613D02*
X0042050Y0056613D01*
X0042050Y0055614D02*
X0041081Y0055614D01*
X0024227Y0042634D02*
X0085959Y0042634D01*
X0085653Y0043632D02*
X0023520Y0043632D01*
X0022813Y0044631D02*
X0085653Y0044631D01*
X0085653Y0045629D02*
X0022106Y0045629D01*
X0021399Y0046628D02*
X0085653Y0046628D01*
X0085653Y0047626D02*
X0020693Y0047626D01*
X0019986Y0048625D02*
X0085653Y0048625D01*
X0085653Y0049623D02*
X0019279Y0049623D01*
X0018700Y0050622D02*
X0085648Y0050622D01*
X0085638Y0051620D02*
X0018163Y0051620D01*
X0017627Y0052619D02*
X0085628Y0052619D01*
X0085618Y0053617D02*
X0084510Y0053617D01*
X0077531Y0053617D02*
X0017091Y0053617D01*
X0024934Y0041635D02*
X0086515Y0041635D01*
X0087514Y0040637D02*
X0025640Y0040637D01*
X0026487Y0039638D02*
X0088512Y0039638D01*
X0089511Y0038640D02*
X0027397Y0038640D01*
X0028308Y0037641D02*
X0090509Y0037641D01*
X0091508Y0036643D02*
X0029218Y0036643D01*
X0030128Y0035644D02*
X0092506Y0035644D01*
X0094725Y0034646D02*
X0031038Y0034646D01*
X0031949Y0033647D02*
X0095140Y0033647D01*
X0098125Y0032649D02*
X0032859Y0032649D01*
X0039603Y0026658D02*
X0160337Y0026658D01*
X0159015Y0025659D02*
X0040769Y0025659D01*
X0041934Y0024661D02*
X0157693Y0024661D01*
X0156371Y0023662D02*
X0043236Y0023662D01*
X0044743Y0022663D02*
X0155048Y0022663D01*
X0153726Y0021665D02*
X0046250Y0021665D01*
X0047757Y0020666D02*
X0152399Y0020666D01*
X0150669Y0019668D02*
X0049264Y0019668D01*
X0050771Y0018669D02*
X0148940Y0018669D01*
X0147211Y0017671D02*
X0052278Y0017671D01*
X0054246Y0016672D02*
X0145481Y0016672D01*
X0143752Y0015674D02*
X0056251Y0015674D01*
X0058257Y0014675D02*
X0141926Y0014675D01*
X0139567Y0013677D02*
X0060262Y0013677D01*
X0062267Y0012678D02*
X0137208Y0012678D01*
X0134849Y0011680D02*
X0064853Y0011680D01*
X0067687Y0010681D02*
X0132490Y0010681D01*
X0129460Y0009683D02*
X0070521Y0009683D01*
X0073354Y0008684D02*
X0125950Y0008684D01*
X0122441Y0007686D02*
X0077579Y0007686D01*
X0082138Y0006687D02*
X0117832Y0006687D01*
X0111399Y0005689D02*
X0088555Y0005689D01*
X0098125Y0028655D02*
X0099093Y0028655D01*
X0099093Y0029653D02*
X0098125Y0029653D01*
X0098125Y0030652D02*
X0099093Y0030652D01*
X0099093Y0031650D02*
X0098125Y0031650D01*
X0099093Y0032649D02*
X0106873Y0032649D01*
X0106873Y0031766D02*
X0103889Y0031766D01*
X0103889Y0029888D01*
X0103991Y0029506D01*
X0104188Y0029164D01*
X0104467Y0028885D01*
X0104810Y0028688D01*
X0105191Y0028585D01*
X0106873Y0028585D01*
X0106873Y0031766D01*
X0106873Y0031650D02*
X0107841Y0031650D01*
X0107841Y0030652D02*
X0106873Y0030652D01*
X0106873Y0029653D02*
X0107841Y0029653D01*
X0107841Y0028655D02*
X0106873Y0028655D01*
X0104933Y0028655D02*
X0101033Y0028655D01*
X0102015Y0029653D02*
X0103951Y0029653D01*
X0103889Y0030652D02*
X0102077Y0030652D01*
X0102077Y0031650D02*
X0103889Y0031650D01*
X0103889Y0033647D02*
X0102077Y0033647D01*
X0102493Y0034646D02*
X0103473Y0034646D01*
X0107841Y0032649D02*
X0115121Y0032649D01*
X0115121Y0031766D02*
X0112137Y0031766D01*
X0112137Y0029888D01*
X0112239Y0029506D01*
X0112436Y0029164D01*
X0112716Y0028885D01*
X0113058Y0028688D01*
X0113439Y0028585D01*
X0115121Y0028585D01*
X0115121Y0031766D01*
X0115121Y0031650D02*
X0116089Y0031650D01*
X0116089Y0030652D02*
X0115121Y0030652D01*
X0115121Y0029653D02*
X0116089Y0029653D01*
X0116089Y0028655D02*
X0115121Y0028655D01*
X0113181Y0028655D02*
X0109781Y0028655D01*
X0110763Y0029653D02*
X0112199Y0029653D01*
X0112137Y0030652D02*
X0110826Y0030652D01*
X0110826Y0031650D02*
X0112137Y0031650D01*
X0112137Y0033647D02*
X0110826Y0033647D01*
X0111241Y0034646D02*
X0111721Y0034646D01*
X0116089Y0032649D02*
X0119502Y0032649D01*
X0119074Y0031650D02*
X0120500Y0031650D01*
X0121618Y0030652D02*
X0119074Y0030652D01*
X0128660Y0039302D02*
X0128660Y0042286D01*
X0127094Y0042286D01*
X0127043Y0042407D01*
X0126238Y0043213D01*
X0125186Y0043648D01*
X0119717Y0043648D01*
X0119268Y0043462D01*
X0119195Y0043535D01*
X0118143Y0043971D01*
X0113067Y0043971D01*
X0112253Y0043634D01*
X0112381Y0043941D01*
X0112381Y0047495D01*
X0117686Y0047495D01*
X0118738Y0047931D01*
X0119543Y0048736D01*
X0119594Y0048857D01*
X0121160Y0048857D01*
X0121160Y0051841D01*
X0122129Y0051841D01*
X0122129Y0052810D01*
X0125310Y0052810D01*
X0125310Y0054492D01*
X0125213Y0054854D01*
X0126122Y0054477D01*
X0127734Y0054477D01*
X0129224Y0055094D01*
X0130364Y0056235D01*
X0130713Y0057077D01*
X0135452Y0052337D01*
X0136688Y0051826D01*
X0154018Y0051826D01*
X0157218Y0048626D01*
X0157629Y0048626D01*
X0147245Y0038242D01*
X0132810Y0038242D01*
X0132810Y0038333D01*
X0129629Y0038333D01*
X0129629Y0039302D01*
X0132810Y0039302D01*
X0132810Y0040984D01*
X0132708Y0041365D01*
X0132510Y0041707D01*
X0132231Y0041986D01*
X0131889Y0042184D01*
X0131507Y0042286D01*
X0129629Y0042286D01*
X0129629Y0039302D01*
X0128660Y0039302D01*
X0128660Y0039638D02*
X0129629Y0039638D01*
X0129629Y0038640D02*
X0147643Y0038640D01*
X0148641Y0039638D02*
X0132810Y0039638D01*
X0132810Y0040637D02*
X0149640Y0040637D01*
X0150638Y0041635D02*
X0132552Y0041635D01*
X0129629Y0041635D02*
X0128660Y0041635D01*
X0128660Y0040637D02*
X0129629Y0040637D01*
X0126817Y0042634D02*
X0151637Y0042634D01*
X0152635Y0043632D02*
X0125225Y0043632D01*
X0124007Y0048857D02*
X0122129Y0048857D01*
X0122129Y0051841D01*
X0125310Y0051841D01*
X0125310Y0050160D01*
X0125208Y0049778D01*
X0125010Y0049436D01*
X0124731Y0049157D01*
X0124389Y0048959D01*
X0124007Y0048857D01*
X0125118Y0049623D02*
X0156220Y0049623D01*
X0155221Y0050622D02*
X0125310Y0050622D01*
X0125310Y0051620D02*
X0154223Y0051620D01*
X0157628Y0048625D02*
X0119432Y0048625D01*
X0118004Y0047626D02*
X0156629Y0047626D01*
X0155631Y0046628D02*
X0112381Y0046628D01*
X0112381Y0045629D02*
X0154632Y0045629D01*
X0153634Y0044631D02*
X0112381Y0044631D01*
X0118961Y0043632D02*
X0119678Y0043632D01*
X0121160Y0049623D02*
X0122129Y0049623D01*
X0122129Y0050622D02*
X0121160Y0050622D01*
X0121160Y0051620D02*
X0122129Y0051620D01*
X0122129Y0052619D02*
X0135171Y0052619D01*
X0134173Y0053617D02*
X0125310Y0053617D01*
X0125276Y0054616D02*
X0125788Y0054616D01*
X0126928Y0058530D02*
X0108818Y0058530D01*
X0106688Y0060660D01*
X0106688Y0063077D01*
X0108656Y0063077D02*
X0122774Y0063077D01*
X0122991Y0062861D01*
X0125747Y0066798D02*
X0112613Y0066798D01*
X0112495Y0066916D01*
X0112613Y0068766D02*
X0112495Y0068885D01*
X0112613Y0068766D02*
X0126928Y0068766D01*
X0130507Y0065188D01*
X0159936Y0065188D01*
X0164810Y0069594D02*
X0166250Y0069594D01*
X0166619Y0069224D02*
X0165899Y0068505D01*
X0164216Y0070188D01*
X0164936Y0070907D01*
X0166619Y0069224D01*
X0165989Y0068595D02*
X0165809Y0068595D01*
X0165251Y0070592D02*
X0164620Y0070592D01*
X0159936Y0075188D02*
X0131381Y0075188D01*
X0126928Y0070735D01*
X0112613Y0070735D01*
X0112495Y0070853D01*
X0109211Y0075066D02*
X0111967Y0077822D01*
X0111967Y0077428D02*
X0114329Y0079003D01*
X0114148Y0079579D02*
X0121568Y0079579D01*
X0122566Y0080577D02*
X0114723Y0080577D01*
X0115011Y0081042D02*
X0116692Y0081042D01*
X0117074Y0081144D01*
X0117416Y0081342D01*
X0117695Y0081621D01*
X0117893Y0081963D01*
X0117995Y0082345D01*
X0117995Y0083829D01*
X0115011Y0083829D01*
X0115011Y0081042D01*
X0115011Y0081576D02*
X0114936Y0081576D01*
X0114936Y0082574D02*
X0115011Y0082574D01*
X0115011Y0083573D02*
X0114936Y0083573D01*
X0114936Y0084404D02*
X0114936Y0084496D01*
X0115011Y0084571D01*
X0115011Y0084404D01*
X0114936Y0084404D01*
X0112562Y0086877D02*
X0111967Y0086877D01*
X0111574Y0086483D01*
X0111574Y0081759D01*
X0108656Y0078841D01*
X0108656Y0078629D01*
X0106688Y0078629D02*
X0106688Y0082577D01*
X0108227Y0084117D01*
X0112562Y0086877D02*
X0114723Y0089038D01*
X0119357Y0088565D02*
X0130554Y0088565D01*
X0129556Y0087567D02*
X0119357Y0087567D01*
X0119222Y0086568D02*
X0128557Y0086568D01*
X0127559Y0085570D02*
X0118649Y0085570D01*
X0117995Y0084571D02*
X0126560Y0084571D01*
X0125562Y0083573D02*
X0117995Y0083573D01*
X0117995Y0082574D02*
X0124563Y0082574D01*
X0123565Y0081576D02*
X0117650Y0081576D01*
X0120569Y0078580D02*
X0113150Y0078580D01*
X0109211Y0075066D02*
X0108818Y0075066D01*
X0104719Y0070853D02*
X0096333Y0062467D01*
X0096219Y0062467D01*
X0096944Y0063192D01*
X0096944Y0066916D01*
X0096944Y0065422D02*
X0096944Y0064924D01*
X0097428Y0064924D01*
X0097428Y0064549D01*
X0097120Y0063806D01*
X0097120Y0047264D01*
X0096141Y0046285D01*
X0095111Y0045254D01*
X0094898Y0044742D01*
X0093777Y0045862D01*
X0093777Y0049382D01*
X0093786Y0049402D01*
X0093777Y0050188D01*
X0093777Y0050976D01*
X0093769Y0050996D01*
X0093737Y0054173D01*
X0094028Y0054464D01*
X0094463Y0055516D01*
X0094463Y0060985D01*
X0094210Y0061597D01*
X0094463Y0062209D01*
X0094463Y0064878D01*
X0094749Y0065164D01*
X0094987Y0065026D01*
X0095368Y0064924D01*
X0096944Y0064924D01*
X0096944Y0065422D01*
X0096944Y0065422D01*
X0097428Y0064601D02*
X0094463Y0064601D01*
X0094463Y0063602D02*
X0097120Y0063602D01*
X0097120Y0062604D02*
X0094463Y0062604D01*
X0094213Y0061605D02*
X0097120Y0061605D01*
X0097120Y0060607D02*
X0094463Y0060607D01*
X0094463Y0059608D02*
X0097120Y0059608D01*
X0097120Y0058610D02*
X0094463Y0058610D01*
X0094463Y0057611D02*
X0097120Y0057611D01*
X0097120Y0056613D02*
X0094463Y0056613D01*
X0094463Y0055614D02*
X0097120Y0055614D01*
X0097120Y0054616D02*
X0094090Y0054616D01*
X0093742Y0053617D02*
X0097120Y0053617D01*
X0097120Y0052619D02*
X0093753Y0052619D01*
X0093763Y0051620D02*
X0097120Y0051620D01*
X0097120Y0050622D02*
X0093777Y0050622D01*
X0093783Y0049623D02*
X0097120Y0049623D01*
X0097120Y0048625D02*
X0093777Y0048625D01*
X0093777Y0047626D02*
X0097120Y0047626D01*
X0096484Y0046628D02*
X0093777Y0046628D01*
X0094011Y0045629D02*
X0095486Y0045629D01*
X0096944Y0070853D02*
X0092125Y0070853D01*
X0090034Y0072944D01*
X0093715Y0074180D02*
X0093715Y0075955D01*
X0090034Y0079637D01*
X0088042Y0079637D01*
X0090125Y0081719D01*
X0092796Y0084571D02*
X0103593Y0084571D01*
X0103593Y0085570D02*
X0087955Y0085570D01*
X0087955Y0086568D02*
X0103720Y0086568D01*
X0104283Y0087567D02*
X0087955Y0087567D01*
X0087955Y0088565D02*
X0104955Y0088565D01*
X0104955Y0089564D02*
X0087955Y0089564D01*
X0087955Y0090562D02*
X0104955Y0090562D01*
X0105282Y0091561D02*
X0087717Y0091561D01*
X0086998Y0092559D02*
X0110850Y0092559D01*
X0108515Y0091561D02*
X0107940Y0091561D01*
X0107940Y0090562D02*
X0108515Y0090562D01*
X0108515Y0089564D02*
X0107940Y0089564D01*
X0103461Y0083573D02*
X0094280Y0083573D01*
X0094781Y0082574D02*
X0099009Y0082574D01*
X0097842Y0081576D02*
X0094865Y0081576D01*
X0094865Y0080577D02*
X0097428Y0080577D01*
X0097428Y0079579D02*
X0094865Y0079579D01*
X0095845Y0078580D02*
X0097428Y0078580D01*
X0096613Y0078609D02*
X0100156Y0075066D01*
X0096944Y0072822D02*
X0095074Y0072822D01*
X0093715Y0074180D01*
X0086593Y0093558D02*
X0135547Y0093558D01*
X0134548Y0092559D02*
X0118596Y0092559D01*
X0119200Y0091561D02*
X0133550Y0091561D01*
X0132551Y0090562D02*
X0119357Y0090562D01*
X0119357Y0089564D02*
X0131553Y0089564D01*
X0138049Y0081826D02*
X0134773Y0078550D01*
X0154018Y0078550D01*
X0155655Y0080188D01*
X0154018Y0081826D01*
X0138049Y0081826D01*
X0137799Y0081576D02*
X0154267Y0081576D01*
X0155266Y0080577D02*
X0136801Y0080577D01*
X0135802Y0079579D02*
X0155046Y0079579D01*
X0154048Y0078580D02*
X0134803Y0078580D01*
X0132773Y0071826D02*
X0130698Y0069751D01*
X0131899Y0068550D01*
X0154018Y0068550D01*
X0155655Y0070188D01*
X0154018Y0071826D01*
X0132773Y0071826D01*
X0132538Y0071591D02*
X0154253Y0071591D01*
X0155251Y0070592D02*
X0131540Y0070592D01*
X0130856Y0069594D02*
X0155061Y0069594D01*
X0154063Y0068595D02*
X0131854Y0068595D01*
X0125747Y0066798D02*
X0137357Y0055188D01*
X0159936Y0055188D01*
X0164795Y0059608D02*
X0165076Y0059608D01*
X0164936Y0059468D02*
X0164216Y0060188D01*
X0165899Y0061871D01*
X0166619Y0061151D01*
X0164936Y0059468D01*
X0164635Y0060607D02*
X0166075Y0060607D01*
X0166164Y0061605D02*
X0165634Y0061605D01*
X0155655Y0060188D02*
X0154018Y0058550D01*
X0138750Y0058550D01*
X0135474Y0061826D01*
X0154018Y0061826D01*
X0155655Y0060188D01*
X0155236Y0060607D02*
X0136693Y0060607D01*
X0137691Y0059608D02*
X0155076Y0059608D01*
X0154078Y0058610D02*
X0138690Y0058610D01*
X0135694Y0061605D02*
X0154238Y0061605D01*
X0164936Y0079468D02*
X0164216Y0080188D01*
X0164936Y0080907D01*
X0165655Y0080188D01*
X0164936Y0079468D01*
X0164825Y0079579D02*
X0165046Y0079579D01*
X0165266Y0080577D02*
X0164606Y0080577D01*
X0174881Y0067596D02*
X0189193Y0067596D01*
X0194763Y0096553D02*
X0175136Y0096553D01*
X0174926Y0097552D02*
X0194824Y0097552D01*
X0194886Y0098550D02*
X0173927Y0098550D01*
X0132176Y0055614D02*
X0129743Y0055614D01*
X0130520Y0056613D02*
X0131177Y0056613D01*
X0133174Y0054616D02*
X0128068Y0054616D01*
X0001500Y0099916D02*
X0001530Y0102331D01*
X0001619Y0104745D01*
X0001767Y0107156D01*
X0001974Y0109562D01*
X0002240Y0111963D01*
X0002565Y0114357D01*
X0002949Y0116741D01*
X0003391Y0119116D01*
X0003891Y0121479D01*
X0004449Y0123829D01*
X0005065Y0126165D01*
X0005738Y0128485D01*
X0006467Y0130787D01*
X0007253Y0133071D01*
X0008095Y0135335D01*
X0008991Y0137578D01*
X0009943Y0139798D01*
X0010949Y0141994D01*
X0012008Y0144165D01*
X0013121Y0146309D01*
X0014286Y0148425D01*
X0015502Y0150512D01*
X0016769Y0152568D01*
X0018086Y0154593D01*
X0019453Y0156585D01*
X0020868Y0158542D01*
X0022330Y0160465D01*
X0023839Y0162350D01*
X0025395Y0164199D01*
X0026995Y0166008D01*
X0028638Y0167778D01*
X0030325Y0169507D01*
X0032054Y0171194D01*
X0033824Y0172837D01*
X0035633Y0174437D01*
X0037482Y0175993D01*
X0039367Y0177502D01*
X0041290Y0178964D01*
X0043247Y0180379D01*
X0045239Y0181746D01*
X0047264Y0183063D01*
X0049320Y0184330D01*
X0051407Y0185546D01*
X0053523Y0186711D01*
X0055667Y0187824D01*
X0057838Y0188883D01*
X0060034Y0189889D01*
X0062254Y0190841D01*
X0064497Y0191737D01*
X0066761Y0192579D01*
X0069045Y0193365D01*
X0071347Y0194094D01*
X0073667Y0194767D01*
X0076003Y0195383D01*
X0078353Y0195941D01*
X0080716Y0196441D01*
X0083091Y0196883D01*
X0085475Y0197267D01*
X0087869Y0197592D01*
X0090270Y0197858D01*
X0092676Y0198065D01*
X0095087Y0198213D01*
X0097501Y0198302D01*
X0099916Y0198332D01*
X0102331Y0198302D01*
X0104745Y0198213D01*
X0107156Y0198065D01*
X0109562Y0197858D01*
X0111963Y0197592D01*
X0114357Y0197267D01*
X0116741Y0196883D01*
X0119116Y0196441D01*
X0121479Y0195941D01*
X0123829Y0195383D01*
X0126165Y0194767D01*
X0128485Y0194094D01*
X0130787Y0193365D01*
X0133071Y0192579D01*
X0135335Y0191737D01*
X0137578Y0190841D01*
X0139798Y0189889D01*
X0141994Y0188883D01*
X0144165Y0187824D01*
X0146309Y0186711D01*
X0148425Y0185546D01*
X0150512Y0184330D01*
X0152568Y0183063D01*
X0154593Y0181746D01*
X0156585Y0180379D01*
X0158542Y0178964D01*
X0160465Y0177502D01*
X0162350Y0175993D01*
X0164199Y0174437D01*
X0166008Y0172837D01*
X0167778Y0171194D01*
X0169507Y0169507D01*
X0171194Y0167778D01*
X0172837Y0166008D01*
X0174437Y0164199D01*
X0175993Y0162350D01*
X0177502Y0160465D01*
X0178964Y0158542D01*
X0180379Y0156585D01*
X0181746Y0154593D01*
X0183063Y0152568D01*
X0184330Y0150512D01*
X0185546Y0148425D01*
X0186711Y0146309D01*
X0187824Y0144165D01*
X0188883Y0141994D01*
X0189889Y0139798D01*
X0190841Y0137578D01*
X0191737Y0135335D01*
X0192579Y0133071D01*
X0193365Y0130787D01*
X0194094Y0128485D01*
X0194767Y0126165D01*
X0195383Y0123829D01*
X0195941Y0121479D01*
X0196441Y0119116D01*
X0196883Y0116741D01*
X0197267Y0114357D01*
X0197592Y0111963D01*
X0197858Y0109562D01*
X0198065Y0107156D01*
X0198213Y0104745D01*
X0198302Y0102331D01*
X0198332Y0099916D01*
X0198302Y0097501D01*
X0198213Y0095087D01*
X0198065Y0092676D01*
X0197858Y0090270D01*
X0197592Y0087869D01*
X0197267Y0085475D01*
X0196883Y0083091D01*
X0196441Y0080716D01*
X0195941Y0078353D01*
X0195383Y0076003D01*
X0194767Y0073667D01*
X0194094Y0071347D01*
X0193365Y0069045D01*
X0192579Y0066761D01*
X0191737Y0064497D01*
X0190841Y0062254D01*
X0189889Y0060034D01*
X0188883Y0057838D01*
X0187824Y0055667D01*
X0186711Y0053523D01*
X0185546Y0051407D01*
X0184330Y0049320D01*
X0183063Y0047264D01*
X0181746Y0045239D01*
X0180379Y0043247D01*
X0178964Y0041290D01*
X0177502Y0039367D01*
X0175993Y0037482D01*
X0174437Y0035633D01*
X0172837Y0033824D01*
X0171194Y0032054D01*
X0169507Y0030325D01*
X0167778Y0028638D01*
X0166008Y0026995D01*
X0164199Y0025395D01*
X0162350Y0023839D01*
X0160465Y0022330D01*
X0158542Y0020868D01*
X0156585Y0019453D01*
X0154593Y0018086D01*
X0152568Y0016769D01*
X0150512Y0015502D01*
X0148425Y0014286D01*
X0146309Y0013121D01*
X0144165Y0012008D01*
X0141994Y0010949D01*
X0139798Y0009943D01*
X0137578Y0008991D01*
X0135335Y0008095D01*
X0133071Y0007253D01*
X0130787Y0006467D01*
X0128485Y0005738D01*
X0126165Y0005065D01*
X0123829Y0004449D01*
X0121479Y0003891D01*
X0119116Y0003391D01*
X0116741Y0002949D01*
X0114357Y0002565D01*
X0111963Y0002240D01*
X0109562Y0001974D01*
X0107156Y0001767D01*
X0104745Y0001619D01*
X0102331Y0001530D01*
X0099916Y0001500D01*
X0097501Y0001530D01*
X0095087Y0001619D01*
X0092676Y0001767D01*
X0090270Y0001974D01*
X0087869Y0002240D01*
X0085475Y0002565D01*
X0083091Y0002949D01*
X0080716Y0003391D01*
X0078353Y0003891D01*
X0076003Y0004449D01*
X0073667Y0005065D01*
X0071347Y0005738D01*
X0069045Y0006467D01*
X0066761Y0007253D01*
X0064497Y0008095D01*
X0062254Y0008991D01*
X0060034Y0009943D01*
X0057838Y0010949D01*
X0055667Y0012008D01*
X0053523Y0013121D01*
X0051407Y0014286D01*
X0049320Y0015502D01*
X0047264Y0016769D01*
X0045239Y0018086D01*
X0043247Y0019453D01*
X0041290Y0020868D01*
X0039367Y0022330D01*
X0037482Y0023839D01*
X0035633Y0025395D01*
X0033824Y0026995D01*
X0032054Y0028638D01*
X0030325Y0030325D01*
X0028638Y0032054D01*
X0026995Y0033824D01*
X0025395Y0035633D01*
X0023839Y0037482D01*
X0022330Y0039367D01*
X0020868Y0041290D01*
X0019453Y0043247D01*
X0018086Y0045239D01*
X0016769Y0047264D01*
X0015502Y0049320D01*
X0014286Y0051407D01*
X0013121Y0053523D01*
X0012008Y0055667D01*
X0010949Y0057838D01*
X0009943Y0060034D01*
X0008991Y0062254D01*
X0008095Y0064497D01*
X0007253Y0066761D01*
X0006467Y0069045D01*
X0005738Y0071347D01*
X0005065Y0073667D01*
X0004449Y0076003D01*
X0003891Y0078353D01*
X0003391Y0080716D01*
X0002949Y0083091D01*
X0002565Y0085475D01*
X0002240Y0087869D01*
X0001974Y0090270D01*
X0001767Y0092676D01*
X0001619Y0095087D01*
X0001530Y0097501D01*
X0001500Y0099916D01*
X0082640Y0098550D02*
X0083609Y0098550D01*
X0083609Y0097552D02*
X0082640Y0097552D01*
X0082640Y0096553D02*
X0083609Y0096553D01*
X0083609Y0095555D02*
X0082640Y0095555D01*
X0084569Y0112530D02*
X0085537Y0112530D01*
X0085537Y0113528D02*
X0084569Y0113528D01*
X0084569Y0114527D02*
X0085537Y0114527D01*
D11*
X0096944Y0074790D03*
X0096944Y0072822D03*
X0096944Y0070853D03*
X0096944Y0068885D03*
X0096944Y0066916D03*
X0112495Y0066916D03*
X0112495Y0068885D03*
X0112495Y0070853D03*
X0112495Y0072822D03*
X0112495Y0074790D03*
D12*
X0108656Y0078629D03*
X0106688Y0078629D03*
X0104719Y0078629D03*
X0102751Y0078629D03*
X0100782Y0078629D03*
X0100782Y0063077D03*
X0102751Y0063077D03*
X0104719Y0063077D03*
X0106688Y0063077D03*
X0108656Y0063077D03*
D13*
X0109444Y0066129D02*
X0109444Y0075577D01*
X0099995Y0075577D01*
X0099995Y0066129D01*
X0109444Y0066129D01*
X0109444Y0066164D02*
X0099995Y0066164D01*
X0099995Y0066862D02*
X0109444Y0066862D01*
X0109444Y0067561D02*
X0099995Y0067561D01*
X0099995Y0068259D02*
X0109444Y0068259D01*
X0109444Y0068958D02*
X0099995Y0068958D01*
X0099995Y0069656D02*
X0109444Y0069656D01*
X0109444Y0070355D02*
X0099995Y0070355D01*
X0099995Y0071053D02*
X0109444Y0071053D01*
X0109444Y0071752D02*
X0099995Y0071752D01*
X0099995Y0072450D02*
X0109444Y0072450D01*
X0109444Y0073149D02*
X0099995Y0073149D01*
X0099995Y0073847D02*
X0109444Y0073847D01*
X0109444Y0074546D02*
X0099995Y0074546D01*
X0099995Y0075244D02*
X0109444Y0075244D01*
D14*
X0104719Y0070853D03*
X0099452Y0144786D03*
D15*
X0107818Y0144549D02*
X0091085Y0144549D01*
X0091085Y0143951D02*
X0107818Y0143951D01*
X0107818Y0143352D02*
X0091085Y0143352D01*
X0091085Y0142754D02*
X0107818Y0142754D01*
X0107818Y0142155D02*
X0091085Y0142155D01*
X0091085Y0141557D02*
X0107818Y0141557D01*
X0107818Y0140958D02*
X0091085Y0140958D01*
X0091085Y0140849D02*
X0091085Y0147936D01*
X0107818Y0147936D01*
X0107818Y0140849D01*
X0091085Y0140849D01*
X0091085Y0145148D02*
X0107818Y0145148D01*
X0107818Y0145746D02*
X0091085Y0145746D01*
X0091085Y0146345D02*
X0107818Y0146345D01*
X0107818Y0146943D02*
X0091085Y0146943D01*
X0091085Y0147542D02*
X0107818Y0147542D01*
X0107818Y0188881D02*
X0091085Y0188881D01*
X0091085Y0195967D01*
X0107818Y0195967D01*
X0107818Y0188881D01*
X0107818Y0189438D02*
X0091085Y0189438D01*
X0091085Y0190036D02*
X0107818Y0190036D01*
X0107818Y0190635D02*
X0091085Y0190635D01*
X0091085Y0191233D02*
X0107818Y0191233D01*
X0107818Y0191832D02*
X0091085Y0191832D01*
X0091085Y0192430D02*
X0107818Y0192430D01*
X0107818Y0193029D02*
X0091085Y0193029D01*
X0091085Y0193627D02*
X0107818Y0193627D01*
X0107818Y0194226D02*
X0091085Y0194226D01*
X0091085Y0194824D02*
X0107818Y0194824D01*
X0107818Y0195423D02*
X0091085Y0195423D01*
D16*
X0159936Y0095188D03*
X0169936Y0095188D03*
X0169936Y0085188D03*
X0159936Y0085188D03*
X0159936Y0075188D03*
X0169936Y0075188D03*
X0169936Y0065188D03*
X0159936Y0065188D03*
X0159936Y0055188D03*
X0169936Y0055188D03*
D17*
X0129144Y0038818D03*
X0122452Y0038818D03*
X0121644Y0052326D03*
X0114952Y0052326D03*
X0107353Y0053172D03*
X0107353Y0046479D03*
X0083144Y0072837D03*
X0076452Y0072837D03*
X0076286Y0081074D03*
X0082979Y0081074D03*
X0074144Y0064708D03*
X0067452Y0064708D03*
X0061944Y0072719D03*
X0055252Y0072719D03*
X0049544Y0072930D03*
X0042852Y0072930D03*
X0037444Y0072794D03*
X0030752Y0072794D03*
X0071590Y0122579D03*
X0078283Y0122579D03*
D18*
X0085053Y0122699D03*
X0085053Y0116006D03*
X0083125Y0094944D03*
X0083125Y0088251D03*
X0090034Y0079637D03*
X0090034Y0072944D03*
X0089633Y0064944D03*
X0089633Y0058251D03*
X0081021Y0058251D03*
X0081021Y0064944D03*
X0068718Y0072751D03*
X0068718Y0079444D03*
X0054314Y0065609D03*
X0054314Y0058916D03*
X0041566Y0058916D03*
X0041566Y0065609D03*
X0032113Y0080251D03*
X0032113Y0086944D03*
X0098609Y0038944D03*
X0098609Y0032251D03*
X0107357Y0032251D03*
X0107357Y0038944D03*
X0115605Y0038944D03*
X0115605Y0032251D03*
D19*
X0114723Y0084117D03*
X0114723Y0089038D03*
X0108227Y0089038D03*
X0108227Y0084117D03*
D20*
X0116515Y0079680D03*
X0121315Y0084080D03*
X0127315Y0092080D03*
X0123715Y0098080D03*
X0123715Y0106480D03*
X0115715Y0106480D03*
X0107715Y0101280D03*
X0100515Y0095280D03*
X0096115Y0102080D03*
X0090997Y0106214D03*
X0090871Y0112214D03*
X0090159Y0117286D03*
X0094884Y0117611D03*
X0098427Y0118595D03*
X0101403Y0120563D03*
X0104159Y0123661D03*
X0105537Y0127477D03*
X0110459Y0127326D03*
X0115315Y0127280D03*
X0123315Y0127280D03*
X0132115Y0127280D03*
X0140515Y0127280D03*
X0149315Y0127280D03*
X0157715Y0127280D03*
X0167315Y0127280D03*
X0176515Y0127280D03*
X0185715Y0127280D03*
X0188115Y0121680D03*
X0190115Y0114480D03*
X0191315Y0105680D03*
X0190915Y0095280D03*
X0189715Y0085680D03*
X0187715Y0076480D03*
X0184515Y0066480D03*
X0180115Y0056480D03*
X0173715Y0046880D03*
X0167715Y0038880D03*
X0159715Y0031680D03*
X0150915Y0024480D03*
X0142915Y0027280D03*
X0141315Y0019680D03*
X0134515Y0027680D03*
X0130515Y0022480D03*
X0131315Y0014480D03*
X0120115Y0011680D03*
X0120115Y0019680D03*
X0121315Y0027280D03*
X0111315Y0026880D03*
X0106915Y0019680D03*
X0102515Y0026880D03*
X0092515Y0032080D03*
X0088115Y0037680D03*
X0083315Y0043280D03*
X0082515Y0050080D03*
X0073315Y0054880D03*
X0067315Y0058880D03*
X0060515Y0059280D03*
X0061315Y0065280D03*
X0048115Y0064880D03*
X0048115Y0058880D03*
X0048515Y0052880D03*
X0054515Y0052080D03*
X0056515Y0042480D03*
X0065715Y0048880D03*
X0072915Y0042080D03*
X0065315Y0034080D03*
X0068515Y0023680D03*
X0070115Y0013680D03*
X0078515Y0022080D03*
X0078115Y0032080D03*
X0092515Y0020480D03*
X0082115Y0010480D03*
X0094915Y0008880D03*
X0107715Y0009680D03*
X0134515Y0039680D03*
X0135315Y0045680D03*
X0134115Y0051280D03*
X0128115Y0052080D03*
X0128115Y0045680D03*
X0122115Y0045680D03*
X0116115Y0045680D03*
X0126928Y0058530D03*
X0122991Y0062861D03*
X0132915Y0070080D03*
X0138915Y0080080D03*
X0144115Y0090080D03*
X0152515Y0090080D03*
X0151715Y0080480D03*
X0152915Y0070480D03*
X0144115Y0062080D03*
X0152915Y0060080D03*
X0153315Y0050480D03*
X0151715Y0045280D03*
X0147715Y0040880D03*
X0143715Y0045280D03*
X0146515Y0050480D03*
X0140115Y0050480D03*
X0141315Y0039680D03*
X0096115Y0081680D03*
X0090115Y0088480D03*
X0090115Y0094880D03*
X0082915Y0101680D03*
X0085114Y0110593D03*
X0079996Y0112759D03*
X0076255Y0117089D03*
X0079684Y0117286D03*
X0072515Y0117286D03*
X0068115Y0117680D03*
X0063315Y0117280D03*
X0059315Y0116480D03*
X0054725Y0115274D03*
X0050331Y0113070D03*
X0046928Y0110467D03*
X0043925Y0107267D03*
X0040934Y0103070D03*
X0038731Y0099661D03*
X0037918Y0095655D03*
X0037873Y0091952D03*
X0037512Y0088092D03*
X0039315Y0084480D03*
X0039315Y0078880D03*
X0044915Y0078480D03*
X0050915Y0078480D03*
X0057315Y0078880D03*
X0055315Y0086880D03*
X0059715Y0094480D03*
X0052153Y0095196D03*
X0059437Y0102086D03*
X0063715Y0108480D03*
X0068115Y0100480D03*
X0075715Y0094880D03*
X0075715Y0089280D03*
X0069715Y0086080D03*
X0064115Y0078880D03*
X0045715Y0086880D03*
X0044959Y0097070D03*
X0051956Y0104842D03*
X0040515Y0118874D03*
X0036718Y0115470D03*
X0033125Y0111274D03*
X0030922Y0106677D03*
X0029125Y0102080D03*
X0028115Y0098080D03*
X0027315Y0094080D03*
X0026915Y0090480D03*
X0026515Y0086880D03*
X0026115Y0082080D03*
X0026115Y0077680D03*
X0025715Y0072480D03*
X0027715Y0067280D03*
X0020915Y0066880D03*
X0016915Y0061280D03*
X0025315Y0058480D03*
X0021315Y0052880D03*
X0026915Y0044880D03*
X0030915Y0050880D03*
X0036515Y0045680D03*
X0041315Y0052880D03*
X0035315Y0058880D03*
X0035315Y0064880D03*
X0018515Y0077280D03*
X0010915Y0079280D03*
X0009315Y0088880D03*
X0018115Y0087680D03*
X0018115Y0097680D03*
X0008515Y0098480D03*
X0008915Y0108480D03*
X0010515Y0118080D03*
X0012915Y0124080D03*
X0017315Y0128092D03*
X0019715Y0119680D03*
X0027315Y0127896D03*
X0028915Y0118880D03*
X0036522Y0127896D03*
X0045328Y0128092D03*
X0048522Y0124277D03*
X0044515Y0122074D03*
X0052915Y0125680D03*
X0057315Y0127083D03*
X0061918Y0127489D03*
X0066928Y0127692D03*
X0072515Y0127889D03*
X0077715Y0127889D03*
X0082915Y0128086D03*
X0088115Y0128283D03*
X0092915Y0128480D03*
X0102624Y0110677D03*
X0110199Y0116976D03*
X0119715Y0116880D03*
X0127715Y0116880D03*
X0136515Y0116880D03*
X0144915Y0116880D03*
X0153715Y0116880D03*
X0162115Y0116880D03*
X0171715Y0116880D03*
X0180915Y0116880D03*
X0176915Y0106480D03*
X0167715Y0106480D03*
X0158115Y0106480D03*
X0149715Y0106480D03*
X0140915Y0106480D03*
X0132515Y0106480D03*
X0132115Y0098080D03*
X0095715Y0060880D03*
X0095715Y0056880D03*
X0095715Y0052880D03*
X0095715Y0048880D03*
X0059315Y0018480D03*
X0050115Y0024080D03*
X0052115Y0033680D03*
X0044915Y0042080D03*
X0033315Y0037280D03*
X0040915Y0030080D03*
X0013315Y0070480D03*
X0019715Y0108480D03*
X0074515Y0108080D03*
D21*
X0101315Y0084480D02*
X0104915Y0080880D01*
X0104915Y0075280D01*
X0096944Y0068885D02*
X0093574Y0068885D01*
X0089633Y0064944D01*
X0104719Y0063077D02*
X0104719Y0059030D01*
X0107353Y0053172D01*
D22*
X0114235Y0053042D01*
X0114952Y0052326D01*
X0115605Y0038944D02*
X0107357Y0038944D01*
X0098609Y0038944D01*
X0094952Y0038944D01*
X0089715Y0044180D01*
X0089715Y0050168D01*
X0089633Y0058251D01*
X0082550Y0058180D02*
X0081021Y0058251D01*
X0080215Y0058180D02*
X0082550Y0058180D01*
X0080215Y0058180D02*
X0076144Y0062251D01*
X0074144Y0064708D01*
X0067452Y0064708D02*
X0068252Y0072684D01*
X0063180Y0072684D01*
X0061944Y0072719D01*
X0055252Y0072719D02*
X0054215Y0072719D01*
X0054314Y0072621D01*
X0054314Y0065609D01*
X0054215Y0072719D02*
X0051333Y0072719D01*
X0049544Y0072930D01*
X0042852Y0072930D02*
X0041215Y0072530D01*
X0041566Y0072180D01*
X0041566Y0065609D01*
X0041215Y0072530D02*
X0038908Y0072530D01*
X0037444Y0072794D01*
X0030752Y0072794D02*
X0031952Y0080089D01*
X0032113Y0080251D01*
X0068252Y0072684D02*
X0068718Y0072751D01*
X0076365Y0072751D01*
X0076452Y0072837D01*
X0076286Y0073003D01*
X0076286Y0081074D01*
X0082979Y0081074D02*
X0082979Y0088105D01*
X0083125Y0088251D01*
X0082979Y0081074D02*
X0084416Y0079637D01*
X0088042Y0079637D01*
X0090034Y0072944D02*
X0083251Y0072944D01*
X0083144Y0072837D01*
X0081021Y0064944D02*
X0089633Y0064944D01*
X0115605Y0038944D02*
X0115731Y0038818D01*
X0122452Y0038818D01*
X0122715Y0038554D01*
X0122715Y0035180D01*
X0123715Y0034180D01*
X0148928Y0034180D01*
X0169936Y0055188D01*
D23*
X0107353Y0046479D02*
X0100983Y0046479D01*
X0100957Y0046481D01*
X0100931Y0046486D01*
X0100906Y0046494D01*
X0100883Y0046506D01*
X0100861Y0046521D01*
X0100841Y0046538D01*
X0100824Y0046558D01*
X0100809Y0046580D01*
X0100797Y0046603D01*
X0100789Y0046628D01*
X0100784Y0046654D01*
X0100782Y0046680D01*
X0100782Y0045747D01*
X0098215Y0043180D01*
X0098215Y0039337D01*
X0098609Y0038944D01*
X0100782Y0046680D02*
X0100782Y0063077D01*
D24*
X0061748Y0122179D02*
X0060965Y0122102D01*
X0060184Y0122006D01*
X0059406Y0121891D01*
X0058631Y0121758D01*
X0057859Y0121605D01*
X0057091Y0121434D01*
X0056327Y0121245D01*
X0055568Y0121037D01*
X0054815Y0120811D01*
X0054067Y0120567D01*
X0053325Y0120305D01*
X0052590Y0120024D01*
X0051862Y0119727D01*
X0051141Y0119411D01*
X0050428Y0119079D01*
X0049724Y0118729D01*
X0049027Y0118362D01*
X0048340Y0117979D01*
X0047663Y0117579D01*
X0046995Y0117163D01*
X0046338Y0116731D01*
X0045691Y0116283D01*
X0045055Y0115819D01*
X0044431Y0115341D01*
X0043818Y0114847D01*
X0043218Y0114339D01*
X0042630Y0113816D01*
X0042054Y0113280D01*
X0041492Y0112729D01*
X0040944Y0112165D01*
X0040409Y0111589D01*
X0039888Y0110999D01*
X0039381Y0110397D01*
X0038890Y0109783D01*
X0038413Y0109157D01*
X0037952Y0108520D01*
X0037506Y0107871D01*
X0037076Y0107213D01*
X0036661Y0106544D01*
X0036264Y0105865D01*
X0035882Y0105177D01*
X0035518Y0104480D01*
X0035170Y0103774D01*
X0034840Y0103060D01*
X0034527Y0102338D01*
X0034231Y0101609D01*
X0033953Y0100873D01*
X0033693Y0100131D01*
X0033451Y0099382D01*
X0033228Y0098628D01*
X0033022Y0097868D01*
X0032835Y0097104D01*
X0032666Y0096336D01*
X0032516Y0095563D01*
X0032385Y0094788D01*
X0032273Y0094009D01*
X0032179Y0093228D01*
X0032104Y0092445D01*
X0032048Y0091660D01*
X0032012Y0090874D01*
X0031994Y0090088D01*
X0031995Y0089301D01*
X0032015Y0088514D01*
X0032054Y0087729D01*
X0032113Y0086944D01*
X0061748Y0122179D02*
X0071590Y0122579D01*
X0078283Y0122579D02*
X0085053Y0122699D01*
X0093618Y0122770D01*
X0093617Y0122769D02*
X0093777Y0122773D01*
X0093936Y0122781D01*
X0094095Y0122793D01*
X0094253Y0122809D01*
X0094411Y0122829D01*
X0094569Y0122852D01*
X0094726Y0122879D01*
X0094882Y0122910D01*
X0095037Y0122945D01*
X0095192Y0122984D01*
X0095345Y0123026D01*
X0095498Y0123072D01*
X0095649Y0123122D01*
X0095799Y0123175D01*
X0095948Y0123232D01*
X0096095Y0123292D01*
X0096241Y0123356D01*
X0096385Y0123424D01*
X0096528Y0123495D01*
X0096669Y0123569D01*
X0096808Y0123647D01*
X0096945Y0123728D01*
X0097080Y0123813D01*
X0097213Y0123900D01*
X0097344Y0123991D01*
X0097472Y0124085D01*
X0097599Y0124182D01*
X0097722Y0124282D01*
X0097844Y0124385D01*
X0097963Y0124491D01*
X0098079Y0124600D01*
X0098193Y0124712D01*
X0098304Y0124826D01*
X0098412Y0124943D01*
X0098517Y0125063D01*
X0098620Y0125185D01*
X0098719Y0125309D01*
X0098815Y0125436D01*
X0098908Y0125565D01*
X0098999Y0125696D01*
X0099086Y0125830D01*
X0099169Y0125965D01*
X0099250Y0126103D01*
X0099327Y0126242D01*
X0099400Y0126384D01*
X0099470Y0126526D01*
X0099537Y0126671D01*
X0099600Y0126817D01*
X0099660Y0126965D01*
X0099716Y0127114D01*
X0099768Y0127264D01*
X0099817Y0127416D01*
X0099862Y0127569D01*
X0099904Y0127723D01*
X0099941Y0127877D01*
X0099975Y0128033D01*
X0100005Y0128189D01*
X0100032Y0128347D01*
X0100054Y0128504D01*
X0100073Y0128662D01*
X0100088Y0128821D01*
X0100099Y0128980D01*
X0100106Y0129139D01*
X0100110Y0129298D01*
X0100109Y0129457D01*
X0100109Y0129458D02*
X0099715Y0144522D01*
X0099716Y0144522D02*
X0099714Y0144552D01*
X0099709Y0144581D01*
X0099701Y0144609D01*
X0099690Y0144637D01*
X0099676Y0144662D01*
X0099658Y0144687D01*
X0099639Y0144709D01*
X0099617Y0144728D01*
X0099592Y0144746D01*
X0099567Y0144760D01*
X0099539Y0144771D01*
X0099511Y0144779D01*
X0099482Y0144784D01*
X0099452Y0144786D01*
M02*
