%
M48
M72
T01C0.01181
T02C0.04000
%
T01
X33315Y37280
X36515Y45680
X30915Y50880
X26915Y44880
X21315Y52880
X25315Y58480
X16915Y61280
X20915Y66880
X25715Y72480
X27715Y67280
X35315Y64880
X35315Y58880
X41315Y52880
X48515Y52880
X48115Y58880
X48115Y64880
X61315Y65280
X60515Y59280
X67315Y58880
X73315Y54880
X65715Y48880
X72915Y42080
X65315Y34080
X68515Y23680
X70115Y13680
X78515Y22080
X78115Y32080
X88115Y37680
X92515Y32080
X102515Y26880
X106915Y19680
X111315Y26880
X121315Y27280
X120115Y19680
X120115Y11680
X131315Y14480
X130515Y22480
X134515Y27680
X142915Y27280
X141315Y19680
X150915Y24480
X159715Y31680
X167715Y38880
X173715Y46880
X180115Y56480
X184515Y66480
X187715Y76480
X189715Y85680
X190915Y95280
X191315Y105680
X190115Y114480
X188115Y121680
X185715Y127280
X176515Y127280
X167315Y127280
X157715Y127280
X149315Y127280
X140515Y127280
X132115Y127280
X123315Y127280
X115315Y127280
X110459Y127326
X105537Y127477
X104159Y123661
X101403Y120563
X98427Y118595
X94884Y117611
X90159Y117286
X90871Y112214
X85114Y110593
X79996Y112759
X76255Y117089
X79684Y117286
X72515Y117286
X68115Y117680
X63315Y117280
X59315Y116480
X54725Y115274
X50331Y113070
X46928Y110467
X43925Y107267
X40934Y103070
X38731Y99661
X37918Y95655
X37873Y91952
X37512Y88092
X39315Y84480
X39315Y78880
X44915Y78480
X50915Y78480
X57315Y78880
X55315Y86880
X59715Y94480
X52153Y95196
X59437Y102086
X63715Y108480
X68115Y100480
X75715Y94880
X75715Y89280
X69715Y86080
X64115Y78880
X45715Y86880
X44959Y97070
X51956Y104842
X40515Y118874
X36718Y115470
X33125Y111274
X30922Y106677
X29125Y102080
X28115Y98080
X27315Y94080
X26915Y90480
X26515Y86880
X26115Y82080
X26115Y77680
X18515Y77280
X10915Y79280
X9315Y88880
X18115Y87680
X18115Y97680
X8515Y98480
X8915Y108480
X10515Y118080
X12915Y124080
X17315Y128092
X19715Y119680
X27315Y127896
X28915Y118880
X36522Y127896
X45328Y128092
X48522Y124277
X44515Y122074
X52915Y125680
X57315Y127083
X61918Y127489
X66928Y127692
X72515Y127889
X77715Y127889
X82915Y128086
X88115Y128283
X92915Y128480
X102624Y110677
X110199Y116976
X119715Y116880
X127715Y116880
X136515Y116880
X144915Y116880
X153715Y116880
X162115Y116880
X171715Y116880
X180915Y116880
X176915Y106480
X167715Y106480
X158115Y106480
X149715Y106480
X140915Y106480
X132515Y106480
X132115Y98080
X127315Y92080
X123715Y98080
X123715Y106480
X115715Y106480
X107715Y101280
X19715Y108480
X13315Y70480
X44915Y42080
X52115Y33680
X50115Y24080
X59315Y18480
X40915Y30080
X56515Y42480
X54515Y52080
X82515Y50080
X83315Y43280
X95715Y48880
X95715Y52880
X95715Y56880
X95715Y60880
X96115Y81680
X90115Y88480
X90115Y94880
X96115Y102080
X90997Y106214
X82915Y101680
X74515Y108080
X100515Y95280
X116515Y79680
X121315Y84080
X132915Y70080
X138915Y80080
X144115Y90080
X152515Y90080
X151715Y80480
X152915Y70480
X144115Y62080
X152915Y60080
X153315Y50480
X151715Y45280
X147715Y40880
X143715Y45280
X146515Y50480
X140115Y50480
X134115Y51280
X135315Y45680
X134515Y39680
X141315Y39680
X128115Y45680
X122115Y45680
X116115Y45680
X128115Y52080
X126928Y58530
X122991Y62861
X92515Y20480
X82115Y10480
X94915Y8880
X107715Y9680
T02
X159936Y55188
X159936Y65188
X159936Y75188
X159936Y85188
X159936Y95188
X169936Y95188
X169936Y85188
X169936Y75188
X169936Y65188
X169936Y55188
M30
