G75*
%MOIN*%
%OFA0B0*%
%FSLAX25Y25*%
%IPPOS*%
%LPD*%
%AMOC8*
5,1,8,0,0,1.08239X$1,22.5*
%
%ADD10C,0.01000*%
%ADD11R,0.03156X0.01384*%
%ADD12R,0.01384X0.03156*%
%ADD13C,0.00500*%
%ADD14R,0.05400X0.02900*%
%ADD15OC8,0.07800*%
%ADD16R,0.04731X0.04337*%
%ADD17R,0.04337X0.04731*%
%ADD18R,0.03943X0.03550*%
D10*
X0001500Y0099916D02*
X0001530Y0102331D01*
X0001619Y0104745D01*
X0001767Y0107156D01*
X0001974Y0109562D01*
X0002240Y0111963D01*
X0002565Y0114357D01*
X0002949Y0116741D01*
X0003391Y0119116D01*
X0003891Y0121479D01*
X0004449Y0123829D01*
X0005065Y0126165D01*
X0005738Y0128485D01*
X0006467Y0130787D01*
X0007253Y0133071D01*
X0008095Y0135335D01*
X0008991Y0137578D01*
X0009943Y0139798D01*
X0010949Y0141994D01*
X0012008Y0144165D01*
X0013121Y0146309D01*
X0014286Y0148425D01*
X0015502Y0150512D01*
X0016769Y0152568D01*
X0018086Y0154593D01*
X0019453Y0156585D01*
X0020868Y0158542D01*
X0022330Y0160465D01*
X0023839Y0162350D01*
X0025395Y0164199D01*
X0026995Y0166008D01*
X0028638Y0167778D01*
X0030325Y0169507D01*
X0032054Y0171194D01*
X0033824Y0172837D01*
X0035633Y0174437D01*
X0037482Y0175993D01*
X0039367Y0177502D01*
X0041290Y0178964D01*
X0043247Y0180379D01*
X0045239Y0181746D01*
X0047264Y0183063D01*
X0049320Y0184330D01*
X0051407Y0185546D01*
X0053523Y0186711D01*
X0055667Y0187824D01*
X0057838Y0188883D01*
X0060034Y0189889D01*
X0062254Y0190841D01*
X0064497Y0191737D01*
X0066761Y0192579D01*
X0069045Y0193365D01*
X0071347Y0194094D01*
X0073667Y0194767D01*
X0076003Y0195383D01*
X0078353Y0195941D01*
X0080716Y0196441D01*
X0083091Y0196883D01*
X0085475Y0197267D01*
X0087869Y0197592D01*
X0090270Y0197858D01*
X0092676Y0198065D01*
X0095087Y0198213D01*
X0097501Y0198302D01*
X0099916Y0198332D01*
X0102331Y0198302D01*
X0104745Y0198213D01*
X0107156Y0198065D01*
X0109562Y0197858D01*
X0111963Y0197592D01*
X0114357Y0197267D01*
X0116741Y0196883D01*
X0119116Y0196441D01*
X0121479Y0195941D01*
X0123829Y0195383D01*
X0126165Y0194767D01*
X0128485Y0194094D01*
X0130787Y0193365D01*
X0133071Y0192579D01*
X0135335Y0191737D01*
X0137578Y0190841D01*
X0139798Y0189889D01*
X0141994Y0188883D01*
X0144165Y0187824D01*
X0146309Y0186711D01*
X0148425Y0185546D01*
X0150512Y0184330D01*
X0152568Y0183063D01*
X0154593Y0181746D01*
X0156585Y0180379D01*
X0158542Y0178964D01*
X0160465Y0177502D01*
X0162350Y0175993D01*
X0164199Y0174437D01*
X0166008Y0172837D01*
X0167778Y0171194D01*
X0169507Y0169507D01*
X0171194Y0167778D01*
X0172837Y0166008D01*
X0174437Y0164199D01*
X0175993Y0162350D01*
X0177502Y0160465D01*
X0178964Y0158542D01*
X0180379Y0156585D01*
X0181746Y0154593D01*
X0183063Y0152568D01*
X0184330Y0150512D01*
X0185546Y0148425D01*
X0186711Y0146309D01*
X0187824Y0144165D01*
X0188883Y0141994D01*
X0189889Y0139798D01*
X0190841Y0137578D01*
X0191737Y0135335D01*
X0192579Y0133071D01*
X0193365Y0130787D01*
X0194094Y0128485D01*
X0194767Y0126165D01*
X0195383Y0123829D01*
X0195941Y0121479D01*
X0196441Y0119116D01*
X0196883Y0116741D01*
X0197267Y0114357D01*
X0197592Y0111963D01*
X0197858Y0109562D01*
X0198065Y0107156D01*
X0198213Y0104745D01*
X0198302Y0102331D01*
X0198332Y0099916D01*
X0198302Y0097501D01*
X0198213Y0095087D01*
X0198065Y0092676D01*
X0197858Y0090270D01*
X0197592Y0087869D01*
X0197267Y0085475D01*
X0196883Y0083091D01*
X0196441Y0080716D01*
X0195941Y0078353D01*
X0195383Y0076003D01*
X0194767Y0073667D01*
X0194094Y0071347D01*
X0193365Y0069045D01*
X0192579Y0066761D01*
X0191737Y0064497D01*
X0190841Y0062254D01*
X0189889Y0060034D01*
X0188883Y0057838D01*
X0187824Y0055667D01*
X0186711Y0053523D01*
X0185546Y0051407D01*
X0184330Y0049320D01*
X0183063Y0047264D01*
X0181746Y0045239D01*
X0180379Y0043247D01*
X0178964Y0041290D01*
X0177502Y0039367D01*
X0175993Y0037482D01*
X0174437Y0035633D01*
X0172837Y0033824D01*
X0171194Y0032054D01*
X0169507Y0030325D01*
X0167778Y0028638D01*
X0166008Y0026995D01*
X0164199Y0025395D01*
X0162350Y0023839D01*
X0160465Y0022330D01*
X0158542Y0020868D01*
X0156585Y0019453D01*
X0154593Y0018086D01*
X0152568Y0016769D01*
X0150512Y0015502D01*
X0148425Y0014286D01*
X0146309Y0013121D01*
X0144165Y0012008D01*
X0141994Y0010949D01*
X0139798Y0009943D01*
X0137578Y0008991D01*
X0135335Y0008095D01*
X0133071Y0007253D01*
X0130787Y0006467D01*
X0128485Y0005738D01*
X0126165Y0005065D01*
X0123829Y0004449D01*
X0121479Y0003891D01*
X0119116Y0003391D01*
X0116741Y0002949D01*
X0114357Y0002565D01*
X0111963Y0002240D01*
X0109562Y0001974D01*
X0107156Y0001767D01*
X0104745Y0001619D01*
X0102331Y0001530D01*
X0099916Y0001500D01*
X0097501Y0001530D01*
X0095087Y0001619D01*
X0092676Y0001767D01*
X0090270Y0001974D01*
X0087869Y0002240D01*
X0085475Y0002565D01*
X0083091Y0002949D01*
X0080716Y0003391D01*
X0078353Y0003891D01*
X0076003Y0004449D01*
X0073667Y0005065D01*
X0071347Y0005738D01*
X0069045Y0006467D01*
X0066761Y0007253D01*
X0064497Y0008095D01*
X0062254Y0008991D01*
X0060034Y0009943D01*
X0057838Y0010949D01*
X0055667Y0012008D01*
X0053523Y0013121D01*
X0051407Y0014286D01*
X0049320Y0015502D01*
X0047264Y0016769D01*
X0045239Y0018086D01*
X0043247Y0019453D01*
X0041290Y0020868D01*
X0039367Y0022330D01*
X0037482Y0023839D01*
X0035633Y0025395D01*
X0033824Y0026995D01*
X0032054Y0028638D01*
X0030325Y0030325D01*
X0028638Y0032054D01*
X0026995Y0033824D01*
X0025395Y0035633D01*
X0023839Y0037482D01*
X0022330Y0039367D01*
X0020868Y0041290D01*
X0019453Y0043247D01*
X0018086Y0045239D01*
X0016769Y0047264D01*
X0015502Y0049320D01*
X0014286Y0051407D01*
X0013121Y0053523D01*
X0012008Y0055667D01*
X0010949Y0057838D01*
X0009943Y0060034D01*
X0008991Y0062254D01*
X0008095Y0064497D01*
X0007253Y0066761D01*
X0006467Y0069045D01*
X0005738Y0071347D01*
X0005065Y0073667D01*
X0004449Y0076003D01*
X0003891Y0078353D01*
X0003391Y0080716D01*
X0002949Y0083091D01*
X0002565Y0085475D01*
X0002240Y0087869D01*
X0001974Y0090270D01*
X0001767Y0092676D01*
X0001619Y0095087D01*
X0001530Y0097501D01*
X0001500Y0099916D01*
D11*
X0096944Y0074790D03*
X0096944Y0072822D03*
X0096944Y0070853D03*
X0096944Y0068885D03*
X0096944Y0066916D03*
X0112495Y0066916D03*
X0112495Y0068885D03*
X0112495Y0070853D03*
X0112495Y0072822D03*
X0112495Y0074790D03*
D12*
X0108656Y0078629D03*
X0106688Y0078629D03*
X0104719Y0078629D03*
X0102751Y0078629D03*
X0100782Y0078629D03*
X0100782Y0063077D03*
X0102751Y0063077D03*
X0104719Y0063077D03*
X0106688Y0063077D03*
X0108656Y0063077D03*
D13*
X0109837Y0065735D02*
X0109837Y0075971D01*
X0099601Y0075971D01*
X0099601Y0065735D01*
X0109837Y0065735D01*
X0109837Y0066018D02*
X0099601Y0066018D01*
X0099601Y0066516D02*
X0109837Y0066516D01*
X0109837Y0067015D02*
X0099601Y0067015D01*
X0099601Y0067513D02*
X0109837Y0067513D01*
X0109837Y0068012D02*
X0099601Y0068012D01*
X0099601Y0068510D02*
X0109837Y0068510D01*
X0109837Y0069009D02*
X0099601Y0069009D01*
X0099601Y0069507D02*
X0109837Y0069507D01*
X0109837Y0070006D02*
X0099601Y0070006D01*
X0099601Y0070504D02*
X0109837Y0070504D01*
X0109837Y0071003D02*
X0099601Y0071003D01*
X0099601Y0071501D02*
X0109837Y0071501D01*
X0109837Y0072000D02*
X0099601Y0072000D01*
X0099601Y0072498D02*
X0109837Y0072498D01*
X0109837Y0072997D02*
X0099601Y0072997D01*
X0099601Y0073495D02*
X0109837Y0073495D01*
X0109837Y0073994D02*
X0099601Y0073994D01*
X0099601Y0074492D02*
X0109837Y0074492D01*
X0109837Y0074991D02*
X0099601Y0074991D01*
X0099601Y0075489D02*
X0109837Y0075489D01*
X0108113Y0140652D02*
X0090790Y0140652D01*
X0090790Y0148133D01*
X0108113Y0148133D01*
X0108113Y0140652D01*
X0108113Y0140794D02*
X0090790Y0140794D01*
X0090790Y0141293D02*
X0108113Y0141293D01*
X0108113Y0141791D02*
X0090790Y0141791D01*
X0090790Y0142290D02*
X0108113Y0142290D01*
X0108113Y0142788D02*
X0090790Y0142788D01*
X0090790Y0143287D02*
X0108113Y0143287D01*
X0108113Y0143785D02*
X0090790Y0143785D01*
X0090790Y0144284D02*
X0108113Y0144284D01*
X0108113Y0144782D02*
X0090790Y0144782D01*
X0090790Y0145281D02*
X0108113Y0145281D01*
X0108113Y0145779D02*
X0090790Y0145779D01*
X0090790Y0146278D02*
X0108113Y0146278D01*
X0108113Y0146776D02*
X0090790Y0146776D01*
X0090790Y0147275D02*
X0108113Y0147275D01*
X0108113Y0147773D02*
X0090790Y0147773D01*
X0090790Y0188684D02*
X0108113Y0188684D01*
X0108113Y0196164D01*
X0090790Y0196164D01*
X0090790Y0188684D01*
X0090790Y0189150D02*
X0108113Y0189150D01*
X0108113Y0189648D02*
X0090790Y0189648D01*
X0090790Y0190147D02*
X0108113Y0190147D01*
X0108113Y0190645D02*
X0090790Y0190645D01*
X0090790Y0191144D02*
X0108113Y0191144D01*
X0108113Y0191642D02*
X0090790Y0191642D01*
X0090790Y0192141D02*
X0108113Y0192141D01*
X0108113Y0192639D02*
X0090790Y0192639D01*
X0090790Y0193138D02*
X0108113Y0193138D01*
X0108113Y0193636D02*
X0090790Y0193636D01*
X0090790Y0194135D02*
X0108113Y0194135D01*
X0108113Y0194634D02*
X0090790Y0194634D01*
X0090790Y0195132D02*
X0108113Y0195132D01*
X0108113Y0195631D02*
X0090790Y0195631D01*
X0090790Y0196129D02*
X0108113Y0196129D01*
D14*
X0099452Y0144786D03*
D15*
X0159936Y0095188D03*
X0169936Y0095188D03*
X0169936Y0085188D03*
X0159936Y0085188D03*
X0159936Y0075188D03*
X0169936Y0075188D03*
X0169936Y0065188D03*
X0159936Y0065188D03*
X0159936Y0055188D03*
X0169936Y0055188D03*
D16*
X0129144Y0038818D03*
X0122452Y0038818D03*
X0121644Y0052326D03*
X0114952Y0052326D03*
X0107353Y0053172D03*
X0107353Y0046479D03*
X0083144Y0072837D03*
X0076452Y0072837D03*
X0076286Y0081074D03*
X0082979Y0081074D03*
X0074144Y0064708D03*
X0067452Y0064708D03*
X0061944Y0072719D03*
X0055252Y0072719D03*
X0049544Y0072930D03*
X0042852Y0072930D03*
X0037444Y0072794D03*
X0030752Y0072794D03*
X0071590Y0122579D03*
X0078283Y0122579D03*
D17*
X0041566Y0058916D03*
X0041566Y0065609D03*
X0054314Y0065609D03*
X0054314Y0058916D03*
X0068718Y0072751D03*
X0068718Y0079444D03*
X0083125Y0088251D03*
X0083125Y0094944D03*
X0090034Y0079637D03*
X0090034Y0072944D03*
X0089633Y0064944D03*
X0089633Y0058251D03*
X0081021Y0058251D03*
X0081021Y0064944D03*
X0098609Y0038944D03*
X0098609Y0032251D03*
X0107357Y0032251D03*
X0107357Y0038944D03*
X0115605Y0038944D03*
X0115605Y0032251D03*
X0032113Y0080251D03*
X0032113Y0086944D03*
X0085053Y0116006D03*
X0085053Y0122699D03*
D18*
X0108227Y0089038D03*
X0108227Y0084117D03*
X0114723Y0084117D03*
X0114723Y0089038D03*
M02*
