%
M48
M72
T01C0.01969
T02C0.02362
T03C0.04000
T04C0.05200
%
T01
X22694Y77247
X33594Y77447
X42594Y78047
X50079Y78899
X58740Y85986
X66094Y86347
X50894Y90147
X59194Y93047
X50494Y98047
X40630Y97797
X41494Y89747
X33994Y85947
X24095Y84411
X80000Y97009
X90236Y93860
X92992Y98191
X102441Y93466
X119370Y94647
X140630Y95435
X156378Y94254
X168977Y94647
X174488Y95435
X197323Y100946
X207559Y101734
X208347Y106458
X196536Y112364
X175276Y114332
X170551Y116694
X170158Y123781
X163465Y130868
X155591Y135592
X155591Y145828
X140630Y145828
X128032Y145828
X115433Y145828
X104803Y147797
X85118Y147797
X102048Y137954
X124095Y130080
X146142Y119844
X142599Y113939
X194173Y121419
X200473Y121419
X208347Y122994
X216221Y127718
X224882Y130868
X236693Y135592
X252441Y135592
X254803Y143466
X271339Y143466
X283150Y143466
X294173Y143466
X302048Y139529
X290236Y134805
X281575Y134017
X271339Y134017
X272126Y125356
X279213Y125356
X271339Y118269
X255591Y113545
X256378Y100159
X229607Y86773
X222520Y88348
X213859Y89923
X177244Y85986
X205197Y75750
X209922Y75750
X253229Y79687
X252441Y85198
X285512Y77324
X294173Y77324
X304410Y77324
X315433Y77324
X325670Y77324
X339055Y77324
X313859Y85986
X302835Y85986
X292599Y84411
X303622Y94647
X313859Y94647
X330394Y94647
X338268Y92285
X337894Y101547
X331094Y102147
X331094Y108747
X338294Y109047
X313859Y115907
X303622Y115907
X295748Y111183
X336693Y133230
X336693Y140317
X336693Y146616
X212284Y144254
X89449Y114332
X75276Y115120
X46929Y120631
X24882Y130868
X33544Y134805
X24882Y141891
X31181Y144254
X39055Y144254
X20694Y147647
T02
X135512Y108033
T03
X130394Y79687
X140394Y78687
X150394Y79687
X160394Y78687
X170394Y79687
X180394Y78687
T04
X333032Y84372
M30
