G75*
%MOIN*%
%OFA0B0*%
%FSLAX25Y25*%
%IPPOS*%
%LPD*%
%AMOC8*
5,1,8,0,0,1.08239X$1,22.5*
%
%ADD10C,0.00000*%
%ADD11C,0.00300*%
%ADD12C,0.00800*%
%ADD13C,0.00400*%
D10*
X0015433Y0071025D02*
X0015433Y0153387D01*
X0343780Y0153387D01*
X0343780Y0071025D01*
X0015433Y0071025D01*
D11*
X0128383Y0088757D02*
X0128383Y0089970D01*
X0128990Y0090577D01*
X0132023Y0090577D01*
X0131417Y0091775D02*
X0130810Y0091775D01*
X0130203Y0092382D01*
X0130203Y0093595D01*
X0129597Y0094202D01*
X0128990Y0094202D01*
X0128383Y0093595D01*
X0128383Y0092382D01*
X0128990Y0091775D01*
X0131417Y0091775D02*
X0132023Y0092382D01*
X0132023Y0093595D01*
X0131417Y0094202D01*
X0132023Y0095400D02*
X0132023Y0097220D01*
X0131417Y0097827D01*
X0130810Y0097827D01*
X0130203Y0097220D01*
X0130203Y0095400D01*
X0128383Y0095400D02*
X0132023Y0095400D01*
X0130203Y0097220D02*
X0129597Y0097827D01*
X0128990Y0097827D01*
X0128383Y0097220D01*
X0128383Y0095400D01*
X0128383Y0099025D02*
X0132023Y0101452D01*
X0132023Y0102651D02*
X0128383Y0102651D01*
X0128383Y0104471D01*
X0128990Y0105077D01*
X0129597Y0105077D01*
X0130203Y0104471D01*
X0130203Y0102651D01*
X0130203Y0104471D02*
X0130810Y0105077D01*
X0131417Y0105077D01*
X0132023Y0104471D01*
X0132023Y0102651D01*
X0130810Y0106276D02*
X0128383Y0106276D01*
X0130203Y0106276D02*
X0130203Y0108702D01*
X0130810Y0108702D02*
X0128383Y0108702D01*
X0128383Y0111114D02*
X0132023Y0111114D01*
X0132023Y0109901D02*
X0132023Y0112328D01*
X0130810Y0108702D02*
X0132023Y0107489D01*
X0130810Y0106276D01*
X0139083Y0097926D02*
X0140297Y0099140D01*
X0142723Y0099140D01*
X0140297Y0096713D02*
X0139083Y0097926D01*
X0140297Y0096713D02*
X0142723Y0096713D01*
X0142117Y0095514D02*
X0141510Y0095514D01*
X0140903Y0094908D01*
X0140297Y0095514D01*
X0139690Y0095514D01*
X0139083Y0094908D01*
X0139083Y0093694D01*
X0139690Y0093088D01*
X0139690Y0091882D02*
X0139083Y0091882D01*
X0139083Y0091275D01*
X0139690Y0091275D01*
X0139690Y0091882D01*
X0139690Y0090077D02*
X0139083Y0089470D01*
X0139083Y0088257D01*
X0139690Y0087650D01*
X0140903Y0088863D02*
X0140903Y0089470D01*
X0140297Y0090077D01*
X0139690Y0090077D01*
X0140903Y0089470D02*
X0141510Y0090077D01*
X0142117Y0090077D01*
X0142723Y0089470D01*
X0142723Y0088257D01*
X0142117Y0087650D01*
X0149183Y0087650D02*
X0151610Y0087650D01*
X0152823Y0088863D01*
X0151610Y0090077D01*
X0149183Y0090077D01*
X0149183Y0091275D02*
X0149183Y0093702D01*
X0149183Y0092488D02*
X0152823Y0092488D01*
X0151610Y0091275D01*
X0151003Y0090077D02*
X0151003Y0087650D01*
X0159383Y0088257D02*
X0159990Y0087650D01*
X0159383Y0088257D02*
X0159383Y0089470D01*
X0159990Y0090077D01*
X0160597Y0090077D01*
X0161203Y0089470D01*
X0161203Y0088257D01*
X0161810Y0087650D01*
X0162417Y0087650D01*
X0163023Y0088257D01*
X0163023Y0089470D01*
X0162417Y0090077D01*
X0163023Y0091275D02*
X0163023Y0093095D01*
X0162417Y0093702D01*
X0159990Y0093702D01*
X0159383Y0093095D01*
X0159383Y0091275D01*
X0163023Y0091275D01*
X0161810Y0094900D02*
X0163023Y0096114D01*
X0161810Y0097327D01*
X0159383Y0097327D01*
X0161203Y0097327D02*
X0161203Y0094900D01*
X0161810Y0094900D02*
X0159383Y0094900D01*
X0169783Y0094900D02*
X0169783Y0097327D01*
X0169783Y0094900D02*
X0173423Y0094900D01*
X0172817Y0093702D02*
X0173423Y0093095D01*
X0173423Y0091882D01*
X0172817Y0091275D01*
X0170390Y0091275D01*
X0169783Y0091882D01*
X0169783Y0093095D01*
X0170390Y0093702D01*
X0170390Y0090077D02*
X0169783Y0089470D01*
X0169783Y0088257D01*
X0170390Y0087650D01*
X0171603Y0088257D02*
X0171603Y0089470D01*
X0170997Y0090077D01*
X0170390Y0090077D01*
X0171603Y0088257D02*
X0172210Y0087650D01*
X0172817Y0087650D01*
X0173423Y0088257D01*
X0173423Y0089470D01*
X0172817Y0090077D01*
X0142723Y0093694D02*
X0142723Y0094908D01*
X0142117Y0095514D01*
X0140903Y0094908D02*
X0140903Y0094301D01*
X0142117Y0093088D02*
X0142723Y0093694D01*
X0132023Y0088150D02*
X0128990Y0088150D01*
X0128383Y0088757D01*
D12*
X0046929Y0092285D02*
X0033150Y0092285D01*
X0037087Y0095435D02*
X0046929Y0095435D01*
X0046929Y0092285D01*
X0037087Y0095435D02*
X0037087Y0100159D01*
X0017402Y0100159D02*
X0017402Y0115907D01*
X0037087Y0115907D02*
X0037087Y0120631D01*
X0046929Y0120631D01*
X0046929Y0123781D01*
X0033150Y0123781D01*
D13*
X0023026Y0088268D02*
X0023616Y0087678D01*
X0023616Y0086498D01*
X0023026Y0085908D01*
X0023616Y0084643D02*
X0023616Y0083463D01*
X0023616Y0084053D02*
X0020666Y0084053D01*
X0020076Y0083463D01*
X0020076Y0082873D01*
X0020666Y0082283D01*
X0020076Y0085908D02*
X0022436Y0088268D01*
X0023026Y0088268D01*
X0020076Y0088268D02*
X0020076Y0085908D01*
M02*
