G75*
%MOIN*%
%OFA0B0*%
%FSLAX25Y25*%
%IPPOS*%
%LPD*%
%AMOC8*
5,1,8,0,0,1.08239X$1,22.5*
%
%ADD10C,0.00000*%
%ADD11C,0.00400*%
%ADD12C,0.00800*%
%ADD13C,0.00500*%
%ADD14C,0.01200*%
%ADD15R,0.00787X0.00787*%
%ADD16C,0.01000*%
%ADD17C,0.02000*%
D10*
X0015433Y0071025D02*
X0015433Y0153387D01*
X0343780Y0153387D01*
X0343780Y0071025D01*
X0015433Y0071025D01*
D11*
X0049404Y0075957D02*
X0049994Y0075367D01*
X0052354Y0075367D01*
X0052944Y0075957D01*
X0052944Y0077137D01*
X0052354Y0077727D01*
X0052354Y0078992D02*
X0052944Y0079582D01*
X0052944Y0080762D01*
X0052354Y0081352D01*
X0051764Y0081352D01*
X0051174Y0080762D01*
X0051174Y0080172D01*
X0051174Y0080762D02*
X0050584Y0081352D01*
X0049994Y0081352D01*
X0049404Y0080762D01*
X0049404Y0079582D01*
X0049994Y0078992D01*
X0049994Y0077727D02*
X0049404Y0077137D01*
X0049404Y0075957D01*
X0064055Y0089998D02*
X0067005Y0089998D01*
X0067595Y0090588D01*
X0067595Y0091768D01*
X0067005Y0092358D01*
X0064055Y0092358D01*
X0064645Y0093623D02*
X0064055Y0094213D01*
X0064055Y0095393D01*
X0064645Y0095983D01*
X0065235Y0095983D01*
X0067595Y0093623D01*
X0067595Y0095983D01*
X0094530Y0080922D02*
X0098070Y0078562D01*
X0098070Y0077297D02*
X0096890Y0076117D01*
X0096890Y0076707D02*
X0096890Y0074937D01*
X0098070Y0074937D02*
X0094530Y0074937D01*
X0094530Y0076707D01*
X0095120Y0077297D01*
X0096300Y0077297D01*
X0096890Y0076707D01*
X0094530Y0078562D02*
X0098070Y0080922D01*
X0107817Y0082594D02*
X0107817Y0086134D01*
X0109587Y0086134D01*
X0110177Y0085544D01*
X0110177Y0084364D01*
X0109587Y0083774D01*
X0107817Y0083774D01*
X0108997Y0083774D02*
X0110177Y0082594D01*
X0111442Y0084364D02*
X0113802Y0084364D01*
X0113212Y0082594D02*
X0113212Y0086134D01*
X0111442Y0084364D01*
X0122994Y0086777D02*
X0123584Y0086187D01*
X0124174Y0086187D01*
X0124764Y0086777D01*
X0124764Y0089727D01*
X0124174Y0089727D02*
X0125354Y0089727D01*
X0126619Y0089137D02*
X0127209Y0089727D01*
X0128389Y0089727D01*
X0128979Y0089137D01*
X0128979Y0088547D01*
X0128389Y0087957D01*
X0128979Y0087367D01*
X0128979Y0086777D01*
X0128389Y0086187D01*
X0127209Y0086187D01*
X0126619Y0086777D01*
X0127799Y0087957D02*
X0128389Y0087957D01*
X0126829Y0093424D02*
X0123289Y0093424D01*
X0123289Y0095194D01*
X0123879Y0095784D01*
X0125059Y0095784D01*
X0125649Y0095194D01*
X0125649Y0093424D01*
X0125649Y0094604D02*
X0126829Y0095784D01*
X0126829Y0097049D02*
X0126829Y0099409D01*
X0126239Y0100674D02*
X0126829Y0101264D01*
X0126829Y0102444D01*
X0126239Y0103034D01*
X0125649Y0103034D01*
X0125059Y0102444D01*
X0125059Y0101264D01*
X0124469Y0100674D01*
X0123879Y0100674D01*
X0123289Y0101264D01*
X0123289Y0102444D01*
X0123879Y0103034D01*
X0123289Y0104299D02*
X0126829Y0104299D01*
X0126829Y0106659D01*
X0125059Y0105479D02*
X0125059Y0104299D01*
X0123289Y0104299D02*
X0123289Y0106659D01*
X0123289Y0107924D02*
X0123289Y0110284D01*
X0123289Y0109104D02*
X0126829Y0109104D01*
X0105145Y0112463D02*
X0101605Y0112463D01*
X0101605Y0114233D01*
X0102195Y0114823D01*
X0103375Y0114823D01*
X0103965Y0114233D01*
X0103965Y0112463D01*
X0103965Y0113643D02*
X0105145Y0114823D01*
X0104555Y0116088D02*
X0105145Y0116678D01*
X0105145Y0117858D01*
X0104555Y0118448D01*
X0103375Y0118448D01*
X0102785Y0117858D01*
X0102785Y0117268D01*
X0103375Y0116088D01*
X0101605Y0116088D01*
X0101605Y0118448D01*
X0101378Y0123327D02*
X0101378Y0125097D01*
X0101968Y0125687D01*
X0103148Y0125687D01*
X0103738Y0125097D01*
X0103738Y0123327D01*
X0103738Y0124507D02*
X0104918Y0125687D01*
X0104328Y0126952D02*
X0103738Y0126952D01*
X0103148Y0127542D01*
X0103148Y0128722D01*
X0103738Y0129312D01*
X0104328Y0129312D01*
X0104918Y0128722D01*
X0104918Y0127542D01*
X0104328Y0126952D01*
X0103148Y0127542D02*
X0102558Y0126952D01*
X0101968Y0126952D01*
X0101378Y0127542D01*
X0101378Y0128722D01*
X0101968Y0129312D01*
X0102558Y0129312D01*
X0103148Y0128722D01*
X0094962Y0128390D02*
X0094962Y0127800D01*
X0094372Y0127210D01*
X0093192Y0127210D01*
X0092602Y0127800D01*
X0091337Y0127800D02*
X0091337Y0130750D01*
X0092602Y0130160D02*
X0093192Y0130750D01*
X0094372Y0130750D01*
X0094962Y0130160D01*
X0094962Y0129570D01*
X0094372Y0128980D01*
X0094962Y0128390D01*
X0094372Y0128980D02*
X0093782Y0128980D01*
X0091337Y0127800D02*
X0090747Y0127210D01*
X0089567Y0127210D01*
X0088977Y0127800D01*
X0088977Y0130750D01*
X0077849Y0128461D02*
X0075489Y0128461D01*
X0076669Y0128461D02*
X0076669Y0132001D01*
X0075489Y0130821D01*
X0074224Y0130231D02*
X0073634Y0129641D01*
X0071864Y0129641D01*
X0071864Y0128461D02*
X0071864Y0132001D01*
X0073634Y0132001D01*
X0074224Y0131411D01*
X0074224Y0130231D01*
X0073044Y0129641D02*
X0074224Y0128461D01*
X0075502Y0122898D02*
X0079042Y0120538D01*
X0079042Y0122898D02*
X0075502Y0120538D01*
X0075502Y0119273D02*
X0075502Y0116913D01*
X0075502Y0118093D02*
X0079042Y0118093D01*
X0101378Y0123327D02*
X0104918Y0123327D01*
X0131960Y0129711D02*
X0131960Y0132661D01*
X0134320Y0132661D02*
X0134320Y0129711D01*
X0133730Y0129121D01*
X0132550Y0129121D01*
X0131960Y0129711D01*
X0135585Y0129711D02*
X0136175Y0129121D01*
X0137355Y0129121D01*
X0137945Y0129711D01*
X0137945Y0130301D01*
X0137355Y0130891D01*
X0135585Y0130891D01*
X0135585Y0129711D01*
X0135585Y0130891D02*
X0136765Y0132071D01*
X0137945Y0132661D01*
X0153524Y0133079D02*
X0153524Y0130129D01*
X0154114Y0129539D01*
X0155294Y0129539D01*
X0155884Y0130129D01*
X0155884Y0133079D01*
X0157149Y0131899D02*
X0158329Y0133079D01*
X0158329Y0129539D01*
X0157149Y0129539D02*
X0159509Y0129539D01*
X0156999Y0138513D02*
X0154639Y0138513D01*
X0154049Y0139103D01*
X0154049Y0140283D01*
X0154639Y0140873D01*
X0154049Y0142139D02*
X0154049Y0144499D01*
X0154639Y0144499D01*
X0156999Y0142139D01*
X0157589Y0142139D01*
X0156999Y0140873D02*
X0157589Y0140283D01*
X0157589Y0139103D01*
X0156999Y0138513D01*
X0169113Y0138753D02*
X0169113Y0140523D01*
X0169703Y0141113D01*
X0170883Y0141113D01*
X0171473Y0140523D01*
X0171473Y0138753D01*
X0171473Y0139933D02*
X0172653Y0141113D01*
X0172063Y0142378D02*
X0170883Y0142378D01*
X0170883Y0144148D01*
X0171473Y0144738D01*
X0172063Y0144738D01*
X0172653Y0144148D01*
X0172653Y0142968D01*
X0172063Y0142378D01*
X0170883Y0142378D02*
X0169703Y0143558D01*
X0169113Y0144738D01*
X0184581Y0143658D02*
X0184581Y0142478D01*
X0185171Y0141888D01*
X0185761Y0141888D01*
X0186351Y0142478D01*
X0186351Y0143658D01*
X0186941Y0144248D01*
X0187531Y0144248D01*
X0188121Y0143658D01*
X0188121Y0142478D01*
X0187531Y0141888D01*
X0186941Y0141888D01*
X0186351Y0142478D01*
X0186351Y0143658D02*
X0185761Y0144248D01*
X0185171Y0144248D01*
X0184581Y0143658D01*
X0185171Y0140623D02*
X0184581Y0140033D01*
X0184581Y0138853D01*
X0185171Y0138263D01*
X0187531Y0138263D01*
X0188121Y0138853D01*
X0188121Y0140033D01*
X0187531Y0140623D01*
X0198081Y0140546D02*
X0199262Y0139366D01*
X0198671Y0138101D02*
X0198081Y0137511D01*
X0198081Y0136331D01*
X0198671Y0135741D01*
X0201032Y0135741D01*
X0201622Y0136331D01*
X0201622Y0137511D01*
X0201032Y0138101D01*
X0201622Y0139366D02*
X0201622Y0141726D01*
X0201622Y0140546D02*
X0198081Y0140546D01*
X0198671Y0142991D02*
X0198081Y0143581D01*
X0198081Y0144761D01*
X0198671Y0145351D01*
X0199262Y0145351D01*
X0201622Y0142991D01*
X0201622Y0145351D01*
X0211552Y0143330D02*
X0211552Y0140970D01*
X0212142Y0139705D02*
X0213322Y0139705D01*
X0213912Y0139115D01*
X0213912Y0137345D01*
X0213912Y0138525D02*
X0215092Y0139705D01*
X0215092Y0140970D02*
X0214502Y0140970D01*
X0212142Y0143330D01*
X0211552Y0143330D01*
X0212142Y0139705D02*
X0211552Y0139115D01*
X0211552Y0137345D01*
X0215092Y0137345D01*
X0222922Y0137128D02*
X0222922Y0138308D01*
X0223512Y0138898D01*
X0223512Y0140163D02*
X0225872Y0140163D01*
X0226462Y0140753D01*
X0226462Y0141933D01*
X0225872Y0142523D01*
X0226462Y0143788D02*
X0222922Y0143788D01*
X0223512Y0142523D02*
X0222922Y0141933D01*
X0222922Y0140753D01*
X0223512Y0140163D01*
X0225282Y0138898D02*
X0225872Y0138898D01*
X0226462Y0138308D01*
X0226462Y0137128D01*
X0225872Y0136538D01*
X0224692Y0137128D02*
X0224692Y0138308D01*
X0225282Y0138898D01*
X0224692Y0137128D02*
X0224102Y0136538D01*
X0223512Y0136538D01*
X0222922Y0137128D01*
X0235340Y0138217D02*
X0235340Y0139987D01*
X0235930Y0140577D01*
X0237110Y0140577D01*
X0237700Y0139987D01*
X0237700Y0138217D01*
X0237700Y0139397D02*
X0238880Y0140577D01*
X0238290Y0141842D02*
X0238880Y0142432D01*
X0238880Y0143612D01*
X0238290Y0144202D01*
X0235930Y0144202D01*
X0235340Y0143612D01*
X0235340Y0142432D01*
X0235930Y0141842D01*
X0236520Y0141842D01*
X0237110Y0142432D01*
X0237110Y0144202D01*
X0226462Y0146148D02*
X0224692Y0144378D01*
X0225282Y0143788D02*
X0222922Y0146148D01*
X0235340Y0138217D02*
X0238880Y0138217D01*
X0274333Y0138354D02*
X0274923Y0137764D01*
X0276103Y0137764D01*
X0276693Y0138354D01*
X0276693Y0141304D01*
X0277958Y0141304D02*
X0277958Y0139534D01*
X0279138Y0140124D01*
X0279728Y0140124D01*
X0280318Y0139534D01*
X0280318Y0138354D01*
X0279728Y0137764D01*
X0278548Y0137764D01*
X0277958Y0138354D01*
X0274333Y0138354D02*
X0274333Y0141304D01*
X0277958Y0141304D02*
X0280318Y0141304D01*
X0279215Y0128546D02*
X0277681Y0128546D01*
X0278448Y0128546D02*
X0278448Y0123942D01*
X0277681Y0123942D02*
X0279215Y0123942D01*
X0280750Y0124709D02*
X0281517Y0123942D01*
X0283052Y0123942D01*
X0283819Y0124709D01*
X0280750Y0124709D02*
X0280750Y0127778D01*
X0281517Y0128546D01*
X0283052Y0128546D01*
X0283819Y0127778D01*
X0335259Y0130113D02*
X0335849Y0129523D01*
X0338209Y0129523D01*
X0338799Y0130113D01*
X0338799Y0131293D01*
X0338209Y0131883D01*
X0338799Y0133148D02*
X0338799Y0135508D01*
X0338799Y0134328D02*
X0335259Y0134328D01*
X0336439Y0133148D01*
X0335849Y0131883D02*
X0335259Y0131293D01*
X0335259Y0130113D01*
X0336439Y0136773D02*
X0335259Y0137953D01*
X0338799Y0137953D01*
X0338799Y0136773D02*
X0338799Y0139133D01*
X0338662Y0104534D02*
X0338662Y0102174D01*
X0338662Y0103354D02*
X0335122Y0103354D01*
X0336302Y0102174D01*
X0335122Y0100909D02*
X0335122Y0098549D01*
X0335122Y0099729D02*
X0338662Y0099729D01*
X0338662Y0097284D02*
X0335122Y0097284D01*
X0335122Y0094924D02*
X0338662Y0097284D01*
X0338662Y0094924D02*
X0335122Y0094924D01*
X0336302Y0093658D02*
X0338662Y0093658D01*
X0336892Y0093658D02*
X0336892Y0091298D01*
X0336302Y0091298D02*
X0335122Y0092478D01*
X0336302Y0093658D01*
X0336302Y0091298D02*
X0338662Y0091298D01*
X0247672Y0091739D02*
X0246492Y0092919D01*
X0247082Y0092919D02*
X0245312Y0092919D01*
X0245312Y0091739D02*
X0245312Y0095279D01*
X0247082Y0095279D01*
X0247672Y0094689D01*
X0247672Y0093509D01*
X0247082Y0092919D01*
X0244047Y0091739D02*
X0241687Y0091739D01*
X0241687Y0095279D01*
X0244047Y0095279D01*
X0242867Y0093509D02*
X0241687Y0093509D01*
X0240422Y0092919D02*
X0240422Y0092329D01*
X0239832Y0091739D01*
X0238652Y0091739D01*
X0238062Y0092329D01*
X0236796Y0092329D02*
X0236796Y0095279D01*
X0238062Y0094689D02*
X0238062Y0094099D01*
X0238652Y0093509D01*
X0239832Y0093509D01*
X0240422Y0092919D01*
X0240422Y0094689D02*
X0239832Y0095279D01*
X0238652Y0095279D01*
X0238062Y0094689D01*
X0234436Y0095279D02*
X0234436Y0092329D01*
X0235026Y0091739D01*
X0236206Y0091739D01*
X0236796Y0092329D01*
X0231881Y0083332D02*
X0232471Y0082742D01*
X0232471Y0081562D01*
X0231881Y0080972D01*
X0229521Y0083332D01*
X0231881Y0083332D01*
X0229521Y0083332D02*
X0228931Y0082742D01*
X0228931Y0081562D01*
X0229521Y0080972D01*
X0231881Y0080972D01*
X0232471Y0079707D02*
X0232471Y0077347D01*
X0232471Y0078527D02*
X0228931Y0078527D01*
X0230111Y0077347D01*
X0229521Y0076081D02*
X0230701Y0076081D01*
X0231291Y0075491D01*
X0231291Y0073721D01*
X0232471Y0073721D02*
X0228931Y0073721D01*
X0228931Y0075491D01*
X0229521Y0076081D01*
X0231291Y0074901D02*
X0232471Y0076081D01*
X0210808Y0085991D02*
X0208448Y0085991D01*
X0209628Y0085991D02*
X0209628Y0089531D01*
X0208448Y0088351D01*
X0207183Y0088941D02*
X0207183Y0089531D01*
X0207183Y0088941D02*
X0206003Y0087761D01*
X0206003Y0085991D01*
X0206003Y0087761D02*
X0204823Y0088941D01*
X0204823Y0089531D01*
X0190188Y0085720D02*
X0190188Y0084540D01*
X0189598Y0083950D01*
X0189598Y0082684D02*
X0190188Y0082094D01*
X0190188Y0080914D01*
X0189598Y0080324D01*
X0187238Y0080324D01*
X0186648Y0080914D01*
X0186648Y0082094D01*
X0187238Y0082684D01*
X0187238Y0083950D02*
X0187828Y0083950D01*
X0188418Y0084540D01*
X0188418Y0086310D01*
X0187238Y0086310D02*
X0186648Y0085720D01*
X0186648Y0084540D01*
X0187238Y0083950D01*
X0187238Y0086310D02*
X0189598Y0086310D01*
X0190188Y0085720D01*
X0176927Y0099828D02*
X0173977Y0099828D01*
X0176927Y0099828D02*
X0177517Y0100418D01*
X0177517Y0101598D01*
X0176927Y0102188D01*
X0173977Y0102188D01*
X0175747Y0103453D02*
X0175747Y0105813D01*
X0177517Y0105223D02*
X0173977Y0105223D01*
X0175747Y0103453D01*
X0168226Y0101970D02*
X0165866Y0099610D01*
X0166456Y0099020D01*
X0167636Y0099020D01*
X0168226Y0099610D01*
X0168226Y0101970D01*
X0167636Y0102560D01*
X0166456Y0102560D01*
X0165866Y0101970D01*
X0165866Y0099610D01*
X0164601Y0099020D02*
X0162241Y0099020D01*
X0163421Y0099020D02*
X0163421Y0102560D01*
X0162241Y0101380D01*
X0160976Y0101970D02*
X0160386Y0102560D01*
X0159206Y0102560D01*
X0158616Y0101970D01*
X0158616Y0099610D01*
X0159206Y0099020D01*
X0160386Y0099020D01*
X0160976Y0099610D01*
X0126829Y0097049D02*
X0123289Y0097049D01*
X0123289Y0099409D01*
X0125059Y0098229D02*
X0125059Y0097049D01*
X0057603Y0127252D02*
X0057013Y0126662D01*
X0055833Y0126662D01*
X0055243Y0127252D01*
X0055243Y0128432D02*
X0056423Y0129022D01*
X0057013Y0129022D01*
X0057603Y0128432D01*
X0057603Y0127252D01*
X0055243Y0128432D02*
X0055243Y0130202D01*
X0057603Y0130202D01*
X0053978Y0129612D02*
X0053388Y0130202D01*
X0052208Y0130202D01*
X0051618Y0129612D01*
X0051618Y0127252D01*
X0052208Y0126662D01*
X0053388Y0126662D01*
X0053978Y0127252D01*
X0041251Y0137870D02*
X0040661Y0137280D01*
X0038301Y0137280D01*
X0037711Y0137870D01*
X0037711Y0139050D01*
X0038301Y0139640D01*
X0038891Y0140905D02*
X0037711Y0142085D01*
X0041251Y0142085D01*
X0041251Y0140905D02*
X0041251Y0143265D01*
X0040661Y0139640D02*
X0041251Y0139050D01*
X0041251Y0137870D01*
X0052284Y0138631D02*
X0052874Y0138041D01*
X0055234Y0138041D01*
X0055824Y0138631D01*
X0055824Y0139811D01*
X0055234Y0140401D01*
X0054054Y0141666D02*
X0054054Y0144026D01*
X0055824Y0143436D02*
X0052284Y0143436D01*
X0054054Y0141666D01*
X0052874Y0140401D02*
X0052284Y0139811D01*
X0052284Y0138631D01*
X0068885Y0148210D02*
X0069475Y0147620D01*
X0070655Y0147620D01*
X0071245Y0148210D01*
X0072510Y0147620D02*
X0072510Y0151160D01*
X0071245Y0150570D02*
X0070655Y0151160D01*
X0069475Y0151160D01*
X0068885Y0150570D01*
X0068885Y0148210D01*
X0072510Y0149390D02*
X0074870Y0149390D01*
X0076136Y0148800D02*
X0077906Y0148800D01*
X0078496Y0149390D01*
X0078496Y0150570D01*
X0077906Y0151160D01*
X0076136Y0151160D01*
X0076136Y0147620D01*
X0074870Y0147620D02*
X0074870Y0151160D01*
X0077316Y0148800D02*
X0078496Y0147620D01*
X0079761Y0148210D02*
X0080351Y0147620D01*
X0081531Y0147620D01*
X0082121Y0148210D01*
X0082121Y0149390D01*
X0080941Y0149390D01*
X0079761Y0150570D02*
X0079761Y0148210D01*
X0079761Y0150570D02*
X0080351Y0151160D01*
X0081531Y0151160D01*
X0082121Y0150570D01*
X0101410Y0143388D02*
X0102000Y0143978D01*
X0102590Y0143978D01*
X0104950Y0141618D01*
X0104950Y0143978D01*
X0101410Y0143388D02*
X0101410Y0142208D01*
X0102000Y0141618D01*
X0102000Y0140353D02*
X0101410Y0139763D01*
X0101410Y0138583D01*
X0102000Y0137993D01*
X0104360Y0137993D01*
X0104950Y0138583D01*
X0104950Y0139763D01*
X0104360Y0140353D01*
X0114405Y0140263D02*
X0114405Y0138493D01*
X0117945Y0138493D01*
X0116765Y0138493D02*
X0116765Y0140263D01*
X0116175Y0140853D01*
X0114995Y0140853D01*
X0114405Y0140263D01*
X0116765Y0139673D02*
X0117945Y0140853D01*
X0117945Y0142118D02*
X0115585Y0144478D01*
X0114995Y0144478D01*
X0114405Y0143888D01*
X0114405Y0142708D01*
X0114995Y0142118D01*
X0117945Y0142118D02*
X0117945Y0144478D01*
X0126728Y0143791D02*
X0126728Y0142611D01*
X0127318Y0142021D01*
X0127318Y0140756D02*
X0128498Y0140756D01*
X0129088Y0140166D01*
X0129088Y0138396D01*
X0130268Y0138396D02*
X0126728Y0138396D01*
X0126728Y0140166D01*
X0127318Y0140756D01*
X0129088Y0139576D02*
X0130268Y0140756D01*
X0129678Y0142021D02*
X0130268Y0142611D01*
X0130268Y0143791D01*
X0129678Y0144381D01*
X0129088Y0144381D01*
X0128498Y0143791D01*
X0128498Y0143201D01*
X0128498Y0143791D02*
X0127908Y0144381D01*
X0127318Y0144381D01*
X0126728Y0143791D01*
X0139401Y0144413D02*
X0139991Y0143233D01*
X0141171Y0142053D01*
X0141171Y0143823D01*
X0141761Y0144413D01*
X0142351Y0144413D01*
X0142941Y0143823D01*
X0142941Y0142643D01*
X0142351Y0142053D01*
X0141171Y0142053D01*
X0139991Y0140788D02*
X0139401Y0140198D01*
X0139401Y0139018D01*
X0139991Y0138428D01*
X0142351Y0138428D01*
X0142941Y0139018D01*
X0142941Y0140198D01*
X0142351Y0140788D01*
X0169113Y0138753D02*
X0172653Y0138753D01*
X0227722Y0114405D02*
X0227722Y0112045D01*
X0227722Y0113225D02*
X0224182Y0113225D01*
X0225362Y0112045D01*
X0224772Y0110780D02*
X0224182Y0110190D01*
X0224182Y0109010D01*
X0224772Y0108420D01*
X0225362Y0108420D01*
X0225952Y0109010D01*
X0225952Y0110190D01*
X0226542Y0110780D01*
X0227132Y0110780D01*
X0227722Y0110190D01*
X0227722Y0109010D01*
X0227132Y0108420D01*
X0024318Y0128933D02*
X0021958Y0128933D01*
X0023138Y0128933D02*
X0023138Y0132473D01*
X0021958Y0131293D01*
X0020693Y0132473D02*
X0019513Y0132473D01*
X0020103Y0132473D02*
X0020103Y0129523D01*
X0019513Y0128933D01*
X0018923Y0128933D01*
X0018333Y0129523D01*
D12*
X0051575Y0125750D02*
X0057481Y0125750D01*
X0051575Y0125750D02*
X0051575Y0116301D01*
X0057481Y0116301D01*
X0065355Y0116301D02*
X0069685Y0116301D01*
X0071260Y0117876D01*
X0071260Y0124175D01*
X0069685Y0125750D01*
X0065355Y0125750D01*
X0090833Y0136699D02*
X0092947Y0136699D01*
X0096890Y0137799D02*
X0096890Y0141180D01*
X0086890Y0141180D02*
X0086890Y0137799D01*
X0155081Y0127009D02*
X0158462Y0127009D01*
X0159562Y0123066D02*
X0159562Y0120953D01*
X0158462Y0117009D02*
X0155081Y0117009D01*
X0144646Y0110041D02*
X0132520Y0110041D01*
X0128583Y0104923D02*
X0128583Y0095159D01*
X0132520Y0090041D02*
X0144646Y0090041D01*
X0148583Y0095041D02*
X0148583Y0104923D01*
X0133583Y0100041D02*
X0133585Y0100182D01*
X0133591Y0100323D01*
X0133601Y0100463D01*
X0133615Y0100603D01*
X0133633Y0100743D01*
X0133654Y0100882D01*
X0133680Y0101021D01*
X0133709Y0101159D01*
X0133743Y0101295D01*
X0133780Y0101431D01*
X0133821Y0101566D01*
X0133866Y0101700D01*
X0133915Y0101832D01*
X0133967Y0101963D01*
X0134023Y0102092D01*
X0134083Y0102219D01*
X0134146Y0102345D01*
X0134212Y0102469D01*
X0134283Y0102592D01*
X0134356Y0102712D01*
X0134433Y0102830D01*
X0134513Y0102946D01*
X0134597Y0103059D01*
X0134683Y0103170D01*
X0134773Y0103279D01*
X0134866Y0103385D01*
X0134961Y0103488D01*
X0135060Y0103589D01*
X0135161Y0103687D01*
X0135265Y0103782D01*
X0135372Y0103874D01*
X0135481Y0103963D01*
X0135593Y0104048D01*
X0135707Y0104131D01*
X0135823Y0104211D01*
X0135942Y0104287D01*
X0136063Y0104359D01*
X0136185Y0104429D01*
X0136310Y0104494D01*
X0136436Y0104557D01*
X0136564Y0104615D01*
X0136694Y0104670D01*
X0136825Y0104722D01*
X0136958Y0104769D01*
X0137092Y0104813D01*
X0137227Y0104854D01*
X0137363Y0104890D01*
X0137500Y0104922D01*
X0137638Y0104951D01*
X0137776Y0104976D01*
X0137916Y0104996D01*
X0138056Y0105013D01*
X0138196Y0105026D01*
X0138337Y0105035D01*
X0138477Y0105040D01*
X0138618Y0105041D01*
X0138759Y0105038D01*
X0138900Y0105031D01*
X0139040Y0105020D01*
X0139180Y0105005D01*
X0139320Y0104986D01*
X0139459Y0104964D01*
X0139597Y0104937D01*
X0139735Y0104907D01*
X0139871Y0104872D01*
X0140007Y0104834D01*
X0140141Y0104792D01*
X0140275Y0104746D01*
X0140407Y0104697D01*
X0140537Y0104643D01*
X0140666Y0104586D01*
X0140793Y0104526D01*
X0140919Y0104462D01*
X0141042Y0104394D01*
X0141164Y0104323D01*
X0141284Y0104249D01*
X0141401Y0104171D01*
X0141516Y0104090D01*
X0141629Y0104006D01*
X0141740Y0103919D01*
X0141848Y0103828D01*
X0141953Y0103735D01*
X0142056Y0103638D01*
X0142156Y0103539D01*
X0142253Y0103437D01*
X0142347Y0103332D01*
X0142438Y0103225D01*
X0142526Y0103115D01*
X0142611Y0103003D01*
X0142693Y0102888D01*
X0142772Y0102771D01*
X0142847Y0102652D01*
X0142919Y0102531D01*
X0142987Y0102408D01*
X0143052Y0102283D01*
X0143114Y0102156D01*
X0143171Y0102027D01*
X0143226Y0101897D01*
X0143276Y0101766D01*
X0143323Y0101633D01*
X0143366Y0101499D01*
X0143405Y0101363D01*
X0143440Y0101227D01*
X0143472Y0101090D01*
X0143499Y0100952D01*
X0143523Y0100813D01*
X0143543Y0100673D01*
X0143559Y0100533D01*
X0143571Y0100393D01*
X0143579Y0100252D01*
X0143583Y0100111D01*
X0143583Y0099971D01*
X0143579Y0099830D01*
X0143571Y0099689D01*
X0143559Y0099549D01*
X0143543Y0099409D01*
X0143523Y0099269D01*
X0143499Y0099130D01*
X0143472Y0098992D01*
X0143440Y0098855D01*
X0143405Y0098719D01*
X0143366Y0098583D01*
X0143323Y0098449D01*
X0143276Y0098316D01*
X0143226Y0098185D01*
X0143171Y0098055D01*
X0143114Y0097926D01*
X0143052Y0097799D01*
X0142987Y0097674D01*
X0142919Y0097551D01*
X0142847Y0097430D01*
X0142772Y0097311D01*
X0142693Y0097194D01*
X0142611Y0097079D01*
X0142526Y0096967D01*
X0142438Y0096857D01*
X0142347Y0096750D01*
X0142253Y0096645D01*
X0142156Y0096543D01*
X0142056Y0096444D01*
X0141953Y0096347D01*
X0141848Y0096254D01*
X0141740Y0096163D01*
X0141629Y0096076D01*
X0141516Y0095992D01*
X0141401Y0095911D01*
X0141284Y0095833D01*
X0141164Y0095759D01*
X0141042Y0095688D01*
X0140919Y0095620D01*
X0140793Y0095556D01*
X0140666Y0095496D01*
X0140537Y0095439D01*
X0140407Y0095385D01*
X0140275Y0095336D01*
X0140141Y0095290D01*
X0140007Y0095248D01*
X0139871Y0095210D01*
X0139735Y0095175D01*
X0139597Y0095145D01*
X0139459Y0095118D01*
X0139320Y0095096D01*
X0139180Y0095077D01*
X0139040Y0095062D01*
X0138900Y0095051D01*
X0138759Y0095044D01*
X0138618Y0095041D01*
X0138477Y0095042D01*
X0138337Y0095047D01*
X0138196Y0095056D01*
X0138056Y0095069D01*
X0137916Y0095086D01*
X0137776Y0095106D01*
X0137638Y0095131D01*
X0137500Y0095160D01*
X0137363Y0095192D01*
X0137227Y0095228D01*
X0137092Y0095269D01*
X0136958Y0095313D01*
X0136825Y0095360D01*
X0136694Y0095412D01*
X0136564Y0095467D01*
X0136436Y0095525D01*
X0136310Y0095588D01*
X0136185Y0095653D01*
X0136063Y0095723D01*
X0135942Y0095795D01*
X0135823Y0095871D01*
X0135707Y0095951D01*
X0135593Y0096034D01*
X0135481Y0096119D01*
X0135372Y0096208D01*
X0135265Y0096300D01*
X0135161Y0096395D01*
X0135060Y0096493D01*
X0134961Y0096594D01*
X0134866Y0096697D01*
X0134773Y0096803D01*
X0134683Y0096912D01*
X0134597Y0097023D01*
X0134513Y0097136D01*
X0134433Y0097252D01*
X0134356Y0097370D01*
X0134283Y0097490D01*
X0134212Y0097613D01*
X0134146Y0097737D01*
X0134083Y0097863D01*
X0134023Y0097990D01*
X0133967Y0098119D01*
X0133915Y0098250D01*
X0133866Y0098382D01*
X0133821Y0098516D01*
X0133780Y0098651D01*
X0133743Y0098787D01*
X0133709Y0098923D01*
X0133680Y0099061D01*
X0133654Y0099200D01*
X0133633Y0099339D01*
X0133615Y0099479D01*
X0133601Y0099619D01*
X0133591Y0099759D01*
X0133585Y0099900D01*
X0133583Y0100041D01*
X0103231Y0105576D02*
X0103231Y0090176D01*
X0098981Y0090176D01*
X0073381Y0090176D02*
X0069131Y0090176D01*
X0069131Y0105576D01*
X0073381Y0105576D01*
X0098981Y0105576D02*
X0103231Y0105576D01*
X0125394Y0081687D02*
X0127894Y0084187D01*
X0132894Y0084187D01*
X0135394Y0081687D01*
X0135394Y0076687D01*
X0132894Y0074187D01*
X0127894Y0074187D01*
X0125394Y0076687D01*
X0125394Y0081687D01*
X0135394Y0081687D02*
X0137894Y0084187D01*
X0142894Y0084187D01*
X0145394Y0081687D01*
X0145394Y0076687D01*
X0142894Y0074187D01*
X0137894Y0074187D01*
X0135394Y0076687D01*
X0145394Y0076687D02*
X0147894Y0074187D01*
X0152894Y0074187D01*
X0155394Y0076687D01*
X0155394Y0081687D01*
X0157894Y0084187D01*
X0162894Y0084187D01*
X0165394Y0081687D01*
X0165394Y0076687D01*
X0162894Y0074187D01*
X0157894Y0074187D01*
X0155394Y0076687D01*
X0165394Y0076687D02*
X0167894Y0074187D01*
X0172894Y0074187D01*
X0175394Y0076687D01*
X0175394Y0081687D01*
X0177894Y0084187D01*
X0182894Y0084187D01*
X0185394Y0081687D01*
X0185394Y0076687D01*
X0182894Y0074187D01*
X0177894Y0074187D01*
X0175394Y0076687D01*
X0175394Y0081687D02*
X0172894Y0084187D01*
X0167894Y0084187D01*
X0165394Y0081687D01*
X0155394Y0081687D02*
X0152894Y0084187D01*
X0147894Y0084187D01*
X0145394Y0081687D01*
X0182617Y0097728D02*
X0182619Y0097777D01*
X0182625Y0097825D01*
X0182635Y0097873D01*
X0182649Y0097920D01*
X0182666Y0097966D01*
X0182687Y0098010D01*
X0182712Y0098052D01*
X0182740Y0098092D01*
X0182772Y0098130D01*
X0182806Y0098165D01*
X0182843Y0098197D01*
X0182882Y0098226D01*
X0182924Y0098252D01*
X0182968Y0098274D01*
X0183013Y0098292D01*
X0183060Y0098307D01*
X0183107Y0098318D01*
X0183156Y0098325D01*
X0183205Y0098328D01*
X0183254Y0098327D01*
X0183302Y0098322D01*
X0183351Y0098313D01*
X0183398Y0098300D01*
X0183444Y0098283D01*
X0183488Y0098263D01*
X0183531Y0098239D01*
X0183572Y0098212D01*
X0183610Y0098181D01*
X0183646Y0098148D01*
X0183678Y0098112D01*
X0183708Y0098073D01*
X0183735Y0098032D01*
X0183758Y0097988D01*
X0183777Y0097943D01*
X0183793Y0097897D01*
X0183805Y0097850D01*
X0183813Y0097801D01*
X0183817Y0097752D01*
X0183817Y0097704D01*
X0183813Y0097655D01*
X0183805Y0097606D01*
X0183793Y0097559D01*
X0183777Y0097513D01*
X0183758Y0097468D01*
X0183735Y0097424D01*
X0183708Y0097383D01*
X0183678Y0097344D01*
X0183646Y0097308D01*
X0183610Y0097275D01*
X0183572Y0097244D01*
X0183531Y0097217D01*
X0183488Y0097193D01*
X0183444Y0097173D01*
X0183398Y0097156D01*
X0183351Y0097143D01*
X0183302Y0097134D01*
X0183254Y0097129D01*
X0183205Y0097128D01*
X0183156Y0097131D01*
X0183107Y0097138D01*
X0183060Y0097149D01*
X0183013Y0097164D01*
X0182968Y0097182D01*
X0182924Y0097204D01*
X0182882Y0097230D01*
X0182843Y0097259D01*
X0182806Y0097291D01*
X0182772Y0097326D01*
X0182740Y0097364D01*
X0182712Y0097404D01*
X0182687Y0097446D01*
X0182666Y0097490D01*
X0182649Y0097536D01*
X0182635Y0097583D01*
X0182625Y0097631D01*
X0182619Y0097679D01*
X0182617Y0097728D01*
X0183918Y0099726D02*
X0185315Y0098328D01*
X0211516Y0098328D01*
X0211516Y0125927D01*
X0183918Y0125927D01*
X0183918Y0099726D01*
X0199926Y0084490D02*
X0199926Y0079372D01*
X0214690Y0079372D02*
X0214690Y0084490D01*
X0234803Y0101970D02*
X0244567Y0101970D01*
X0249685Y0105907D02*
X0249685Y0118033D01*
X0244685Y0121970D02*
X0234803Y0121970D01*
X0229685Y0118033D02*
X0229685Y0105907D01*
X0234685Y0111970D02*
X0234687Y0112111D01*
X0234693Y0112252D01*
X0234703Y0112392D01*
X0234717Y0112532D01*
X0234735Y0112672D01*
X0234756Y0112811D01*
X0234782Y0112950D01*
X0234811Y0113088D01*
X0234845Y0113224D01*
X0234882Y0113360D01*
X0234923Y0113495D01*
X0234968Y0113629D01*
X0235017Y0113761D01*
X0235069Y0113892D01*
X0235125Y0114021D01*
X0235185Y0114148D01*
X0235248Y0114274D01*
X0235314Y0114398D01*
X0235385Y0114521D01*
X0235458Y0114641D01*
X0235535Y0114759D01*
X0235615Y0114875D01*
X0235699Y0114988D01*
X0235785Y0115099D01*
X0235875Y0115208D01*
X0235968Y0115314D01*
X0236063Y0115417D01*
X0236162Y0115518D01*
X0236263Y0115616D01*
X0236367Y0115711D01*
X0236474Y0115803D01*
X0236583Y0115892D01*
X0236695Y0115977D01*
X0236809Y0116060D01*
X0236925Y0116140D01*
X0237044Y0116216D01*
X0237165Y0116288D01*
X0237287Y0116358D01*
X0237412Y0116423D01*
X0237538Y0116486D01*
X0237666Y0116544D01*
X0237796Y0116599D01*
X0237927Y0116651D01*
X0238060Y0116698D01*
X0238194Y0116742D01*
X0238329Y0116783D01*
X0238465Y0116819D01*
X0238602Y0116851D01*
X0238740Y0116880D01*
X0238878Y0116905D01*
X0239018Y0116925D01*
X0239158Y0116942D01*
X0239298Y0116955D01*
X0239439Y0116964D01*
X0239579Y0116969D01*
X0239720Y0116970D01*
X0239861Y0116967D01*
X0240002Y0116960D01*
X0240142Y0116949D01*
X0240282Y0116934D01*
X0240422Y0116915D01*
X0240561Y0116893D01*
X0240699Y0116866D01*
X0240837Y0116836D01*
X0240973Y0116801D01*
X0241109Y0116763D01*
X0241243Y0116721D01*
X0241377Y0116675D01*
X0241509Y0116626D01*
X0241639Y0116572D01*
X0241768Y0116515D01*
X0241895Y0116455D01*
X0242021Y0116391D01*
X0242144Y0116323D01*
X0242266Y0116252D01*
X0242386Y0116178D01*
X0242503Y0116100D01*
X0242618Y0116019D01*
X0242731Y0115935D01*
X0242842Y0115848D01*
X0242950Y0115757D01*
X0243055Y0115664D01*
X0243158Y0115567D01*
X0243258Y0115468D01*
X0243355Y0115366D01*
X0243449Y0115261D01*
X0243540Y0115154D01*
X0243628Y0115044D01*
X0243713Y0114932D01*
X0243795Y0114817D01*
X0243874Y0114700D01*
X0243949Y0114581D01*
X0244021Y0114460D01*
X0244089Y0114337D01*
X0244154Y0114212D01*
X0244216Y0114085D01*
X0244273Y0113956D01*
X0244328Y0113826D01*
X0244378Y0113695D01*
X0244425Y0113562D01*
X0244468Y0113428D01*
X0244507Y0113292D01*
X0244542Y0113156D01*
X0244574Y0113019D01*
X0244601Y0112881D01*
X0244625Y0112742D01*
X0244645Y0112602D01*
X0244661Y0112462D01*
X0244673Y0112322D01*
X0244681Y0112181D01*
X0244685Y0112040D01*
X0244685Y0111900D01*
X0244681Y0111759D01*
X0244673Y0111618D01*
X0244661Y0111478D01*
X0244645Y0111338D01*
X0244625Y0111198D01*
X0244601Y0111059D01*
X0244574Y0110921D01*
X0244542Y0110784D01*
X0244507Y0110648D01*
X0244468Y0110512D01*
X0244425Y0110378D01*
X0244378Y0110245D01*
X0244328Y0110114D01*
X0244273Y0109984D01*
X0244216Y0109855D01*
X0244154Y0109728D01*
X0244089Y0109603D01*
X0244021Y0109480D01*
X0243949Y0109359D01*
X0243874Y0109240D01*
X0243795Y0109123D01*
X0243713Y0109008D01*
X0243628Y0108896D01*
X0243540Y0108786D01*
X0243449Y0108679D01*
X0243355Y0108574D01*
X0243258Y0108472D01*
X0243158Y0108373D01*
X0243055Y0108276D01*
X0242950Y0108183D01*
X0242842Y0108092D01*
X0242731Y0108005D01*
X0242618Y0107921D01*
X0242503Y0107840D01*
X0242386Y0107762D01*
X0242266Y0107688D01*
X0242144Y0107617D01*
X0242021Y0107549D01*
X0241895Y0107485D01*
X0241768Y0107425D01*
X0241639Y0107368D01*
X0241509Y0107314D01*
X0241377Y0107265D01*
X0241243Y0107219D01*
X0241109Y0107177D01*
X0240973Y0107139D01*
X0240837Y0107104D01*
X0240699Y0107074D01*
X0240561Y0107047D01*
X0240422Y0107025D01*
X0240282Y0107006D01*
X0240142Y0106991D01*
X0240002Y0106980D01*
X0239861Y0106973D01*
X0239720Y0106970D01*
X0239579Y0106971D01*
X0239439Y0106976D01*
X0239298Y0106985D01*
X0239158Y0106998D01*
X0239018Y0107015D01*
X0238878Y0107035D01*
X0238740Y0107060D01*
X0238602Y0107089D01*
X0238465Y0107121D01*
X0238329Y0107157D01*
X0238194Y0107198D01*
X0238060Y0107242D01*
X0237927Y0107289D01*
X0237796Y0107341D01*
X0237666Y0107396D01*
X0237538Y0107454D01*
X0237412Y0107517D01*
X0237287Y0107582D01*
X0237165Y0107652D01*
X0237044Y0107724D01*
X0236925Y0107800D01*
X0236809Y0107880D01*
X0236695Y0107963D01*
X0236583Y0108048D01*
X0236474Y0108137D01*
X0236367Y0108229D01*
X0236263Y0108324D01*
X0236162Y0108422D01*
X0236063Y0108523D01*
X0235968Y0108626D01*
X0235875Y0108732D01*
X0235785Y0108841D01*
X0235699Y0108952D01*
X0235615Y0109065D01*
X0235535Y0109181D01*
X0235458Y0109299D01*
X0235385Y0109419D01*
X0235314Y0109542D01*
X0235248Y0109666D01*
X0235185Y0109792D01*
X0235125Y0109919D01*
X0235069Y0110048D01*
X0235017Y0110179D01*
X0234968Y0110311D01*
X0234923Y0110445D01*
X0234882Y0110580D01*
X0234845Y0110716D01*
X0234811Y0110852D01*
X0234782Y0110990D01*
X0234756Y0111129D01*
X0234735Y0111268D01*
X0234717Y0111408D01*
X0234703Y0111548D01*
X0234693Y0111688D01*
X0234687Y0111829D01*
X0234685Y0111970D01*
D13*
X0273544Y0115868D02*
X0293229Y0115868D01*
X0293229Y0135553D01*
X0273544Y0135553D01*
X0273544Y0115868D01*
X0261733Y0143427D02*
X0324725Y0143427D01*
X0324725Y0080435D02*
X0261733Y0080435D01*
X0138307Y0115868D02*
X0132402Y0115868D01*
X0133293Y0125710D02*
X0133295Y0125769D01*
X0133301Y0125827D01*
X0133311Y0125885D01*
X0133324Y0125942D01*
X0133342Y0125999D01*
X0133363Y0126054D01*
X0133388Y0126107D01*
X0133416Y0126158D01*
X0133447Y0126208D01*
X0133482Y0126255D01*
X0133520Y0126300D01*
X0133561Y0126343D01*
X0133605Y0126382D01*
X0133651Y0126418D01*
X0133699Y0126452D01*
X0133750Y0126482D01*
X0133803Y0126508D01*
X0133857Y0126531D01*
X0133912Y0126550D01*
X0133969Y0126566D01*
X0134027Y0126578D01*
X0134085Y0126586D01*
X0134144Y0126590D01*
X0134202Y0126590D01*
X0134261Y0126586D01*
X0134319Y0126578D01*
X0134377Y0126566D01*
X0134434Y0126550D01*
X0134489Y0126531D01*
X0134543Y0126508D01*
X0134596Y0126482D01*
X0134647Y0126452D01*
X0134695Y0126418D01*
X0134741Y0126382D01*
X0134785Y0126343D01*
X0134826Y0126300D01*
X0134864Y0126255D01*
X0134899Y0126208D01*
X0134930Y0126158D01*
X0134958Y0126107D01*
X0134983Y0126054D01*
X0135004Y0125999D01*
X0135022Y0125942D01*
X0135035Y0125885D01*
X0135045Y0125827D01*
X0135051Y0125769D01*
X0135053Y0125710D01*
X0135051Y0125651D01*
X0135045Y0125593D01*
X0135035Y0125535D01*
X0135022Y0125478D01*
X0135004Y0125421D01*
X0134983Y0125366D01*
X0134958Y0125313D01*
X0134930Y0125262D01*
X0134899Y0125212D01*
X0134864Y0125165D01*
X0134826Y0125120D01*
X0134785Y0125077D01*
X0134741Y0125038D01*
X0134695Y0125002D01*
X0134647Y0124968D01*
X0134596Y0124938D01*
X0134543Y0124912D01*
X0134489Y0124889D01*
X0134434Y0124870D01*
X0134377Y0124854D01*
X0134319Y0124842D01*
X0134261Y0124834D01*
X0134202Y0124830D01*
X0134144Y0124830D01*
X0134085Y0124834D01*
X0134027Y0124842D01*
X0133969Y0124854D01*
X0133912Y0124870D01*
X0133857Y0124889D01*
X0133803Y0124912D01*
X0133750Y0124938D01*
X0133699Y0124968D01*
X0133651Y0125002D01*
X0133605Y0125038D01*
X0133561Y0125077D01*
X0133520Y0125120D01*
X0133482Y0125165D01*
X0133447Y0125212D01*
X0133416Y0125262D01*
X0133388Y0125313D01*
X0133363Y0125366D01*
X0133342Y0125421D01*
X0133324Y0125478D01*
X0133311Y0125535D01*
X0133301Y0125593D01*
X0133295Y0125651D01*
X0133293Y0125710D01*
X0132402Y0127679D02*
X0138307Y0127679D01*
X0062918Y0125025D02*
X0062918Y0117025D01*
D14*
X0034744Y0119844D02*
X0034744Y0123781D01*
X0034673Y0123753D02*
X0030807Y0123753D01*
X0030807Y0123781D01*
X0018996Y0123781D02*
X0015059Y0123781D01*
X0034744Y0096222D02*
X0034744Y0092285D01*
X0030807Y0092285D01*
X0018996Y0092285D02*
X0015059Y0092285D01*
D15*
X0086103Y0077836D03*
X0086103Y0120828D03*
X0075079Y0143820D03*
X0229725Y0140120D03*
X0240236Y0087561D03*
D16*
X0152772Y0128309D03*
X0098190Y0143490D03*
D17*
X0101181Y0107876D03*
M02*
