G75*
%MOIN*%
%OFA0B0*%
%FSLAX25Y25*%
%IPPOS*%
%LPD*%
%AMOC8*
5,1,8,0,0,1.08239X$1,22.5*
%
%ADD10C,0.00000*%
%ADD11OC8,0.10000*%
%ADD12R,0.05906X0.05118*%
%ADD13R,0.05118X0.05906*%
%ADD14R,0.05512X0.06299*%
%ADD15R,0.05709X0.01575*%
%ADD16R,0.05906X0.07087*%
%ADD17R,0.05906X0.09843*%
%ADD18R,0.04724X0.04724*%
%ADD19R,0.06000X0.03000*%
%ADD20R,0.04724X0.02165*%
%ADD21R,0.01500X0.04500*%
%ADD22R,0.02165X0.04724*%
%ADD23R,0.02200X0.05000*%
%ADD24R,0.05000X0.02200*%
%ADD25R,0.06600X0.03200*%
%ADD26R,0.03937X0.02756*%
%ADD27C,0.01772*%
%ADD28C,0.01000*%
%ADD29R,0.03000X0.06000*%
%ADD30C,0.07400*%
%ADD31C,0.03169*%
%ADD32C,0.02400*%
%ADD33C,0.01200*%
%ADD34C,0.01600*%
%ADD35C,0.03562*%
%ADD36C,0.05000*%
D10*
X0015433Y0071025D02*
X0015433Y0153387D01*
X0343780Y0153387D01*
X0343780Y0071025D01*
X0015433Y0071025D01*
D11*
X0333032Y0084372D03*
D12*
X0337362Y0116458D03*
X0337362Y0123939D03*
X0243780Y0136576D03*
X0243780Y0144057D03*
X0219055Y0144135D03*
X0205985Y0144057D03*
X0192284Y0144254D03*
X0177953Y0144293D03*
X0163189Y0144254D03*
X0147441Y0144569D03*
X0134331Y0144687D03*
X0122008Y0144883D03*
X0109213Y0144883D03*
X0109213Y0137403D03*
X0122008Y0137403D03*
X0134331Y0137206D03*
X0147441Y0137088D03*
X0163189Y0136773D03*
X0177953Y0136813D03*
X0192284Y0136773D03*
X0205985Y0136576D03*
X0219055Y0136655D03*
X0194488Y0086065D03*
X0194488Y0078584D03*
X0061024Y0136301D03*
X0046851Y0136340D03*
X0046851Y0143820D03*
X0061024Y0143781D03*
D13*
X0071024Y0136261D03*
X0078504Y0136261D03*
X0109370Y0126852D03*
X0116851Y0126852D03*
X0117087Y0116025D03*
X0109607Y0116025D03*
X0160551Y0107757D03*
X0168032Y0107757D03*
X0236890Y0078899D03*
X0244370Y0078899D03*
X0116457Y0077994D03*
X0108977Y0077994D03*
X0065591Y0078427D03*
X0058110Y0078427D03*
D14*
X0055906Y0121025D03*
X0066929Y0121025D03*
D15*
X0033662Y0113151D03*
X0033662Y0110592D03*
X0033662Y0108033D03*
X0033662Y0105474D03*
X0033662Y0102915D03*
D16*
X0022933Y0093525D03*
X0022933Y0122541D03*
D17*
X0022933Y0108033D03*
D18*
X0082362Y0120828D03*
X0090630Y0120828D03*
X0078819Y0143820D03*
X0070551Y0143820D03*
X0229725Y0144647D03*
X0229725Y0136380D03*
X0236496Y0087561D03*
X0244764Y0087561D03*
X0090630Y0077836D03*
X0082362Y0077836D03*
D19*
X0127583Y0092541D03*
X0149583Y0092541D03*
X0149583Y0107541D03*
X0127583Y0107541D03*
D20*
X0151653Y0118269D03*
X0161890Y0118269D03*
X0151653Y0122009D03*
X0151653Y0125750D03*
X0161890Y0125750D03*
D21*
X0097431Y0108426D03*
X0094931Y0108426D03*
X0092431Y0108426D03*
X0089931Y0108426D03*
X0087431Y0108426D03*
X0084931Y0108426D03*
X0082431Y0108426D03*
X0079931Y0108426D03*
X0077431Y0108426D03*
X0074931Y0108426D03*
X0074931Y0087326D03*
X0077431Y0087326D03*
X0079931Y0087326D03*
X0082431Y0087326D03*
X0084931Y0087326D03*
X0087431Y0087326D03*
X0089931Y0087326D03*
X0092431Y0087326D03*
X0094931Y0087326D03*
X0097431Y0087326D03*
D22*
X0095630Y0134371D03*
X0088150Y0134371D03*
X0088150Y0144608D03*
X0091890Y0144608D03*
X0095630Y0144608D03*
D23*
X0186693Y0129028D03*
X0189843Y0129028D03*
X0192992Y0129028D03*
X0196142Y0129028D03*
X0199292Y0129028D03*
X0202441Y0129028D03*
X0205591Y0129028D03*
X0208740Y0129028D03*
X0208740Y0095228D03*
X0205591Y0095228D03*
X0202441Y0095228D03*
X0199292Y0095228D03*
X0196142Y0095228D03*
X0192992Y0095228D03*
X0189843Y0095228D03*
X0186693Y0095228D03*
D24*
X0180817Y0101104D03*
X0180817Y0104254D03*
X0180817Y0107403D03*
X0180817Y0110553D03*
X0180817Y0113702D03*
X0180817Y0116852D03*
X0180817Y0120002D03*
X0180817Y0123151D03*
X0214617Y0123151D03*
X0214617Y0120002D03*
X0214617Y0116852D03*
X0214617Y0113702D03*
X0214617Y0110553D03*
X0214617Y0107403D03*
X0214617Y0104254D03*
X0214617Y0101104D03*
D25*
X0263307Y0100120D03*
X0263307Y0107994D03*
X0263307Y0115868D03*
X0263307Y0123742D03*
X0263307Y0131616D03*
X0263307Y0139490D03*
X0323150Y0139490D03*
X0323150Y0131616D03*
X0323150Y0123742D03*
X0323150Y0115868D03*
X0323150Y0107994D03*
X0323150Y0100120D03*
X0323150Y0092246D03*
X0323150Y0084372D03*
X0263307Y0084372D03*
X0263307Y0092246D03*
D26*
X0140473Y0118033D03*
X0140473Y0121773D03*
X0130236Y0121773D03*
X0130236Y0118033D03*
X0130236Y0125513D03*
X0140473Y0125513D03*
D27*
X0202599Y0084755D02*
X0202599Y0079027D01*
X0207323Y0079027D02*
X0207323Y0084755D01*
X0212048Y0084755D02*
X0212048Y0079027D01*
D28*
X0212048Y0077891D02*
X0212048Y0081891D01*
X0212048Y0085891D01*
X0212048Y0087009D01*
X0209134Y0089923D01*
X0209134Y0094834D01*
X0208740Y0095228D01*
X0205591Y0095228D02*
X0205197Y0094834D01*
X0205197Y0089923D01*
X0202599Y0087324D01*
X0202599Y0085891D01*
X0202599Y0081891D01*
X0202599Y0077891D01*
X0204413Y0076594D02*
X0206440Y0076594D01*
X0206569Y0076541D02*
X0207068Y0076441D01*
X0207323Y0076441D01*
X0207323Y0081891D01*
X0207323Y0081891D01*
X0207323Y0076441D01*
X0207578Y0076441D01*
X0208077Y0076541D01*
X0208548Y0076736D01*
X0208971Y0077019D01*
X0209332Y0077379D01*
X0209340Y0077391D01*
X0209848Y0077391D01*
X0209848Y0076980D01*
X0211136Y0075691D01*
X0212959Y0075691D01*
X0214247Y0076980D01*
X0214247Y0077391D01*
X0214727Y0077391D01*
X0215723Y0078387D01*
X0215723Y0084947D01*
X0222288Y0078382D01*
X0223577Y0077093D01*
X0232631Y0077093D01*
X0232631Y0075242D01*
X0233627Y0074246D01*
X0240153Y0074246D01*
X0240630Y0074723D01*
X0241107Y0074246D01*
X0247634Y0074246D01*
X0248629Y0075242D01*
X0248629Y0082556D01*
X0247687Y0083498D01*
X0247830Y0083498D01*
X0248826Y0084494D01*
X0248826Y0090085D01*
X0250743Y0090085D01*
X0253391Y0087437D01*
X0254680Y0086148D01*
X0258307Y0086148D01*
X0258307Y0084672D01*
X0263007Y0084672D01*
X0263007Y0084072D01*
X0258307Y0084072D01*
X0258307Y0082548D01*
X0258423Y0082115D01*
X0258555Y0081887D01*
X0255673Y0081887D01*
X0255089Y0082471D01*
X0253882Y0082971D01*
X0252575Y0082971D01*
X0251368Y0082471D01*
X0250444Y0081547D01*
X0249944Y0080340D01*
X0249944Y0079033D01*
X0250444Y0077826D01*
X0251368Y0076902D01*
X0252575Y0076402D01*
X0253882Y0076402D01*
X0255089Y0076902D01*
X0255673Y0077487D01*
X0281699Y0077487D01*
X0302171Y0097959D01*
X0318150Y0097959D01*
X0318150Y0097816D01*
X0319146Y0096820D01*
X0327154Y0096820D01*
X0328150Y0097816D01*
X0328150Y0102424D01*
X0327154Y0103420D01*
X0319146Y0103420D01*
X0318150Y0102424D01*
X0318150Y0102359D01*
X0300349Y0102359D01*
X0299060Y0101070D01*
X0279876Y0081887D01*
X0268059Y0081887D01*
X0268191Y0082115D01*
X0268307Y0082548D01*
X0268307Y0084072D01*
X0263607Y0084072D01*
X0263607Y0084672D01*
X0268307Y0084672D01*
X0268307Y0086148D01*
X0280124Y0086148D01*
X0299809Y0105833D01*
X0318150Y0105833D01*
X0318150Y0105690D01*
X0319146Y0104694D01*
X0327154Y0104694D01*
X0328150Y0105690D01*
X0328150Y0110298D01*
X0327154Y0111294D01*
X0319146Y0111294D01*
X0318150Y0110298D01*
X0318150Y0110233D01*
X0297987Y0110233D01*
X0278302Y0090548D01*
X0268307Y0090548D01*
X0268307Y0094022D01*
X0275400Y0094022D01*
X0302959Y0121581D01*
X0318150Y0121581D01*
X0318150Y0121438D01*
X0319146Y0120442D01*
X0327154Y0120442D01*
X0327494Y0120782D01*
X0327494Y0119358D01*
X0323164Y0119358D01*
X0322704Y0119168D01*
X0319146Y0119168D01*
X0318150Y0118172D01*
X0318150Y0113564D01*
X0319146Y0112568D01*
X0327154Y0112568D01*
X0327554Y0112968D01*
X0330931Y0112968D01*
X0331997Y0113409D01*
X0332037Y0113449D01*
X0332146Y0113558D01*
X0332710Y0113558D01*
X0332710Y0113195D01*
X0333706Y0112199D01*
X0341019Y0112199D01*
X0342015Y0113195D01*
X0342015Y0119721D01*
X0341538Y0120198D01*
X0341676Y0120336D01*
X0341899Y0120723D01*
X0342015Y0121156D01*
X0342015Y0123439D01*
X0337863Y0123439D01*
X0337863Y0124439D01*
X0342015Y0124439D01*
X0342015Y0126721D01*
X0341899Y0127154D01*
X0341676Y0127541D01*
X0341359Y0127858D01*
X0340971Y0128082D01*
X0340539Y0128198D01*
X0337862Y0128198D01*
X0337862Y0124439D01*
X0336862Y0124439D01*
X0336862Y0128198D01*
X0334186Y0128198D01*
X0333754Y0128082D01*
X0333366Y0127858D01*
X0333294Y0127786D01*
X0333294Y0144830D01*
X0332852Y0145896D01*
X0327409Y0151340D01*
X0342080Y0151340D01*
X0342080Y0073387D01*
X0181455Y0073387D01*
X0181658Y0073420D01*
X0182467Y0073682D01*
X0183224Y0074068D01*
X0183912Y0074568D01*
X0184513Y0075169D01*
X0185012Y0075856D01*
X0185398Y0076614D01*
X0185661Y0077422D01*
X0185782Y0078187D01*
X0180894Y0078187D01*
X0180894Y0079187D01*
X0185782Y0079187D01*
X0185661Y0079951D01*
X0185398Y0080759D01*
X0185012Y0081517D01*
X0184513Y0082204D01*
X0183912Y0082805D01*
X0183418Y0083165D01*
X0189836Y0083165D01*
X0189836Y0082801D01*
X0190313Y0082324D01*
X0190175Y0082187D01*
X0189952Y0081799D01*
X0189836Y0081367D01*
X0189836Y0079084D01*
X0193988Y0079084D01*
X0193988Y0078084D01*
X0189836Y0078084D01*
X0189836Y0075801D01*
X0189952Y0075369D01*
X0190175Y0074981D01*
X0190492Y0074665D01*
X0190880Y0074441D01*
X0191312Y0074325D01*
X0193988Y0074325D01*
X0193988Y0078084D01*
X0194988Y0078084D01*
X0194988Y0074325D01*
X0197665Y0074325D01*
X0198097Y0074441D01*
X0198485Y0074665D01*
X0198802Y0074981D01*
X0199025Y0075369D01*
X0199141Y0075801D01*
X0199141Y0078084D01*
X0194988Y0078084D01*
X0194988Y0079084D01*
X0198923Y0079084D01*
X0198923Y0078387D01*
X0199919Y0077391D01*
X0200399Y0077391D01*
X0200399Y0076980D01*
X0201687Y0075691D01*
X0203510Y0075691D01*
X0204799Y0076980D01*
X0204799Y0077391D01*
X0205306Y0077391D01*
X0205315Y0077379D01*
X0205675Y0077019D01*
X0206098Y0076736D01*
X0206569Y0076541D01*
X0207323Y0076594D02*
X0207323Y0076594D01*
X0208206Y0076594D02*
X0210234Y0076594D01*
X0207323Y0077593D02*
X0207323Y0077593D01*
X0207323Y0077891D02*
X0207323Y0081891D01*
X0207323Y0085891D01*
X0207323Y0085581D02*
X0207323Y0085581D01*
X0207323Y0086579D02*
X0207323Y0086579D01*
X0207323Y0087341D02*
X0207068Y0087341D01*
X0206569Y0087242D01*
X0206098Y0087047D01*
X0205675Y0086764D01*
X0205315Y0086404D01*
X0205306Y0086391D01*
X0204799Y0086391D01*
X0204799Y0086413D01*
X0206108Y0087723D01*
X0207166Y0088780D01*
X0208223Y0087723D01*
X0209554Y0086391D01*
X0209340Y0086391D01*
X0209332Y0086404D01*
X0208971Y0086764D01*
X0208548Y0087047D01*
X0208077Y0087242D01*
X0207578Y0087341D01*
X0207323Y0087341D01*
X0207323Y0081891D01*
X0207323Y0081891D01*
X0207323Y0087341D01*
X0208368Y0087578D02*
X0205963Y0087578D01*
X0205490Y0086579D02*
X0204965Y0086579D01*
X0206962Y0088576D02*
X0207369Y0088576D01*
X0209156Y0086579D02*
X0209367Y0086579D01*
X0207323Y0084582D02*
X0207323Y0084582D01*
X0207323Y0083584D02*
X0207323Y0083584D01*
X0207323Y0082585D02*
X0207323Y0082585D01*
X0207323Y0081587D02*
X0207323Y0081587D01*
X0207323Y0080588D02*
X0207323Y0080588D01*
X0207323Y0079590D02*
X0207323Y0079590D01*
X0207323Y0078591D02*
X0207323Y0078591D01*
X0213861Y0076594D02*
X0232631Y0076594D01*
X0232631Y0075596D02*
X0199086Y0075596D01*
X0199141Y0076594D02*
X0200785Y0076594D01*
X0199718Y0077593D02*
X0199141Y0077593D01*
X0198923Y0078591D02*
X0194988Y0078591D01*
X0194988Y0077593D02*
X0193988Y0077593D01*
X0193988Y0078591D02*
X0180894Y0078591D01*
X0185688Y0077593D02*
X0189836Y0077593D01*
X0189836Y0076594D02*
X0185388Y0076594D01*
X0184823Y0075596D02*
X0189891Y0075596D01*
X0190609Y0074597D02*
X0183941Y0074597D01*
X0182209Y0073599D02*
X0342080Y0073599D01*
X0342080Y0074597D02*
X0247984Y0074597D01*
X0248629Y0075596D02*
X0342080Y0075596D01*
X0342080Y0076594D02*
X0254345Y0076594D01*
X0252113Y0076594D02*
X0248629Y0076594D01*
X0248629Y0077593D02*
X0250678Y0077593D01*
X0250128Y0078591D02*
X0248629Y0078591D01*
X0248629Y0079590D02*
X0249944Y0079590D01*
X0250047Y0080588D02*
X0248629Y0080588D01*
X0248629Y0081587D02*
X0250484Y0081587D01*
X0251644Y0082585D02*
X0248600Y0082585D01*
X0247916Y0083584D02*
X0258307Y0083584D01*
X0258307Y0082585D02*
X0254813Y0082585D01*
X0253229Y0079687D02*
X0280788Y0079687D01*
X0301260Y0100159D01*
X0323110Y0100159D01*
X0323150Y0100120D01*
X0328150Y0100558D02*
X0342080Y0100558D01*
X0342080Y0099560D02*
X0328150Y0099560D01*
X0328150Y0098561D02*
X0342080Y0098561D01*
X0342080Y0097563D02*
X0327897Y0097563D01*
X0327106Y0095430D02*
X0326674Y0095546D01*
X0323450Y0095546D01*
X0323450Y0092546D01*
X0322850Y0092546D01*
X0322850Y0095546D01*
X0319626Y0095546D01*
X0319194Y0095430D01*
X0318806Y0095206D01*
X0318490Y0094889D01*
X0318266Y0094502D01*
X0318150Y0094069D01*
X0318150Y0092546D01*
X0322850Y0092546D01*
X0322850Y0091946D01*
X0318150Y0091946D01*
X0318150Y0090422D01*
X0318266Y0089989D01*
X0318490Y0089602D01*
X0318806Y0089285D01*
X0319194Y0089062D01*
X0319626Y0088946D01*
X0322850Y0088946D01*
X0322850Y0091946D01*
X0323450Y0091946D01*
X0323450Y0092546D01*
X0328150Y0092546D01*
X0328150Y0094069D01*
X0328034Y0094502D01*
X0327810Y0094889D01*
X0327494Y0095206D01*
X0327106Y0095430D01*
X0327996Y0094567D02*
X0342080Y0094567D01*
X0342080Y0093569D02*
X0328150Y0093569D01*
X0328150Y0092570D02*
X0342080Y0092570D01*
X0342080Y0091572D02*
X0328150Y0091572D01*
X0328150Y0091946D02*
X0323450Y0091946D01*
X0323450Y0088946D01*
X0326674Y0088946D01*
X0327106Y0089062D01*
X0327494Y0089285D01*
X0327810Y0089602D01*
X0328034Y0089989D01*
X0328150Y0090422D01*
X0328150Y0091946D01*
X0328150Y0090573D02*
X0329758Y0090573D01*
X0330257Y0091072D02*
X0327757Y0088572D01*
X0322314Y0088572D01*
X0320771Y0087932D01*
X0320510Y0087672D01*
X0319146Y0087672D01*
X0318150Y0086676D01*
X0318150Y0082067D01*
X0319146Y0081072D01*
X0320510Y0081072D01*
X0320771Y0080811D01*
X0322314Y0080172D01*
X0327757Y0080172D01*
X0330257Y0077672D01*
X0335807Y0077672D01*
X0339732Y0081596D01*
X0339732Y0087147D01*
X0335807Y0091072D01*
X0330257Y0091072D01*
X0328760Y0089575D02*
X0327783Y0089575D01*
X0327761Y0088576D02*
X0292788Y0088576D01*
X0291790Y0087578D02*
X0319052Y0087578D01*
X0318150Y0086579D02*
X0290791Y0086579D01*
X0289793Y0085581D02*
X0318150Y0085581D01*
X0318150Y0084582D02*
X0288794Y0084582D01*
X0287796Y0083584D02*
X0318150Y0083584D01*
X0318150Y0082585D02*
X0286797Y0082585D01*
X0285799Y0081587D02*
X0318631Y0081587D01*
X0321309Y0080588D02*
X0284800Y0080588D01*
X0283802Y0079590D02*
X0328339Y0079590D01*
X0329337Y0078591D02*
X0282803Y0078591D01*
X0281805Y0077593D02*
X0342080Y0077593D01*
X0342080Y0078591D02*
X0336726Y0078591D01*
X0337725Y0079590D02*
X0342080Y0079590D01*
X0342080Y0080588D02*
X0338723Y0080588D01*
X0339722Y0081587D02*
X0342080Y0081587D01*
X0342080Y0082585D02*
X0339732Y0082585D01*
X0339732Y0083584D02*
X0342080Y0083584D01*
X0342080Y0084582D02*
X0339732Y0084582D01*
X0339732Y0085581D02*
X0342080Y0085581D01*
X0342080Y0086579D02*
X0339732Y0086579D01*
X0339301Y0087578D02*
X0342080Y0087578D01*
X0342080Y0088576D02*
X0338302Y0088576D01*
X0337304Y0089575D02*
X0342080Y0089575D01*
X0342080Y0090573D02*
X0336305Y0090573D01*
X0342080Y0095566D02*
X0299778Y0095566D01*
X0300777Y0096564D02*
X0342080Y0096564D01*
X0342080Y0101557D02*
X0328150Y0101557D01*
X0328018Y0102555D02*
X0342080Y0102555D01*
X0342080Y0103554D02*
X0297530Y0103554D01*
X0298528Y0104552D02*
X0342080Y0104552D01*
X0342080Y0105551D02*
X0328011Y0105551D01*
X0328150Y0106549D02*
X0342080Y0106549D01*
X0342080Y0107548D02*
X0328150Y0107548D01*
X0328150Y0108546D02*
X0342080Y0108546D01*
X0342080Y0109545D02*
X0328150Y0109545D01*
X0327904Y0110543D02*
X0342080Y0110543D01*
X0342080Y0111542D02*
X0292920Y0111542D01*
X0293918Y0112540D02*
X0333364Y0112540D01*
X0332710Y0113539D02*
X0332127Y0113539D01*
X0341361Y0112540D02*
X0342080Y0112540D01*
X0342080Y0113539D02*
X0342015Y0113539D01*
X0342015Y0114537D02*
X0342080Y0114537D01*
X0342080Y0115536D02*
X0342015Y0115536D01*
X0342015Y0116534D02*
X0342080Y0116534D01*
X0342080Y0117533D02*
X0342015Y0117533D01*
X0342015Y0118532D02*
X0342080Y0118532D01*
X0342080Y0119530D02*
X0342015Y0119530D01*
X0342080Y0120529D02*
X0341787Y0120529D01*
X0342015Y0121527D02*
X0342080Y0121527D01*
X0342080Y0122526D02*
X0342015Y0122526D01*
X0342080Y0123524D02*
X0337863Y0123524D01*
X0337862Y0124523D02*
X0336862Y0124523D01*
X0336862Y0125521D02*
X0337862Y0125521D01*
X0337862Y0126520D02*
X0336862Y0126520D01*
X0336862Y0127518D02*
X0337862Y0127518D01*
X0341689Y0127518D02*
X0342080Y0127518D01*
X0342080Y0126520D02*
X0342015Y0126520D01*
X0342015Y0125521D02*
X0342080Y0125521D01*
X0342080Y0124523D02*
X0342015Y0124523D01*
X0342080Y0128517D02*
X0333294Y0128517D01*
X0333294Y0129515D02*
X0342080Y0129515D01*
X0342080Y0130514D02*
X0333294Y0130514D01*
X0333294Y0131512D02*
X0342080Y0131512D01*
X0342080Y0132511D02*
X0333294Y0132511D01*
X0333294Y0133509D02*
X0342080Y0133509D01*
X0342080Y0134508D02*
X0333294Y0134508D01*
X0333294Y0135506D02*
X0342080Y0135506D01*
X0342080Y0136505D02*
X0333294Y0136505D01*
X0333294Y0137503D02*
X0342080Y0137503D01*
X0342080Y0138502D02*
X0333294Y0138502D01*
X0333294Y0139500D02*
X0342080Y0139500D01*
X0342080Y0140499D02*
X0333294Y0140499D01*
X0333294Y0141497D02*
X0342080Y0141497D01*
X0342080Y0142496D02*
X0333294Y0142496D01*
X0333294Y0143494D02*
X0342080Y0143494D01*
X0342080Y0144493D02*
X0333294Y0144493D01*
X0333020Y0145491D02*
X0342080Y0145491D01*
X0342080Y0146490D02*
X0332259Y0146490D01*
X0331260Y0147488D02*
X0342080Y0147488D01*
X0342080Y0148487D02*
X0330262Y0148487D01*
X0329263Y0149485D02*
X0342080Y0149485D01*
X0342080Y0150484D02*
X0328265Y0150484D01*
X0323681Y0146865D02*
X0327494Y0143052D01*
X0327494Y0142450D01*
X0327154Y0142790D01*
X0319146Y0142790D01*
X0318150Y0141794D01*
X0318150Y0141729D01*
X0304492Y0141729D01*
X0303908Y0142313D01*
X0302701Y0142813D01*
X0301394Y0142813D01*
X0300187Y0142313D01*
X0299263Y0141390D01*
X0298763Y0140182D01*
X0298763Y0138876D01*
X0299263Y0137669D01*
X0300187Y0136745D01*
X0301394Y0136245D01*
X0302701Y0136245D01*
X0303908Y0136745D01*
X0304492Y0137329D01*
X0318150Y0137329D01*
X0318150Y0137186D01*
X0319146Y0136190D01*
X0327154Y0136190D01*
X0327494Y0136530D01*
X0327494Y0134576D01*
X0327154Y0134916D01*
X0319146Y0134916D01*
X0318150Y0133920D01*
X0318150Y0133855D01*
X0301136Y0133855D01*
X0299848Y0132566D01*
X0273577Y0106296D01*
X0268307Y0106296D01*
X0268307Y0110298D01*
X0267312Y0111294D01*
X0259303Y0111294D01*
X0258307Y0110298D01*
X0258307Y0110194D01*
X0256541Y0110194D01*
X0256407Y0110328D01*
X0257451Y0110761D01*
X0258035Y0111345D01*
X0258077Y0111345D01*
X0259301Y0112569D01*
X0259303Y0112568D01*
X0267312Y0112568D01*
X0268307Y0113564D01*
X0268307Y0118172D01*
X0267312Y0119168D01*
X0259303Y0119168D01*
X0258307Y0118172D01*
X0258307Y0117320D01*
X0257829Y0117320D01*
X0257018Y0116509D01*
X0256244Y0116829D01*
X0255687Y0116829D01*
X0256216Y0117358D01*
X0256216Y0120508D01*
X0256502Y0120794D01*
X0258951Y0120794D01*
X0259303Y0120442D01*
X0267312Y0120442D01*
X0268307Y0121438D01*
X0268307Y0126046D01*
X0267312Y0127042D01*
X0259303Y0127042D01*
X0258307Y0126046D01*
X0258307Y0125194D01*
X0254680Y0125194D01*
X0253854Y0124368D01*
X0253854Y0126807D01*
X0256502Y0129455D01*
X0258307Y0129455D01*
X0258307Y0129312D01*
X0259303Y0128316D01*
X0267312Y0128316D01*
X0268307Y0129312D01*
X0268307Y0133920D01*
X0267312Y0134916D01*
X0259303Y0134916D01*
X0258307Y0133920D01*
X0258307Y0133855D01*
X0254680Y0133855D01*
X0253391Y0132566D01*
X0249454Y0128629D01*
X0249454Y0127489D01*
X0249341Y0127554D01*
X0248909Y0127670D01*
X0247435Y0127670D01*
X0247435Y0123220D01*
X0246935Y0123220D01*
X0246935Y0122720D01*
X0243985Y0122720D01*
X0243985Y0119746D01*
X0244003Y0119682D01*
X0235385Y0119682D01*
X0235385Y0123059D01*
X0244644Y0132317D01*
X0247437Y0132317D01*
X0248433Y0133313D01*
X0248433Y0139840D01*
X0247956Y0140317D01*
X0248433Y0140793D01*
X0248433Y0146865D01*
X0323681Y0146865D01*
X0324056Y0146490D02*
X0248433Y0146490D01*
X0248433Y0145491D02*
X0325055Y0145491D01*
X0326053Y0144493D02*
X0248433Y0144493D01*
X0248433Y0143494D02*
X0327052Y0143494D01*
X0327448Y0142496D02*
X0327494Y0142496D01*
X0323150Y0139490D02*
X0323110Y0139529D01*
X0302048Y0139529D01*
X0298763Y0139500D02*
X0263607Y0139500D01*
X0263607Y0139790D02*
X0268307Y0139790D01*
X0268307Y0141314D01*
X0268191Y0141746D01*
X0267968Y0142134D01*
X0267651Y0142450D01*
X0267264Y0142674D01*
X0266831Y0142790D01*
X0263607Y0142790D01*
X0263607Y0139790D01*
X0263007Y0139790D01*
X0263007Y0139190D01*
X0258307Y0139190D01*
X0258307Y0137666D01*
X0258423Y0137234D01*
X0258647Y0136846D01*
X0258964Y0136529D01*
X0259351Y0136306D01*
X0259784Y0136190D01*
X0263007Y0136190D01*
X0263007Y0139190D01*
X0263607Y0139190D01*
X0263607Y0136190D01*
X0266831Y0136190D01*
X0267264Y0136306D01*
X0267651Y0136529D01*
X0267968Y0136846D01*
X0268191Y0137234D01*
X0268307Y0137666D01*
X0268307Y0139190D01*
X0263607Y0139190D01*
X0263607Y0139790D01*
X0263007Y0139790D02*
X0263007Y0142790D01*
X0259784Y0142790D01*
X0259351Y0142674D01*
X0258964Y0142450D01*
X0258647Y0142134D01*
X0258423Y0141746D01*
X0258307Y0141314D01*
X0258307Y0139790D01*
X0263007Y0139790D01*
X0263007Y0139500D02*
X0248433Y0139500D01*
X0248433Y0138502D02*
X0258307Y0138502D01*
X0258351Y0137503D02*
X0248433Y0137503D01*
X0248433Y0136505D02*
X0259006Y0136505D01*
X0258895Y0134508D02*
X0248433Y0134508D01*
X0248433Y0135506D02*
X0327494Y0135506D01*
X0327469Y0136505D02*
X0327494Y0136505D01*
X0318831Y0136505D02*
X0303328Y0136505D01*
X0300767Y0136505D02*
X0267608Y0136505D01*
X0268264Y0137503D02*
X0299429Y0137503D01*
X0298918Y0138502D02*
X0268307Y0138502D01*
X0263607Y0138502D02*
X0263007Y0138502D01*
X0263007Y0137503D02*
X0263607Y0137503D01*
X0263607Y0136505D02*
X0263007Y0136505D01*
X0267720Y0134508D02*
X0318738Y0134508D01*
X0323110Y0131655D02*
X0323150Y0131616D01*
X0323110Y0131655D02*
X0302048Y0131655D01*
X0274488Y0104096D01*
X0255591Y0104096D01*
X0250866Y0108820D01*
X0228819Y0108820D01*
X0223937Y0113702D01*
X0214617Y0113702D01*
X0208347Y0111970D02*
X0205197Y0108820D01*
X0187874Y0108820D01*
X0186299Y0107246D01*
X0186299Y0102521D01*
X0184725Y0100946D01*
X0180974Y0100946D01*
X0180817Y0101104D01*
X0187087Y0099372D02*
X0187087Y0095621D01*
X0186693Y0095228D01*
X0189843Y0095228D02*
X0189843Y0098978D01*
X0191024Y0100159D01*
X0191024Y0103309D01*
X0191811Y0104096D01*
X0205197Y0104096D01*
X0207559Y0101734D01*
X0205221Y0099428D02*
X0203787Y0099428D01*
X0200637Y0099428D01*
X0200632Y0099423D01*
X0200615Y0099428D01*
X0199342Y0099428D01*
X0199342Y0095278D01*
X0199242Y0095278D01*
X0199242Y0099428D01*
X0197968Y0099428D01*
X0197951Y0099423D01*
X0197946Y0099428D01*
X0194338Y0099428D01*
X0194333Y0099423D01*
X0194316Y0099428D01*
X0193224Y0099428D01*
X0193224Y0101896D01*
X0204275Y0101896D01*
X0204275Y0101081D01*
X0204775Y0099873D01*
X0205221Y0099428D01*
X0205089Y0099560D02*
X0193224Y0099560D01*
X0193042Y0099066D02*
X0193042Y0095278D01*
X0192942Y0095278D01*
X0192942Y0098966D01*
X0193042Y0099066D01*
X0193042Y0098561D02*
X0192942Y0098561D01*
X0192942Y0097563D02*
X0193042Y0097563D01*
X0193042Y0096564D02*
X0192942Y0096564D01*
X0192942Y0095566D02*
X0193042Y0095566D01*
X0199242Y0095566D02*
X0199342Y0095566D01*
X0199342Y0096564D02*
X0199242Y0096564D01*
X0199242Y0097563D02*
X0199342Y0097563D01*
X0199342Y0098561D02*
X0199242Y0098561D01*
X0204491Y0100558D02*
X0193224Y0100558D01*
X0193224Y0101557D02*
X0204275Y0101557D01*
X0214617Y0101104D02*
X0220788Y0101104D01*
X0222520Y0099372D01*
X0222520Y0088348D01*
X0225567Y0089575D02*
X0232434Y0089575D01*
X0232434Y0090085D02*
X0232434Y0088061D01*
X0235996Y0088061D01*
X0235996Y0087061D01*
X0232434Y0087061D01*
X0232434Y0084975D01*
X0232550Y0084542D01*
X0232774Y0084155D01*
X0233090Y0083838D01*
X0233478Y0083614D01*
X0233711Y0083552D01*
X0233627Y0083552D01*
X0232631Y0082556D01*
X0232631Y0081493D01*
X0225400Y0081493D01*
X0221802Y0085091D01*
X0221867Y0085064D01*
X0223173Y0085064D01*
X0224380Y0085564D01*
X0225304Y0086488D01*
X0225804Y0087695D01*
X0225804Y0089001D01*
X0225304Y0090208D01*
X0224720Y0090793D01*
X0224720Y0093273D01*
X0226619Y0091374D01*
X0227908Y0090085D01*
X0232434Y0090085D01*
X0232434Y0088576D02*
X0225804Y0088576D01*
X0225756Y0087578D02*
X0235996Y0087578D01*
X0236996Y0087578D02*
X0240702Y0087578D01*
X0240559Y0088061D02*
X0240559Y0090085D01*
X0240702Y0090085D01*
X0240702Y0084494D01*
X0241644Y0083552D01*
X0241107Y0083552D01*
X0240630Y0083075D01*
X0240153Y0083552D01*
X0239282Y0083552D01*
X0239515Y0083614D01*
X0239902Y0083838D01*
X0240219Y0084155D01*
X0240443Y0084542D01*
X0240559Y0084975D01*
X0240559Y0087061D01*
X0236996Y0087061D01*
X0236996Y0088061D01*
X0240559Y0088061D01*
X0240559Y0088576D02*
X0240702Y0088576D01*
X0240702Y0089575D02*
X0240559Y0089575D01*
X0240559Y0086579D02*
X0240702Y0086579D01*
X0240702Y0085581D02*
X0240559Y0085581D01*
X0240453Y0084582D02*
X0240702Y0084582D01*
X0241612Y0083584D02*
X0239400Y0083584D01*
X0233592Y0083584D02*
X0223309Y0083584D01*
X0222310Y0084582D02*
X0232539Y0084582D01*
X0232434Y0085581D02*
X0224397Y0085581D01*
X0225342Y0086579D02*
X0232434Y0086579D01*
X0227420Y0090573D02*
X0224939Y0090573D01*
X0224720Y0091572D02*
X0226421Y0091572D01*
X0225423Y0092570D02*
X0224720Y0092570D01*
X0225670Y0095435D02*
X0228819Y0092285D01*
X0251654Y0092285D01*
X0255591Y0088348D01*
X0279213Y0088348D01*
X0298898Y0108033D01*
X0323110Y0108033D01*
X0323150Y0107994D01*
X0318289Y0105551D02*
X0299527Y0105551D01*
X0295301Y0107548D02*
X0288926Y0107548D01*
X0289924Y0108546D02*
X0296300Y0108546D01*
X0297298Y0109545D02*
X0290923Y0109545D01*
X0291921Y0110543D02*
X0318395Y0110543D01*
X0318174Y0113539D02*
X0294917Y0113539D01*
X0295915Y0114537D02*
X0318150Y0114537D01*
X0318150Y0115536D02*
X0296914Y0115536D01*
X0297912Y0116534D02*
X0318150Y0116534D01*
X0318150Y0117533D02*
X0298911Y0117533D01*
X0299909Y0118532D02*
X0318510Y0118532D01*
X0319059Y0120529D02*
X0301906Y0120529D01*
X0302905Y0121527D02*
X0318150Y0121527D01*
X0323110Y0123781D02*
X0323150Y0123742D01*
X0323110Y0123781D02*
X0302048Y0123781D01*
X0274488Y0096222D01*
X0255591Y0096222D01*
X0251654Y0100159D01*
X0251654Y0104096D01*
X0250079Y0105671D01*
X0228819Y0105671D01*
X0223937Y0110553D01*
X0214617Y0110553D01*
X0208347Y0111970D02*
X0208347Y0122994D01*
X0206147Y0120549D02*
X0206147Y0112881D01*
X0204286Y0111020D01*
X0199534Y0111020D01*
X0199820Y0111710D01*
X0199820Y0113017D01*
X0199320Y0114224D01*
X0198396Y0115148D01*
X0197189Y0115648D01*
X0196363Y0115648D01*
X0192043Y0119968D01*
X0192043Y0124828D01*
X0194797Y0124828D01*
X0194801Y0124832D01*
X0194818Y0124828D01*
X0196092Y0124828D01*
X0196092Y0128977D01*
X0196192Y0128977D01*
X0196192Y0124828D01*
X0197466Y0124828D01*
X0197483Y0124832D01*
X0197487Y0124828D01*
X0205551Y0124828D01*
X0205062Y0123647D01*
X0205062Y0122340D01*
X0205562Y0121133D01*
X0206147Y0120549D01*
X0206147Y0120529D02*
X0192043Y0120529D01*
X0192043Y0121527D02*
X0205399Y0121527D01*
X0205062Y0122526D02*
X0192043Y0122526D01*
X0192043Y0123524D02*
X0205062Y0123524D01*
X0205425Y0124523D02*
X0192043Y0124523D01*
X0196092Y0125521D02*
X0196192Y0125521D01*
X0196192Y0126520D02*
X0196092Y0126520D01*
X0196092Y0127518D02*
X0196192Y0127518D01*
X0196192Y0128517D02*
X0196092Y0128517D01*
X0189843Y0129028D02*
X0189843Y0119057D01*
X0196536Y0112364D01*
X0199604Y0113539D02*
X0206147Y0113539D01*
X0206147Y0114537D02*
X0199007Y0114537D01*
X0197459Y0115536D02*
X0206147Y0115536D01*
X0206147Y0116534D02*
X0195476Y0116534D01*
X0194478Y0117533D02*
X0206147Y0117533D01*
X0206147Y0118532D02*
X0193479Y0118532D01*
X0192481Y0119530D02*
X0206147Y0119530D01*
X0214617Y0120002D02*
X0223937Y0120002D01*
X0228819Y0115120D01*
X0250866Y0115120D01*
X0254016Y0118269D01*
X0254016Y0121419D01*
X0255591Y0122994D01*
X0262559Y0122994D01*
X0263307Y0123742D01*
X0268307Y0123524D02*
X0290805Y0123524D01*
X0289807Y0122526D02*
X0268307Y0122526D01*
X0268307Y0121527D02*
X0288808Y0121527D01*
X0287810Y0120529D02*
X0267398Y0120529D01*
X0267948Y0118532D02*
X0285813Y0118532D01*
X0286811Y0119530D02*
X0256216Y0119530D01*
X0256216Y0118532D02*
X0258667Y0118532D01*
X0258307Y0117533D02*
X0256216Y0117533D01*
X0256955Y0116534D02*
X0257044Y0116534D01*
X0258740Y0115120D02*
X0262559Y0115120D01*
X0263307Y0115868D01*
X0258740Y0115120D02*
X0257166Y0113545D01*
X0255591Y0113545D01*
X0258274Y0111542D02*
X0278823Y0111542D01*
X0277825Y0110543D02*
X0268062Y0110543D01*
X0268307Y0109545D02*
X0276826Y0109545D01*
X0275828Y0108546D02*
X0268307Y0108546D01*
X0268307Y0107548D02*
X0274829Y0107548D01*
X0273830Y0106549D02*
X0268307Y0106549D01*
X0263307Y0107994D02*
X0255630Y0107994D01*
X0251654Y0111970D01*
X0228819Y0111970D01*
X0223937Y0116852D01*
X0214617Y0116852D01*
X0205806Y0112540D02*
X0199820Y0112540D01*
X0199750Y0111542D02*
X0204807Y0111542D01*
X0214617Y0107403D02*
X0214774Y0107246D01*
X0223307Y0107246D01*
X0228032Y0102521D01*
X0228032Y0097009D01*
X0229607Y0095435D01*
X0253229Y0095435D01*
X0256418Y0092246D01*
X0263307Y0092246D01*
X0268307Y0092570D02*
X0280324Y0092570D01*
X0281322Y0093569D02*
X0268307Y0093569D01*
X0268307Y0091572D02*
X0279325Y0091572D01*
X0278327Y0090573D02*
X0268307Y0090573D01*
X0268307Y0085581D02*
X0283570Y0085581D01*
X0282572Y0084582D02*
X0263607Y0084582D01*
X0263007Y0084582D02*
X0248826Y0084582D01*
X0248826Y0085581D02*
X0258307Y0085581D01*
X0254248Y0086579D02*
X0248826Y0086579D01*
X0248826Y0087578D02*
X0253250Y0087578D01*
X0252251Y0088576D02*
X0248826Y0088576D01*
X0248826Y0089575D02*
X0251253Y0089575D01*
X0244764Y0087561D02*
X0244370Y0087167D01*
X0244370Y0078899D01*
X0236890Y0078899D02*
X0236496Y0079293D01*
X0224488Y0079293D01*
X0213859Y0089923D01*
X0225670Y0095435D02*
X0225670Y0100946D01*
X0222362Y0104254D01*
X0214617Y0104254D01*
X0208347Y0106458D02*
X0189449Y0106458D01*
X0188662Y0105671D01*
X0188662Y0100946D01*
X0187087Y0099372D01*
X0180817Y0104254D02*
X0176221Y0104254D01*
X0169764Y0097797D01*
X0154803Y0097797D01*
X0153229Y0099372D01*
X0098898Y0099372D01*
X0097323Y0097797D01*
X0097323Y0087434D01*
X0097431Y0087326D01*
X0089931Y0087326D02*
X0089843Y0087237D01*
X0089843Y0083624D01*
X0088268Y0082049D01*
X0083544Y0082049D01*
X0082362Y0080868D01*
X0082362Y0077836D01*
X0078300Y0077593D02*
X0076687Y0077593D01*
X0077685Y0078591D02*
X0078300Y0078591D01*
X0078300Y0079206D02*
X0075321Y0076227D01*
X0069850Y0076227D01*
X0069850Y0074770D01*
X0068854Y0073774D01*
X0062328Y0073774D01*
X0061851Y0074251D01*
X0061713Y0074114D01*
X0061326Y0073890D01*
X0060893Y0073774D01*
X0058610Y0073774D01*
X0058610Y0077927D01*
X0057611Y0077927D01*
X0057611Y0073774D01*
X0055328Y0073774D01*
X0054895Y0073890D01*
X0054508Y0074114D01*
X0054191Y0074430D01*
X0053967Y0074818D01*
X0053851Y0075250D01*
X0053851Y0077927D01*
X0057610Y0077927D01*
X0057610Y0078927D01*
X0053851Y0078927D01*
X0053851Y0081603D01*
X0053967Y0082036D01*
X0054191Y0082423D01*
X0054508Y0082740D01*
X0054895Y0082964D01*
X0055328Y0083080D01*
X0057611Y0083080D01*
X0057611Y0078927D01*
X0058610Y0078927D01*
X0058610Y0083080D01*
X0060893Y0083080D01*
X0061326Y0082964D01*
X0061713Y0082740D01*
X0061851Y0082603D01*
X0062328Y0083080D01*
X0068854Y0083080D01*
X0069850Y0082084D01*
X0069850Y0080627D01*
X0073498Y0080627D01*
X0076247Y0083376D01*
X0073477Y0083376D01*
X0072481Y0084371D01*
X0072481Y0086650D01*
X0072464Y0086687D01*
X0072291Y0089714D01*
X0065047Y0096711D01*
X0064855Y0096514D01*
X0064855Y0096514D01*
X0062710Y0095911D01*
X0062710Y0095911D01*
X0060550Y0096461D01*
X0060550Y0096461D01*
X0060108Y0096893D01*
X0060107Y0096893D01*
X0059752Y0097240D01*
X0059397Y0097586D01*
X0059396Y0097587D01*
X0058143Y0098813D01*
X0058143Y0098813D01*
X0057787Y0099161D01*
X0056963Y0099966D01*
X0056963Y0099966D01*
X0056341Y0102185D01*
X0056341Y0102185D01*
X0056912Y0104417D01*
X0056912Y0104417D01*
X0057228Y0104741D01*
X0056437Y0105514D01*
X0038216Y0105514D01*
X0038216Y0103982D01*
X0038204Y0103971D01*
X0038216Y0103926D01*
X0038216Y0102915D01*
X0033662Y0102915D01*
X0033662Y0102915D01*
X0038216Y0102915D01*
X0038216Y0101904D01*
X0038100Y0101471D01*
X0037876Y0101084D01*
X0037560Y0100767D01*
X0037172Y0100543D01*
X0036740Y0100428D01*
X0033662Y0100428D01*
X0033662Y0102915D01*
X0042599Y0102915D01*
X0042992Y0102521D01*
X0042992Y0100159D01*
X0040630Y0097797D01*
X0037198Y0100558D02*
X0056797Y0100558D01*
X0056517Y0101557D02*
X0038123Y0101557D01*
X0038216Y0102555D02*
X0056436Y0102555D01*
X0056691Y0103554D02*
X0038216Y0103554D01*
X0038216Y0104552D02*
X0057044Y0104552D01*
X0064953Y0107548D02*
X0065926Y0107548D01*
X0065973Y0106549D02*
X0066925Y0106549D01*
X0066992Y0105551D02*
X0067923Y0105551D01*
X0068012Y0104552D02*
X0068922Y0104552D01*
X0069031Y0103554D02*
X0069920Y0103554D01*
X0070051Y0102555D02*
X0070919Y0102555D01*
X0071070Y0101557D02*
X0071917Y0101557D01*
X0072369Y0101105D02*
X0073072Y0100402D01*
X0073991Y0100021D01*
X0078689Y0100021D01*
X0078140Y0099794D01*
X0077216Y0098870D01*
X0076716Y0097663D01*
X0076716Y0096356D01*
X0076946Y0095802D01*
X0060012Y0112387D01*
X0059669Y0112730D01*
X0059657Y0112736D01*
X0059647Y0112745D01*
X0059198Y0112925D01*
X0058751Y0113111D01*
X0058737Y0113111D01*
X0058725Y0113116D01*
X0058240Y0113111D01*
X0039795Y0113111D01*
X0041307Y0114623D01*
X0042273Y0115023D01*
X0043089Y0115839D01*
X0043530Y0116905D01*
X0043530Y0128918D01*
X0046693Y0132081D01*
X0050508Y0132081D01*
X0051503Y0133077D01*
X0051503Y0133440D01*
X0056371Y0133440D01*
X0056371Y0133038D01*
X0057367Y0132042D01*
X0064029Y0132042D01*
X0064029Y0125875D01*
X0063469Y0125875D01*
X0062473Y0124879D01*
X0062473Y0117171D01*
X0063469Y0116176D01*
X0064429Y0116176D01*
X0064429Y0109583D01*
X0064810Y0108664D01*
X0072369Y0101105D01*
X0072089Y0100558D02*
X0072916Y0100558D01*
X0073109Y0099560D02*
X0077906Y0099560D01*
X0077088Y0098561D02*
X0074128Y0098561D01*
X0075148Y0097563D02*
X0076716Y0097563D01*
X0076716Y0096564D02*
X0076167Y0096564D01*
X0080000Y0097009D02*
X0080000Y0087394D01*
X0079931Y0087326D01*
X0082431Y0087326D01*
X0080000Y0087257D02*
X0079931Y0087326D01*
X0080000Y0087257D02*
X0080000Y0082836D01*
X0079607Y0082443D01*
X0078425Y0082443D01*
X0074410Y0078427D01*
X0065591Y0078427D01*
X0069850Y0075596D02*
X0078300Y0075596D01*
X0078300Y0074770D02*
X0079296Y0073774D01*
X0085429Y0073774D01*
X0086425Y0074770D01*
X0086425Y0079849D01*
X0086568Y0079849D01*
X0086568Y0074770D01*
X0087564Y0073774D01*
X0093697Y0073774D01*
X0094692Y0074770D01*
X0094692Y0075636D01*
X0104718Y0075636D01*
X0104718Y0074337D01*
X0105667Y0073387D01*
X0017133Y0073387D01*
X0017133Y0151340D01*
X0182986Y0151340D01*
X0180197Y0148552D01*
X0174296Y0148552D01*
X0173300Y0147556D01*
X0173300Y0147154D01*
X0173124Y0147154D01*
X0172058Y0146712D01*
X0171243Y0145896D01*
X0167842Y0142496D01*
X0167842Y0142496D01*
X0167842Y0143754D01*
X0163689Y0143754D01*
X0163689Y0144754D01*
X0162689Y0144754D01*
X0162689Y0148513D01*
X0160013Y0148513D01*
X0159580Y0148397D01*
X0159193Y0148173D01*
X0158876Y0147856D01*
X0158652Y0147469D01*
X0158536Y0147036D01*
X0158536Y0144754D01*
X0162689Y0144754D01*
X0162689Y0143754D01*
X0158536Y0143754D01*
X0158536Y0141471D01*
X0158652Y0141038D01*
X0158876Y0140651D01*
X0159013Y0140513D01*
X0158536Y0140036D01*
X0158536Y0133510D01*
X0159532Y0132514D01*
X0160565Y0132514D01*
X0160565Y0132449D01*
X0160296Y0131800D01*
X0159432Y0130936D01*
X0158990Y0129870D01*
X0158990Y0128532D01*
X0158824Y0128532D01*
X0157828Y0127536D01*
X0157828Y0126260D01*
X0157316Y0126772D01*
X0156613Y0127475D01*
X0155694Y0127856D01*
X0155396Y0127856D01*
X0154720Y0128532D01*
X0152513Y0128532D01*
X0152230Y0128650D01*
X0151077Y0128650D01*
X0150793Y0128532D01*
X0150341Y0128532D01*
X0150341Y0132829D01*
X0151098Y0132829D01*
X0152094Y0133825D01*
X0152094Y0140351D01*
X0151617Y0140828D01*
X0151754Y0140966D01*
X0151978Y0141353D01*
X0152094Y0141786D01*
X0152094Y0144069D01*
X0147941Y0144069D01*
X0147941Y0145068D01*
X0152094Y0145068D01*
X0152094Y0147351D01*
X0151978Y0147784D01*
X0151754Y0148171D01*
X0151438Y0148488D01*
X0151050Y0148712D01*
X0150618Y0148828D01*
X0147941Y0148828D01*
X0147941Y0145069D01*
X0146941Y0145069D01*
X0146941Y0148828D01*
X0144265Y0148828D01*
X0143832Y0148712D01*
X0143445Y0148488D01*
X0143128Y0148171D01*
X0142904Y0147784D01*
X0142788Y0147351D01*
X0142788Y0145068D01*
X0146941Y0145068D01*
X0146941Y0144069D01*
X0142788Y0144069D01*
X0142788Y0141786D01*
X0142904Y0141353D01*
X0143128Y0140966D01*
X0143265Y0140828D01*
X0142788Y0140351D01*
X0142788Y0133825D01*
X0143784Y0132829D01*
X0144541Y0132829D01*
X0144541Y0128413D01*
X0143323Y0128413D01*
X0143145Y0128591D01*
X0137800Y0128591D01*
X0137065Y0127856D01*
X0135802Y0127856D01*
X0134883Y0127475D01*
X0134180Y0126772D01*
X0133905Y0126497D01*
X0133905Y0127595D01*
X0132909Y0128591D01*
X0127564Y0128591D01*
X0126986Y0128013D01*
X0126511Y0128013D01*
X0125592Y0127633D01*
X0121891Y0123932D01*
X0121878Y0123919D01*
X0121110Y0123919D01*
X0121110Y0126352D01*
X0117351Y0126352D01*
X0117351Y0127352D01*
X0121110Y0127352D01*
X0121110Y0130029D01*
X0120994Y0130461D01*
X0120770Y0130849D01*
X0120454Y0131165D01*
X0120066Y0131389D01*
X0119634Y0131505D01*
X0117354Y0131505D01*
X0117733Y0131884D01*
X0117733Y0133762D01*
X0118351Y0133144D01*
X0125665Y0133144D01*
X0126661Y0134140D01*
X0126661Y0134306D01*
X0129678Y0134306D01*
X0129678Y0133943D01*
X0130674Y0132947D01*
X0137988Y0132947D01*
X0138984Y0133943D01*
X0138984Y0140470D01*
X0138507Y0140946D01*
X0138644Y0141084D01*
X0138868Y0141471D01*
X0138984Y0141904D01*
X0138984Y0144187D01*
X0134831Y0144187D01*
X0134831Y0145187D01*
X0133831Y0145187D01*
X0133831Y0148946D01*
X0131154Y0148946D01*
X0130722Y0148830D01*
X0130334Y0148606D01*
X0130018Y0148289D01*
X0129794Y0147902D01*
X0129678Y0147469D01*
X0129678Y0145187D01*
X0133831Y0145187D01*
X0133831Y0144187D01*
X0129678Y0144187D01*
X0129678Y0141904D01*
X0129794Y0141471D01*
X0130018Y0141084D01*
X0130155Y0140946D01*
X0129678Y0140470D01*
X0129678Y0140106D01*
X0126661Y0140106D01*
X0126661Y0140666D01*
X0126184Y0141143D01*
X0126321Y0141281D01*
X0126545Y0141668D01*
X0126661Y0142101D01*
X0126661Y0144383D01*
X0122508Y0144383D01*
X0122508Y0145383D01*
X0126661Y0145383D01*
X0126661Y0147666D01*
X0126545Y0148099D01*
X0126321Y0148486D01*
X0126005Y0148803D01*
X0125617Y0149027D01*
X0125185Y0149143D01*
X0122508Y0149143D01*
X0122508Y0145384D01*
X0121508Y0145384D01*
X0121508Y0149143D01*
X0118832Y0149143D01*
X0118399Y0149027D01*
X0118012Y0148803D01*
X0117695Y0148486D01*
X0117471Y0148099D01*
X0117355Y0147666D01*
X0117355Y0145383D01*
X0121508Y0145383D01*
X0121508Y0144383D01*
X0117355Y0144383D01*
X0117355Y0142101D01*
X0117471Y0141668D01*
X0117695Y0141281D01*
X0117832Y0141143D01*
X0117355Y0140666D01*
X0117355Y0139703D01*
X0115898Y0139703D01*
X0114481Y0138286D01*
X0113133Y0136939D01*
X0113133Y0136903D01*
X0109713Y0136903D01*
X0109713Y0137903D01*
X0113866Y0137903D01*
X0113866Y0140186D01*
X0113750Y0140618D01*
X0113526Y0141006D01*
X0113389Y0141143D01*
X0113866Y0141620D01*
X0113866Y0148147D01*
X0112870Y0149143D01*
X0107801Y0149143D01*
X0107588Y0149657D01*
X0106664Y0150581D01*
X0105457Y0151081D01*
X0104150Y0151081D01*
X0102943Y0150581D01*
X0102019Y0149657D01*
X0101519Y0148450D01*
X0101519Y0147144D01*
X0102019Y0145936D01*
X0102943Y0145013D01*
X0103871Y0144628D01*
X0104560Y0143939D01*
X0104560Y0141620D01*
X0105037Y0141143D01*
X0104900Y0141006D01*
X0104676Y0140618D01*
X0104560Y0140186D01*
X0104560Y0137903D01*
X0108713Y0137903D01*
X0108713Y0136903D01*
X0104560Y0136903D01*
X0104560Y0134620D01*
X0104633Y0134349D01*
X0098413Y0134349D01*
X0098413Y0137438D01*
X0097417Y0138433D01*
X0093843Y0138433D01*
X0092848Y0137438D01*
X0092848Y0131305D01*
X0093843Y0130309D01*
X0094629Y0130309D01*
X0094796Y0130143D01*
X0095186Y0129752D01*
X0091050Y0129752D01*
X0091050Y0134948D01*
X0090933Y0135231D01*
X0090933Y0137438D01*
X0089937Y0138433D01*
X0086363Y0138433D01*
X0085367Y0137438D01*
X0085367Y0135231D01*
X0085250Y0134948D01*
X0085250Y0129752D01*
X0069829Y0129752D01*
X0069829Y0131609D01*
X0074287Y0131609D01*
X0074764Y0132086D01*
X0075241Y0131609D01*
X0081767Y0131609D01*
X0082763Y0132604D01*
X0082763Y0138510D01*
X0095872Y0138510D01*
X0097161Y0139799D01*
X0097830Y0140468D01*
X0097830Y0140959D01*
X0098413Y0141542D01*
X0098413Y0147675D01*
X0097417Y0148670D01*
X0093843Y0148670D01*
X0093691Y0148519D01*
X0093629Y0148555D01*
X0093197Y0148670D01*
X0091931Y0148670D01*
X0091931Y0144650D01*
X0091849Y0144650D01*
X0091849Y0148670D01*
X0090584Y0148670D01*
X0090151Y0148555D01*
X0090089Y0148519D01*
X0089937Y0148670D01*
X0088346Y0148670D01*
X0088287Y0148730D01*
X0087903Y0149657D01*
X0086979Y0150581D01*
X0085772Y0151081D01*
X0084465Y0151081D01*
X0083258Y0150581D01*
X0082334Y0149657D01*
X0081834Y0148450D01*
X0081834Y0147883D01*
X0075753Y0147883D01*
X0074757Y0146887D01*
X0074757Y0143947D01*
X0074614Y0144090D01*
X0074614Y0146887D01*
X0073618Y0147883D01*
X0067485Y0147883D01*
X0066489Y0146887D01*
X0066489Y0140754D01*
X0067045Y0140198D01*
X0066765Y0139918D01*
X0066765Y0139201D01*
X0065677Y0139201D01*
X0065677Y0139564D01*
X0065200Y0140041D01*
X0065337Y0140178D01*
X0065561Y0140566D01*
X0065677Y0140998D01*
X0065677Y0143281D01*
X0061524Y0143281D01*
X0061524Y0144281D01*
X0065677Y0144281D01*
X0065677Y0146564D01*
X0065561Y0146996D01*
X0065337Y0147384D01*
X0065020Y0147700D01*
X0064633Y0147924D01*
X0064200Y0148040D01*
X0061524Y0148040D01*
X0061524Y0144281D01*
X0060524Y0144281D01*
X0060524Y0143281D01*
X0056371Y0143281D01*
X0056371Y0140998D01*
X0056487Y0140566D01*
X0056711Y0140178D01*
X0056848Y0140041D01*
X0056371Y0139564D01*
X0056371Y0139240D01*
X0051503Y0139240D01*
X0051503Y0139603D01*
X0051026Y0140080D01*
X0051164Y0140218D01*
X0051388Y0140605D01*
X0051503Y0141038D01*
X0051503Y0143320D01*
X0047351Y0143320D01*
X0047351Y0144320D01*
X0051503Y0144320D01*
X0051503Y0146603D01*
X0051388Y0147036D01*
X0051164Y0147423D01*
X0050847Y0147740D01*
X0050460Y0147964D01*
X0050027Y0148080D01*
X0047351Y0148080D01*
X0047351Y0144321D01*
X0046351Y0144321D01*
X0046351Y0148080D01*
X0043674Y0148080D01*
X0043242Y0147964D01*
X0042854Y0147740D01*
X0042538Y0147423D01*
X0042314Y0147036D01*
X0042198Y0146603D01*
X0042198Y0144320D01*
X0046351Y0144320D01*
X0046351Y0143320D01*
X0042198Y0143320D01*
X0042198Y0141038D01*
X0042314Y0140605D01*
X0042538Y0140218D01*
X0042675Y0140080D01*
X0042198Y0139603D01*
X0042198Y0135789D01*
X0038172Y0131762D01*
X0037730Y0130697D01*
X0037730Y0118117D01*
X0035264Y0115651D01*
X0033164Y0115651D01*
X0033134Y0115639D01*
X0030103Y0115639D01*
X0029107Y0114643D01*
X0029107Y0103982D01*
X0029119Y0103971D01*
X0029107Y0103926D01*
X0029107Y0102915D01*
X0033662Y0102915D01*
X0033662Y0102915D01*
X0033662Y0100428D01*
X0030584Y0100428D01*
X0030151Y0100543D01*
X0029764Y0100767D01*
X0029447Y0101084D01*
X0029223Y0101471D01*
X0029107Y0101904D01*
X0029107Y0102915D01*
X0033662Y0102915D01*
X0033662Y0102915D01*
X0033662Y0102555D02*
X0033662Y0102555D01*
X0033662Y0101557D02*
X0033662Y0101557D01*
X0033662Y0100558D02*
X0033662Y0100558D01*
X0030125Y0100558D02*
X0017133Y0100558D01*
X0017133Y0099560D02*
X0057378Y0099560D01*
X0058400Y0098561D02*
X0026700Y0098561D01*
X0026542Y0098653D02*
X0026110Y0098768D01*
X0023433Y0098768D01*
X0023433Y0094025D01*
X0022433Y0094025D01*
X0022433Y0093025D01*
X0018281Y0093025D01*
X0018281Y0089758D01*
X0018396Y0089326D01*
X0018620Y0088938D01*
X0018937Y0088622D01*
X0019324Y0088398D01*
X0019757Y0088282D01*
X0022433Y0088282D01*
X0022433Y0093025D01*
X0023433Y0093025D01*
X0023433Y0088282D01*
X0026110Y0088282D01*
X0026542Y0088398D01*
X0026930Y0088622D01*
X0027246Y0088938D01*
X0027470Y0089326D01*
X0027586Y0089758D01*
X0027586Y0093025D01*
X0023433Y0093025D01*
X0023433Y0094025D01*
X0027586Y0094025D01*
X0027586Y0097292D01*
X0027470Y0097725D01*
X0027246Y0098112D01*
X0026930Y0098429D01*
X0026542Y0098653D01*
X0027514Y0097563D02*
X0059421Y0097563D01*
X0060444Y0096564D02*
X0027586Y0096564D01*
X0027586Y0095566D02*
X0066232Y0095566D01*
X0065199Y0096564D02*
X0064904Y0096564D01*
X0067266Y0094567D02*
X0027586Y0094567D01*
X0023433Y0094567D02*
X0022433Y0094567D01*
X0022433Y0094025D02*
X0022433Y0098768D01*
X0019757Y0098768D01*
X0019324Y0098653D01*
X0018937Y0098429D01*
X0018620Y0098112D01*
X0018396Y0097725D01*
X0018281Y0097292D01*
X0018281Y0094025D01*
X0022433Y0094025D01*
X0022433Y0093569D02*
X0017133Y0093569D01*
X0017133Y0094567D02*
X0018281Y0094567D01*
X0018281Y0095566D02*
X0017133Y0095566D01*
X0017133Y0096564D02*
X0018281Y0096564D01*
X0018353Y0097563D02*
X0017133Y0097563D01*
X0017133Y0098561D02*
X0019166Y0098561D01*
X0022433Y0098561D02*
X0023433Y0098561D01*
X0023433Y0097563D02*
X0022433Y0097563D01*
X0022433Y0096564D02*
X0023433Y0096564D01*
X0023433Y0095566D02*
X0022433Y0095566D01*
X0023433Y0093569D02*
X0068300Y0093569D01*
X0069334Y0092570D02*
X0027586Y0092570D01*
X0027586Y0091572D02*
X0070368Y0091572D01*
X0071401Y0090573D02*
X0027586Y0090573D01*
X0027537Y0089575D02*
X0072299Y0089575D01*
X0072356Y0088576D02*
X0026851Y0088576D01*
X0023433Y0088576D02*
X0022433Y0088576D01*
X0022433Y0089575D02*
X0023433Y0089575D01*
X0023433Y0090573D02*
X0022433Y0090573D01*
X0022433Y0091572D02*
X0023433Y0091572D01*
X0023433Y0092570D02*
X0022433Y0092570D01*
X0018281Y0092570D02*
X0017133Y0092570D01*
X0017133Y0091572D02*
X0018281Y0091572D01*
X0018281Y0090573D02*
X0017133Y0090573D01*
X0017133Y0089575D02*
X0018330Y0089575D01*
X0019015Y0088576D02*
X0017133Y0088576D01*
X0017133Y0087578D02*
X0072413Y0087578D01*
X0072481Y0086579D02*
X0017133Y0086579D01*
X0017133Y0085581D02*
X0072481Y0085581D01*
X0072481Y0084582D02*
X0017133Y0084582D01*
X0017133Y0083584D02*
X0073269Y0083584D01*
X0075457Y0082585D02*
X0069348Y0082585D01*
X0069850Y0081587D02*
X0074458Y0081587D01*
X0078300Y0079206D02*
X0078300Y0074770D01*
X0078473Y0074597D02*
X0069677Y0074597D01*
X0075688Y0076594D02*
X0078300Y0076594D01*
X0086425Y0076594D02*
X0086568Y0076594D01*
X0086568Y0075596D02*
X0086425Y0075596D01*
X0086252Y0074597D02*
X0086741Y0074597D01*
X0094520Y0074597D02*
X0104718Y0074597D01*
X0104718Y0075596D02*
X0094692Y0075596D01*
X0090630Y0077836D02*
X0108819Y0077836D01*
X0108977Y0077994D01*
X0116457Y0077994D02*
X0116457Y0090080D01*
X0113071Y0093466D01*
X0102441Y0093466D01*
X0104886Y0095666D02*
X0104302Y0096250D01*
X0103094Y0096750D01*
X0101788Y0096750D01*
X0100581Y0096250D01*
X0099657Y0095327D01*
X0099523Y0095003D01*
X0099523Y0096886D01*
X0099809Y0097172D01*
X0152317Y0097172D01*
X0153530Y0095959D01*
X0153362Y0095554D01*
X0153239Y0095625D01*
X0152807Y0095741D01*
X0149833Y0095741D01*
X0149833Y0092791D01*
X0149333Y0092791D01*
X0149333Y0095741D01*
X0146359Y0095741D01*
X0145927Y0095625D01*
X0145539Y0095401D01*
X0145223Y0095085D01*
X0144999Y0094697D01*
X0144883Y0094265D01*
X0144883Y0092791D01*
X0149333Y0092791D01*
X0149333Y0092291D01*
X0149833Y0092291D01*
X0149833Y0089341D01*
X0152807Y0089341D01*
X0153239Y0089457D01*
X0153627Y0089681D01*
X0153943Y0089997D01*
X0154167Y0090385D01*
X0154178Y0090426D01*
X0154178Y0086582D01*
X0152327Y0084731D01*
X0151468Y0085087D01*
X0149320Y0085087D01*
X0147335Y0084265D01*
X0145816Y0082745D01*
X0145187Y0081226D01*
X0144972Y0081745D01*
X0143453Y0083265D01*
X0141468Y0084087D01*
X0139320Y0084087D01*
X0137335Y0083265D01*
X0135816Y0081745D01*
X0135601Y0081226D01*
X0134972Y0082745D01*
X0133453Y0084265D01*
X0131468Y0085087D01*
X0129320Y0085087D01*
X0127335Y0084265D01*
X0125816Y0082745D01*
X0124994Y0080761D01*
X0124994Y0078612D01*
X0125816Y0076628D01*
X0127335Y0075109D01*
X0129320Y0074287D01*
X0131468Y0074287D01*
X0133453Y0075109D01*
X0134972Y0076628D01*
X0135187Y0077147D01*
X0135816Y0075628D01*
X0137335Y0074109D01*
X0139077Y0073387D01*
X0119767Y0073387D01*
X0120716Y0074337D01*
X0120716Y0081651D01*
X0119720Y0082646D01*
X0118657Y0082646D01*
X0118657Y0090992D01*
X0115271Y0094377D01*
X0113982Y0095666D01*
X0104886Y0095666D01*
X0103544Y0096564D02*
X0152925Y0096564D01*
X0153342Y0095566D02*
X0153367Y0095566D01*
X0156378Y0094254D02*
X0156378Y0085671D01*
X0150394Y0079687D01*
X0145336Y0081587D02*
X0145038Y0081587D01*
X0145750Y0082585D02*
X0144132Y0082585D01*
X0142682Y0083584D02*
X0146654Y0083584D01*
X0148102Y0084582D02*
X0132686Y0084582D01*
X0134134Y0083584D02*
X0138106Y0083584D01*
X0136656Y0082585D02*
X0135038Y0082585D01*
X0135452Y0081587D02*
X0135750Y0081587D01*
X0128102Y0084582D02*
X0118657Y0084582D01*
X0118657Y0083584D02*
X0126654Y0083584D01*
X0125750Y0082585D02*
X0119781Y0082585D01*
X0120716Y0081587D02*
X0125336Y0081587D01*
X0124994Y0080588D02*
X0120716Y0080588D01*
X0120716Y0079590D02*
X0124994Y0079590D01*
X0125003Y0078591D02*
X0120716Y0078591D01*
X0120716Y0077593D02*
X0125416Y0077593D01*
X0125850Y0076594D02*
X0120716Y0076594D01*
X0120716Y0075596D02*
X0126848Y0075596D01*
X0128570Y0074597D02*
X0120716Y0074597D01*
X0119978Y0073599D02*
X0138567Y0073599D01*
X0136847Y0074597D02*
X0132217Y0074597D01*
X0133940Y0075596D02*
X0135848Y0075596D01*
X0135416Y0076594D02*
X0134938Y0076594D01*
X0118657Y0085581D02*
X0153177Y0085581D01*
X0154175Y0086579D02*
X0118657Y0086579D01*
X0118657Y0087578D02*
X0154178Y0087578D01*
X0154178Y0088576D02*
X0118657Y0088576D01*
X0118657Y0089575D02*
X0123645Y0089575D01*
X0123879Y0089341D02*
X0122883Y0090337D01*
X0122883Y0094745D01*
X0123879Y0095741D01*
X0131287Y0095741D01*
X0132283Y0094745D01*
X0132283Y0090337D01*
X0131287Y0089341D01*
X0123879Y0089341D01*
X0122883Y0090573D02*
X0118657Y0090573D01*
X0118077Y0091572D02*
X0122883Y0091572D01*
X0122883Y0092570D02*
X0117078Y0092570D01*
X0116080Y0093569D02*
X0122883Y0093569D01*
X0122883Y0094567D02*
X0115081Y0094567D01*
X0114083Y0095566D02*
X0123704Y0095566D01*
X0131462Y0095566D02*
X0145824Y0095566D01*
X0144964Y0094567D02*
X0132283Y0094567D01*
X0132283Y0093569D02*
X0144883Y0093569D01*
X0144883Y0092291D02*
X0144883Y0090817D01*
X0144999Y0090385D01*
X0145223Y0089997D01*
X0145539Y0089681D01*
X0145927Y0089457D01*
X0146359Y0089341D01*
X0149333Y0089341D01*
X0149333Y0092291D01*
X0144883Y0092291D01*
X0144883Y0091572D02*
X0132283Y0091572D01*
X0132283Y0092570D02*
X0149333Y0092570D01*
X0149333Y0091572D02*
X0149833Y0091572D01*
X0149833Y0090573D02*
X0149333Y0090573D01*
X0149333Y0089575D02*
X0149833Y0089575D01*
X0153443Y0089575D02*
X0154178Y0089575D01*
X0149833Y0093569D02*
X0149333Y0093569D01*
X0149333Y0094567D02*
X0149833Y0094567D01*
X0149833Y0095566D02*
X0149333Y0095566D01*
X0144948Y0090573D02*
X0132283Y0090573D01*
X0131521Y0089575D02*
X0145723Y0089575D01*
X0160315Y0091498D02*
X0160315Y0078765D01*
X0160394Y0078687D01*
X0170394Y0079687D02*
X0171339Y0080631D01*
X0171339Y0087561D01*
X0174488Y0089923D01*
X0174488Y0095435D01*
X0168977Y0094647D02*
X0163465Y0094647D01*
X0160315Y0091498D01*
X0155591Y0100159D02*
X0154016Y0101734D01*
X0091811Y0101734D01*
X0090236Y0103309D01*
X0090236Y0108120D01*
X0089931Y0108426D01*
X0092431Y0108426D02*
X0092431Y0111350D01*
X0089449Y0114332D01*
X0086393Y0115536D02*
X0073685Y0115536D01*
X0073194Y0115045D02*
X0076187Y0118038D01*
X0078300Y0118038D01*
X0078300Y0117762D01*
X0079296Y0116766D01*
X0085429Y0116766D01*
X0086425Y0117762D01*
X0086425Y0123895D01*
X0086367Y0123952D01*
X0086625Y0123952D01*
X0086568Y0123895D01*
X0086568Y0117762D01*
X0087401Y0116929D01*
X0086665Y0116193D01*
X0086165Y0114986D01*
X0086165Y0113679D01*
X0086665Y0112472D01*
X0086761Y0112376D01*
X0085977Y0112376D01*
X0085962Y0112360D01*
X0085905Y0112376D01*
X0084931Y0112376D01*
X0083958Y0112376D01*
X0083901Y0112360D01*
X0083886Y0112376D01*
X0078477Y0112376D01*
X0078462Y0112360D01*
X0078405Y0112376D01*
X0077431Y0112376D01*
X0076458Y0112376D01*
X0076401Y0112360D01*
X0076386Y0112376D01*
X0073477Y0112376D01*
X0073194Y0112093D01*
X0073194Y0115045D01*
X0073194Y0114537D02*
X0086165Y0114537D01*
X0086223Y0113539D02*
X0073194Y0113539D01*
X0073194Y0112540D02*
X0086636Y0112540D01*
X0084931Y0112376D02*
X0084931Y0108426D01*
X0084931Y0112376D01*
X0084931Y0111542D02*
X0084931Y0111542D01*
X0084931Y0110543D02*
X0084931Y0110543D01*
X0084931Y0109545D02*
X0084931Y0109545D01*
X0084931Y0108546D02*
X0084931Y0108546D01*
X0084931Y0108426D02*
X0084931Y0108426D01*
X0084931Y0108425D02*
X0084931Y0108425D01*
X0084931Y0104476D01*
X0083958Y0104476D01*
X0083901Y0104491D01*
X0083886Y0104476D01*
X0082763Y0104476D01*
X0086534Y0100704D01*
X0086848Y0100391D01*
X0090043Y0100391D01*
X0089325Y0101109D01*
X0088036Y0102397D01*
X0088036Y0104476D01*
X0085977Y0104476D01*
X0085962Y0104491D01*
X0085905Y0104476D01*
X0084931Y0104476D01*
X0084931Y0108425D01*
X0084931Y0107548D02*
X0084931Y0107548D01*
X0084931Y0106549D02*
X0084931Y0106549D01*
X0084931Y0105551D02*
X0084931Y0105551D01*
X0084931Y0104552D02*
X0084931Y0104552D01*
X0083684Y0103554D02*
X0088036Y0103554D01*
X0088036Y0102555D02*
X0084683Y0102555D01*
X0085681Y0101557D02*
X0088877Y0101557D01*
X0089876Y0100558D02*
X0086680Y0100558D01*
X0085512Y0098191D02*
X0085118Y0093072D01*
X0087618Y0093569D02*
X0095123Y0093569D01*
X0095123Y0094567D02*
X0087618Y0094567D01*
X0087618Y0095566D02*
X0090973Y0095566D01*
X0091132Y0095406D02*
X0092339Y0094906D01*
X0093646Y0094906D01*
X0094853Y0095406D01*
X0095123Y0095677D01*
X0095123Y0091276D01*
X0093477Y0091276D01*
X0088477Y0091276D01*
X0088462Y0091260D01*
X0088405Y0091276D01*
X0087618Y0091276D01*
X0087618Y0095991D01*
X0090548Y0095991D01*
X0091132Y0095406D01*
X0095012Y0095566D02*
X0095123Y0095566D01*
X0099523Y0095566D02*
X0099896Y0095566D01*
X0099523Y0096564D02*
X0101339Y0096564D01*
X0092992Y0098191D02*
X0085512Y0098191D01*
X0087618Y0092570D02*
X0095123Y0092570D01*
X0095123Y0091572D02*
X0087618Y0091572D01*
X0058610Y0082585D02*
X0057611Y0082585D01*
X0057611Y0081587D02*
X0058610Y0081587D01*
X0058610Y0080588D02*
X0057611Y0080588D01*
X0057611Y0079590D02*
X0058610Y0079590D01*
X0057610Y0078591D02*
X0017133Y0078591D01*
X0017133Y0077593D02*
X0053851Y0077593D01*
X0053851Y0076594D02*
X0017133Y0076594D01*
X0017133Y0075596D02*
X0053851Y0075596D01*
X0054095Y0074597D02*
X0017133Y0074597D01*
X0017133Y0073599D02*
X0105456Y0073599D01*
X0086568Y0077593D02*
X0086425Y0077593D01*
X0086425Y0078591D02*
X0086568Y0078591D01*
X0086568Y0079590D02*
X0086425Y0079590D01*
X0058610Y0077593D02*
X0057611Y0077593D01*
X0057611Y0076594D02*
X0058610Y0076594D01*
X0058610Y0075596D02*
X0057611Y0075596D01*
X0057611Y0074597D02*
X0058610Y0074597D01*
X0053851Y0079590D02*
X0017133Y0079590D01*
X0017133Y0080588D02*
X0053851Y0080588D01*
X0053851Y0081587D02*
X0017133Y0081587D01*
X0017133Y0082585D02*
X0054353Y0082585D01*
X0029200Y0101557D02*
X0026593Y0101557D01*
X0026542Y0101528D02*
X0026930Y0101751D01*
X0027246Y0102068D01*
X0027470Y0102456D01*
X0027586Y0102888D01*
X0027586Y0107533D01*
X0023433Y0107533D01*
X0023433Y0101412D01*
X0026110Y0101412D01*
X0026542Y0101528D01*
X0027497Y0102555D02*
X0029107Y0102555D01*
X0029107Y0103554D02*
X0027586Y0103554D01*
X0027586Y0104552D02*
X0029107Y0104552D01*
X0029107Y0105551D02*
X0027586Y0105551D01*
X0027586Y0106549D02*
X0029107Y0106549D01*
X0029107Y0107548D02*
X0023433Y0107548D01*
X0023433Y0107533D02*
X0023433Y0108533D01*
X0022433Y0108533D01*
X0022433Y0107533D01*
X0018281Y0107533D01*
X0018281Y0102888D01*
X0018396Y0102456D01*
X0018620Y0102068D01*
X0018937Y0101751D01*
X0019324Y0101528D01*
X0019757Y0101412D01*
X0022433Y0101412D01*
X0022433Y0107533D01*
X0023433Y0107533D01*
X0023433Y0106549D02*
X0022433Y0106549D01*
X0022433Y0105551D02*
X0023433Y0105551D01*
X0023433Y0104552D02*
X0022433Y0104552D01*
X0022433Y0103554D02*
X0023433Y0103554D01*
X0023433Y0102555D02*
X0022433Y0102555D01*
X0022433Y0101557D02*
X0023433Y0101557D01*
X0019274Y0101557D02*
X0017133Y0101557D01*
X0017133Y0102555D02*
X0018370Y0102555D01*
X0018281Y0103554D02*
X0017133Y0103554D01*
X0017133Y0104552D02*
X0018281Y0104552D01*
X0018281Y0105551D02*
X0017133Y0105551D01*
X0017133Y0106549D02*
X0018281Y0106549D01*
X0017133Y0107548D02*
X0022433Y0107548D01*
X0022433Y0108533D02*
X0018281Y0108533D01*
X0018281Y0113178D01*
X0018396Y0113611D01*
X0018620Y0113998D01*
X0018937Y0114315D01*
X0019324Y0114538D01*
X0019757Y0114654D01*
X0022433Y0114654D01*
X0022433Y0108533D01*
X0022433Y0108546D02*
X0023433Y0108546D01*
X0023433Y0108533D02*
X0023433Y0114654D01*
X0026110Y0114654D01*
X0026542Y0114538D01*
X0026930Y0114315D01*
X0027246Y0113998D01*
X0027470Y0113611D01*
X0027586Y0113178D01*
X0027586Y0108533D01*
X0023433Y0108533D01*
X0023433Y0109545D02*
X0022433Y0109545D01*
X0022433Y0110543D02*
X0023433Y0110543D01*
X0023433Y0111542D02*
X0022433Y0111542D01*
X0022433Y0112540D02*
X0023433Y0112540D01*
X0023433Y0113539D02*
X0022433Y0113539D01*
X0022433Y0114537D02*
X0023433Y0114537D01*
X0023433Y0117298D02*
X0026110Y0117298D01*
X0026542Y0117413D01*
X0026930Y0117637D01*
X0027246Y0117954D01*
X0027470Y0118341D01*
X0027586Y0118774D01*
X0027586Y0122041D01*
X0023433Y0122041D01*
X0023433Y0117298D01*
X0023433Y0117533D02*
X0022433Y0117533D01*
X0022433Y0117298D02*
X0019757Y0117298D01*
X0019324Y0117413D01*
X0018937Y0117637D01*
X0018620Y0117954D01*
X0018396Y0118341D01*
X0018281Y0118774D01*
X0018281Y0122041D01*
X0022433Y0122041D01*
X0022433Y0123041D01*
X0018281Y0123041D01*
X0018281Y0126308D01*
X0018396Y0126740D01*
X0018620Y0127128D01*
X0018937Y0127445D01*
X0019324Y0127668D01*
X0019757Y0127784D01*
X0022433Y0127784D01*
X0022433Y0123041D01*
X0023433Y0123041D01*
X0023433Y0127784D01*
X0026110Y0127784D01*
X0026542Y0127668D01*
X0026930Y0127445D01*
X0027246Y0127128D01*
X0027470Y0126740D01*
X0027586Y0126308D01*
X0027586Y0123041D01*
X0023433Y0123041D01*
X0023433Y0122041D01*
X0022433Y0122041D01*
X0022433Y0117298D01*
X0022433Y0118532D02*
X0023433Y0118532D01*
X0023433Y0119530D02*
X0022433Y0119530D01*
X0022433Y0120529D02*
X0023433Y0120529D01*
X0023433Y0121527D02*
X0022433Y0121527D01*
X0022433Y0122526D02*
X0017133Y0122526D01*
X0017133Y0123524D02*
X0018281Y0123524D01*
X0018281Y0124523D02*
X0017133Y0124523D01*
X0017133Y0125521D02*
X0018281Y0125521D01*
X0018337Y0126520D02*
X0017133Y0126520D01*
X0017133Y0127518D02*
X0019064Y0127518D01*
X0017133Y0128517D02*
X0037730Y0128517D01*
X0037730Y0129515D02*
X0017133Y0129515D01*
X0017133Y0130514D02*
X0037730Y0130514D01*
X0038068Y0131512D02*
X0017133Y0131512D01*
X0017133Y0132511D02*
X0038920Y0132511D01*
X0039918Y0133509D02*
X0017133Y0133509D01*
X0017133Y0134508D02*
X0040917Y0134508D01*
X0041915Y0135506D02*
X0017133Y0135506D01*
X0017133Y0136505D02*
X0042198Y0136505D01*
X0042198Y0137503D02*
X0017133Y0137503D01*
X0017133Y0138502D02*
X0042198Y0138502D01*
X0042198Y0139500D02*
X0017133Y0139500D01*
X0017133Y0140499D02*
X0042375Y0140499D01*
X0042198Y0141497D02*
X0017133Y0141497D01*
X0017133Y0142496D02*
X0042198Y0142496D01*
X0042198Y0144493D02*
X0017133Y0144493D01*
X0017133Y0145491D02*
X0042198Y0145491D01*
X0042198Y0146490D02*
X0017133Y0146490D01*
X0017133Y0147488D02*
X0042603Y0147488D01*
X0046351Y0147488D02*
X0047351Y0147488D01*
X0047351Y0146490D02*
X0046351Y0146490D01*
X0046351Y0145491D02*
X0047351Y0145491D01*
X0047351Y0144493D02*
X0046351Y0144493D01*
X0046351Y0143494D02*
X0017133Y0143494D01*
X0017133Y0148487D02*
X0081849Y0148487D01*
X0082263Y0149485D02*
X0017133Y0149485D01*
X0017133Y0150484D02*
X0083161Y0150484D01*
X0087076Y0150484D02*
X0102846Y0150484D01*
X0101948Y0149485D02*
X0087974Y0149485D01*
X0091849Y0148487D02*
X0091931Y0148487D01*
X0091811Y0148191D02*
X0092599Y0148978D01*
X0098110Y0148978D01*
X0102048Y0145041D01*
X0102048Y0137954D01*
X0102599Y0137403D01*
X0109213Y0137403D01*
X0109713Y0137503D02*
X0113698Y0137503D01*
X0113866Y0138502D02*
X0114697Y0138502D01*
X0113866Y0139500D02*
X0115695Y0139500D01*
X0117355Y0140499D02*
X0113782Y0140499D01*
X0113743Y0141497D02*
X0117570Y0141497D01*
X0117355Y0142496D02*
X0113866Y0142496D01*
X0113866Y0143494D02*
X0117355Y0143494D01*
X0113866Y0144493D02*
X0121508Y0144493D01*
X0121508Y0145491D02*
X0122508Y0145491D01*
X0122508Y0144493D02*
X0133831Y0144493D01*
X0133831Y0145491D02*
X0134831Y0145491D01*
X0134831Y0145187D02*
X0134831Y0148946D01*
X0137508Y0148946D01*
X0137940Y0148830D01*
X0138328Y0148606D01*
X0138644Y0148289D01*
X0138868Y0147902D01*
X0138984Y0147469D01*
X0138984Y0145187D01*
X0134831Y0145187D01*
X0134831Y0144493D02*
X0146941Y0144493D01*
X0146941Y0145491D02*
X0147941Y0145491D01*
X0147941Y0144493D02*
X0162689Y0144493D01*
X0162689Y0145491D02*
X0163689Y0145491D01*
X0163689Y0144754D02*
X0163689Y0148513D01*
X0166366Y0148513D01*
X0166798Y0148397D01*
X0167186Y0148173D01*
X0167502Y0147856D01*
X0167726Y0147469D01*
X0167842Y0147036D01*
X0167842Y0144754D01*
X0163689Y0144754D01*
X0163689Y0144493D02*
X0169839Y0144493D01*
X0170838Y0145491D02*
X0167842Y0145491D01*
X0167842Y0146490D02*
X0171836Y0146490D01*
X0173300Y0147488D02*
X0167715Y0147488D01*
X0166462Y0148487D02*
X0174231Y0148487D01*
X0181131Y0149485D02*
X0107659Y0149485D01*
X0106761Y0150484D02*
X0182129Y0150484D01*
X0186713Y0146865D02*
X0187631Y0146865D01*
X0187631Y0144754D01*
X0191784Y0144754D01*
X0191784Y0143754D01*
X0187631Y0143754D01*
X0187631Y0141471D01*
X0187747Y0141038D01*
X0187971Y0140651D01*
X0188108Y0140513D01*
X0187631Y0140036D01*
X0187631Y0133510D01*
X0187913Y0133228D01*
X0184889Y0133228D01*
X0183893Y0132232D01*
X0183893Y0131228D01*
X0182761Y0131228D01*
X0180664Y0129131D01*
X0172396Y0129131D01*
X0170331Y0127065D01*
X0169504Y0127065D01*
X0168814Y0126780D01*
X0168814Y0127594D01*
X0174035Y0132815D01*
X0174296Y0132554D01*
X0181610Y0132554D01*
X0182606Y0133549D01*
X0182606Y0140076D01*
X0182129Y0140553D01*
X0182606Y0141030D01*
X0182606Y0142758D01*
X0182749Y0142901D01*
X0183061Y0143143D01*
X0183153Y0143306D01*
X0186713Y0146865D01*
X0186338Y0146490D02*
X0187631Y0146490D01*
X0187631Y0145491D02*
X0185339Y0145491D01*
X0184341Y0144493D02*
X0191784Y0144493D01*
X0187631Y0143494D02*
X0183342Y0143494D01*
X0182606Y0142496D02*
X0187631Y0142496D01*
X0187631Y0141497D02*
X0182606Y0141497D01*
X0182183Y0140499D02*
X0188093Y0140499D01*
X0187631Y0139500D02*
X0182606Y0139500D01*
X0182606Y0138502D02*
X0187631Y0138502D01*
X0187631Y0137503D02*
X0182606Y0137503D01*
X0182606Y0136505D02*
X0187631Y0136505D01*
X0187631Y0135506D02*
X0182606Y0135506D01*
X0182606Y0134508D02*
X0187631Y0134508D01*
X0187632Y0133509D02*
X0182566Y0133509D01*
X0184172Y0132511D02*
X0173731Y0132511D01*
X0172732Y0131512D02*
X0183893Y0131512D01*
X0182047Y0130514D02*
X0171734Y0130514D01*
X0170735Y0129515D02*
X0181048Y0129515D01*
X0181575Y0126931D02*
X0183672Y0129028D01*
X0186693Y0129028D01*
X0181575Y0126931D02*
X0173307Y0126931D01*
X0170158Y0123781D01*
X0170783Y0127518D02*
X0168814Y0127518D01*
X0169737Y0128517D02*
X0171782Y0128517D01*
X0166614Y0128506D02*
X0166614Y0112757D01*
X0161890Y0112757D01*
X0160315Y0111183D01*
X0160315Y0107994D01*
X0160551Y0107757D01*
X0160335Y0107541D01*
X0149583Y0107541D01*
X0144883Y0107548D02*
X0138993Y0107548D01*
X0138993Y0107341D02*
X0138993Y0108726D01*
X0138463Y0110005D01*
X0138412Y0110056D01*
X0138412Y0114024D01*
X0139430Y0113006D01*
X0139814Y0112078D01*
X0140738Y0111154D01*
X0141945Y0110654D01*
X0143252Y0110654D01*
X0144459Y0111154D01*
X0145383Y0112078D01*
X0145883Y0113285D01*
X0145883Y0114592D01*
X0145383Y0115799D01*
X0144459Y0116723D01*
X0144141Y0116854D01*
X0144141Y0122613D01*
X0147591Y0122613D01*
X0147591Y0122051D01*
X0151612Y0122051D01*
X0151612Y0121968D01*
X0147591Y0121968D01*
X0147591Y0120703D01*
X0147707Y0120271D01*
X0147743Y0120208D01*
X0147591Y0120056D01*
X0147591Y0116482D01*
X0148587Y0115487D01*
X0154720Y0115487D01*
X0155002Y0115769D01*
X0155301Y0115769D01*
X0156220Y0116150D01*
X0157828Y0117759D01*
X0157828Y0116482D01*
X0158824Y0115487D01*
X0164414Y0115487D01*
X0164414Y0114957D01*
X0162801Y0114957D01*
X0160979Y0114957D01*
X0159404Y0113383D01*
X0158432Y0112410D01*
X0157288Y0112410D01*
X0156292Y0111414D01*
X0156292Y0109741D01*
X0154283Y0109741D01*
X0154283Y0109745D01*
X0153287Y0110741D01*
X0145879Y0110741D01*
X0144883Y0109745D01*
X0144883Y0106296D01*
X0138560Y0106296D01*
X0138993Y0107341D01*
X0138665Y0106549D02*
X0144883Y0106549D01*
X0144883Y0108546D02*
X0138993Y0108546D01*
X0138654Y0109545D02*
X0144883Y0109545D01*
X0145681Y0110543D02*
X0138412Y0110543D01*
X0138412Y0111542D02*
X0140351Y0111542D01*
X0139623Y0112540D02*
X0138412Y0112540D01*
X0138412Y0113539D02*
X0138897Y0113539D01*
X0144847Y0111542D02*
X0156420Y0111542D01*
X0156292Y0110543D02*
X0153485Y0110543D01*
X0158562Y0112540D02*
X0145574Y0112540D01*
X0145883Y0113539D02*
X0159560Y0113539D01*
X0160559Y0114537D02*
X0145883Y0114537D01*
X0145492Y0115536D02*
X0148538Y0115536D01*
X0147591Y0116534D02*
X0144647Y0116534D01*
X0144141Y0117533D02*
X0147591Y0117533D01*
X0147591Y0118532D02*
X0144141Y0118532D01*
X0144141Y0119530D02*
X0147591Y0119530D01*
X0147638Y0120529D02*
X0144141Y0120529D01*
X0144141Y0121527D02*
X0147591Y0121527D01*
X0147591Y0122526D02*
X0144141Y0122526D01*
X0133928Y0126520D02*
X0133905Y0126520D01*
X0133905Y0127518D02*
X0134987Y0127518D01*
X0132984Y0128517D02*
X0137725Y0128517D01*
X0143220Y0128517D02*
X0144541Y0128517D01*
X0144541Y0129515D02*
X0121110Y0129515D01*
X0121110Y0128517D02*
X0127489Y0128517D01*
X0125477Y0127518D02*
X0121110Y0127518D01*
X0121110Y0125521D02*
X0123480Y0125521D01*
X0122482Y0124523D02*
X0121110Y0124523D01*
X0121891Y0123932D02*
X0121891Y0123932D01*
X0124479Y0126520D02*
X0117351Y0126520D01*
X0120963Y0130514D02*
X0144541Y0130514D01*
X0144541Y0131512D02*
X0117362Y0131512D01*
X0117733Y0132511D02*
X0144541Y0132511D01*
X0143104Y0133509D02*
X0138550Y0133509D01*
X0138984Y0134508D02*
X0142788Y0134508D01*
X0142788Y0135506D02*
X0138984Y0135506D01*
X0138984Y0136505D02*
X0142788Y0136505D01*
X0142788Y0137503D02*
X0138984Y0137503D01*
X0138984Y0138502D02*
X0142788Y0138502D01*
X0142788Y0139500D02*
X0138984Y0139500D01*
X0138954Y0140499D02*
X0142936Y0140499D01*
X0142866Y0141497D02*
X0138875Y0141497D01*
X0138984Y0142496D02*
X0142788Y0142496D01*
X0142788Y0143494D02*
X0138984Y0143494D01*
X0138984Y0145491D02*
X0142788Y0145491D01*
X0142788Y0146490D02*
X0138984Y0146490D01*
X0138979Y0147488D02*
X0142825Y0147488D01*
X0143444Y0148487D02*
X0138447Y0148487D01*
X0134831Y0148487D02*
X0133831Y0148487D01*
X0133831Y0147488D02*
X0134831Y0147488D01*
X0134831Y0146490D02*
X0133831Y0146490D01*
X0129678Y0146490D02*
X0126661Y0146490D01*
X0126661Y0147488D02*
X0129683Y0147488D01*
X0130215Y0148487D02*
X0126321Y0148487D01*
X0122508Y0148487D02*
X0121508Y0148487D01*
X0121508Y0147488D02*
X0122508Y0147488D01*
X0122508Y0146490D02*
X0121508Y0146490D01*
X0117355Y0146490D02*
X0113866Y0146490D01*
X0113866Y0147488D02*
X0117355Y0147488D01*
X0117696Y0148487D02*
X0113525Y0148487D01*
X0113866Y0145491D02*
X0117355Y0145491D01*
X0126661Y0145491D02*
X0129678Y0145491D01*
X0129678Y0143494D02*
X0126661Y0143494D01*
X0126661Y0142496D02*
X0129678Y0142496D01*
X0129787Y0141497D02*
X0126446Y0141497D01*
X0126661Y0140499D02*
X0129707Y0140499D01*
X0146941Y0146490D02*
X0147941Y0146490D01*
X0147941Y0147488D02*
X0146941Y0147488D01*
X0146941Y0148487D02*
X0147941Y0148487D01*
X0151439Y0148487D02*
X0159917Y0148487D01*
X0158664Y0147488D02*
X0152057Y0147488D01*
X0152094Y0146490D02*
X0158536Y0146490D01*
X0158536Y0145491D02*
X0152094Y0145491D01*
X0152094Y0143494D02*
X0158536Y0143494D01*
X0158536Y0142496D02*
X0152094Y0142496D01*
X0152017Y0141497D02*
X0158536Y0141497D01*
X0158999Y0140499D02*
X0151947Y0140499D01*
X0152094Y0139500D02*
X0158536Y0139500D01*
X0158536Y0138502D02*
X0152094Y0138502D01*
X0152094Y0137503D02*
X0158536Y0137503D01*
X0158536Y0136505D02*
X0152094Y0136505D01*
X0152094Y0135506D02*
X0158536Y0135506D01*
X0158536Y0134508D02*
X0152094Y0134508D01*
X0151778Y0133509D02*
X0158537Y0133509D01*
X0160565Y0132511D02*
X0150341Y0132511D01*
X0150341Y0131512D02*
X0160008Y0131512D01*
X0159257Y0130514D02*
X0150341Y0130514D01*
X0150341Y0129515D02*
X0158990Y0129515D01*
X0158808Y0128517D02*
X0154735Y0128517D01*
X0156510Y0127518D02*
X0157828Y0127518D01*
X0157828Y0126520D02*
X0157569Y0126520D01*
X0166614Y0128506D02*
X0174922Y0136813D01*
X0177953Y0136813D01*
X0168841Y0143494D02*
X0167842Y0143494D01*
X0163689Y0146490D02*
X0162689Y0146490D01*
X0162689Y0147488D02*
X0163689Y0147488D01*
X0163689Y0148487D02*
X0162689Y0148487D01*
X0130112Y0133509D02*
X0126030Y0133509D01*
X0117986Y0133509D02*
X0117733Y0133509D01*
X0108713Y0137503D02*
X0098347Y0137503D01*
X0098413Y0136505D02*
X0104560Y0136505D01*
X0104560Y0135506D02*
X0098413Y0135506D01*
X0098413Y0134508D02*
X0104590Y0134508D01*
X0104560Y0138502D02*
X0082763Y0138502D01*
X0082763Y0137503D02*
X0085433Y0137503D01*
X0085367Y0136505D02*
X0082763Y0136505D01*
X0082763Y0135506D02*
X0085367Y0135506D01*
X0085250Y0134508D02*
X0082763Y0134508D01*
X0082763Y0133509D02*
X0085250Y0133509D01*
X0085250Y0132511D02*
X0082669Y0132511D01*
X0085250Y0131512D02*
X0069829Y0131512D01*
X0069829Y0130514D02*
X0085250Y0130514D01*
X0091050Y0130514D02*
X0093639Y0130514D01*
X0092848Y0131512D02*
X0091050Y0131512D01*
X0091050Y0132511D02*
X0092848Y0132511D01*
X0092848Y0133509D02*
X0091050Y0133509D01*
X0091050Y0134508D02*
X0092848Y0134508D01*
X0092848Y0135506D02*
X0090933Y0135506D01*
X0090933Y0136505D02*
X0092848Y0136505D01*
X0092913Y0137503D02*
X0090867Y0137503D01*
X0096862Y0139500D02*
X0104560Y0139500D01*
X0104644Y0140499D02*
X0097830Y0140499D01*
X0098368Y0141497D02*
X0104683Y0141497D01*
X0104560Y0142496D02*
X0098413Y0142496D01*
X0098413Y0143494D02*
X0104560Y0143494D01*
X0104006Y0144493D02*
X0098413Y0144493D01*
X0098413Y0145491D02*
X0102464Y0145491D01*
X0101790Y0146490D02*
X0098413Y0146490D01*
X0098413Y0147488D02*
X0101519Y0147488D01*
X0101534Y0148487D02*
X0097601Y0148487D01*
X0091931Y0147488D02*
X0091849Y0147488D01*
X0091811Y0148191D02*
X0091811Y0144687D01*
X0091890Y0144608D01*
X0091849Y0145491D02*
X0091931Y0145491D01*
X0091931Y0146490D02*
X0091849Y0146490D01*
X0095630Y0144608D02*
X0095630Y0141380D01*
X0094961Y0140710D01*
X0081929Y0140710D01*
X0078819Y0143820D01*
X0074757Y0144493D02*
X0074614Y0144493D01*
X0074614Y0145491D02*
X0074757Y0145491D01*
X0074757Y0146490D02*
X0074614Y0146490D01*
X0074012Y0147488D02*
X0075358Y0147488D01*
X0071772Y0143820D02*
X0076457Y0139135D01*
X0076457Y0138309D01*
X0078504Y0136261D01*
X0066765Y0139500D02*
X0065677Y0139500D01*
X0065522Y0140499D02*
X0066745Y0140499D01*
X0066489Y0141497D02*
X0065677Y0141497D01*
X0065677Y0142496D02*
X0066489Y0142496D01*
X0066489Y0143494D02*
X0061524Y0143494D01*
X0061524Y0144493D02*
X0060524Y0144493D01*
X0060524Y0144281D02*
X0060524Y0148040D01*
X0057847Y0148040D01*
X0057415Y0147924D01*
X0057027Y0147700D01*
X0056711Y0147384D01*
X0056487Y0146996D01*
X0056371Y0146564D01*
X0056371Y0144281D01*
X0060524Y0144281D01*
X0060524Y0143494D02*
X0047351Y0143494D01*
X0051503Y0142496D02*
X0056371Y0142496D01*
X0056371Y0141497D02*
X0051503Y0141497D01*
X0051326Y0140499D02*
X0056526Y0140499D01*
X0056371Y0139500D02*
X0051503Y0139500D01*
X0051503Y0144493D02*
X0056371Y0144493D01*
X0056371Y0145491D02*
X0051503Y0145491D01*
X0051503Y0146490D02*
X0056371Y0146490D01*
X0056815Y0147488D02*
X0051099Y0147488D01*
X0060524Y0147488D02*
X0061524Y0147488D01*
X0061524Y0146490D02*
X0060524Y0146490D01*
X0060524Y0145491D02*
X0061524Y0145491D01*
X0065677Y0145491D02*
X0066489Y0145491D01*
X0066489Y0144493D02*
X0065677Y0144493D01*
X0065677Y0146490D02*
X0066489Y0146490D01*
X0067091Y0147488D02*
X0065233Y0147488D01*
X0070551Y0143820D02*
X0071772Y0143820D01*
X0064029Y0131512D02*
X0046124Y0131512D01*
X0045125Y0130514D02*
X0064029Y0130514D01*
X0064029Y0129515D02*
X0044127Y0129515D01*
X0043530Y0128517D02*
X0064029Y0128517D01*
X0064029Y0127518D02*
X0043530Y0127518D01*
X0043530Y0126520D02*
X0064029Y0126520D01*
X0063116Y0125521D02*
X0059720Y0125521D01*
X0059705Y0125535D02*
X0059318Y0125759D01*
X0058885Y0125875D01*
X0056406Y0125875D01*
X0056406Y0121525D01*
X0060362Y0121525D01*
X0060362Y0124399D01*
X0060246Y0124831D01*
X0060022Y0125219D01*
X0059705Y0125535D01*
X0060328Y0124523D02*
X0062473Y0124523D01*
X0062473Y0123524D02*
X0060362Y0123524D01*
X0060362Y0122526D02*
X0062473Y0122526D01*
X0062473Y0121527D02*
X0060362Y0121527D01*
X0060362Y0120525D02*
X0056406Y0120525D01*
X0056406Y0121525D01*
X0055406Y0121525D01*
X0055406Y0125875D01*
X0052926Y0125875D01*
X0052494Y0125759D01*
X0052106Y0125535D01*
X0051790Y0125219D01*
X0051566Y0124831D01*
X0051450Y0124399D01*
X0051450Y0121525D01*
X0055406Y0121525D01*
X0055406Y0120525D01*
X0056406Y0120525D01*
X0056406Y0116176D01*
X0058885Y0116176D01*
X0059318Y0116291D01*
X0059705Y0116515D01*
X0060022Y0116832D01*
X0060246Y0117219D01*
X0060362Y0117652D01*
X0060362Y0120525D01*
X0060362Y0119530D02*
X0062473Y0119530D01*
X0062473Y0118532D02*
X0060362Y0118532D01*
X0060330Y0117533D02*
X0062473Y0117533D01*
X0063110Y0116534D02*
X0059725Y0116534D01*
X0056406Y0116534D02*
X0055406Y0116534D01*
X0055406Y0116176D02*
X0055406Y0120525D01*
X0051450Y0120525D01*
X0051450Y0117652D01*
X0051566Y0117219D01*
X0051790Y0116832D01*
X0052106Y0116515D01*
X0052494Y0116291D01*
X0052926Y0116176D01*
X0055406Y0116176D01*
X0055406Y0117533D02*
X0056406Y0117533D01*
X0056406Y0118532D02*
X0055406Y0118532D01*
X0055406Y0119530D02*
X0056406Y0119530D01*
X0056406Y0120529D02*
X0062473Y0120529D01*
X0056406Y0121527D02*
X0055406Y0121527D01*
X0055406Y0120529D02*
X0043530Y0120529D01*
X0043530Y0121527D02*
X0051450Y0121527D01*
X0051450Y0122526D02*
X0043530Y0122526D01*
X0043530Y0123524D02*
X0051450Y0123524D01*
X0051483Y0124523D02*
X0043530Y0124523D01*
X0043530Y0125521D02*
X0052092Y0125521D01*
X0055406Y0125521D02*
X0056406Y0125521D01*
X0056406Y0124523D02*
X0055406Y0124523D01*
X0055406Y0123524D02*
X0056406Y0123524D01*
X0056406Y0122526D02*
X0055406Y0122526D01*
X0051450Y0119530D02*
X0043530Y0119530D01*
X0043530Y0118532D02*
X0051450Y0118532D01*
X0051482Y0117533D02*
X0043530Y0117533D01*
X0043377Y0116534D02*
X0052087Y0116534D01*
X0042785Y0115536D02*
X0064429Y0115536D01*
X0064429Y0114537D02*
X0041221Y0114537D01*
X0040223Y0113539D02*
X0064429Y0113539D01*
X0064429Y0112540D02*
X0059859Y0112540D01*
X0060876Y0111542D02*
X0064429Y0111542D01*
X0064429Y0110543D02*
X0061895Y0110543D01*
X0062914Y0109545D02*
X0064445Y0109545D01*
X0064928Y0108546D02*
X0063934Y0108546D01*
X0070994Y0109952D02*
X0072914Y0108033D01*
X0074539Y0108033D01*
X0074931Y0108426D01*
X0077431Y0108426D02*
X0077431Y0112376D01*
X0077431Y0108426D01*
X0077431Y0108426D01*
X0077431Y0108546D02*
X0077431Y0108546D01*
X0077431Y0109545D02*
X0077431Y0109545D01*
X0077431Y0110543D02*
X0077431Y0110543D01*
X0077431Y0111542D02*
X0077431Y0111542D01*
X0070994Y0109952D02*
X0070994Y0115956D01*
X0075276Y0120238D01*
X0081772Y0120238D01*
X0082362Y0120828D01*
X0086425Y0120529D02*
X0086568Y0120529D01*
X0086568Y0121527D02*
X0086425Y0121527D01*
X0086425Y0122526D02*
X0086568Y0122526D01*
X0086568Y0123524D02*
X0086425Y0123524D01*
X0090630Y0120828D02*
X0101457Y0120828D01*
X0103622Y0118663D01*
X0103622Y0113151D01*
X0105985Y0110789D01*
X0117008Y0110789D01*
X0117402Y0111183D01*
X0117402Y0115710D01*
X0117087Y0116025D01*
X0097431Y0108426D02*
X0097431Y0106350D01*
X0099685Y0104096D01*
X0154803Y0104096D01*
X0156378Y0102521D01*
X0166614Y0102521D01*
X0168189Y0104096D01*
X0168189Y0107600D01*
X0168032Y0107757D01*
X0172914Y0104883D02*
X0175433Y0107403D01*
X0180817Y0107403D01*
X0180817Y0110553D02*
X0174331Y0110553D01*
X0172126Y0112757D01*
X0166614Y0112757D01*
X0170551Y0116694D02*
X0172126Y0118269D01*
X0176063Y0118269D01*
X0177481Y0116852D01*
X0180817Y0116852D01*
X0180817Y0113702D02*
X0176221Y0113702D01*
X0175276Y0114332D01*
X0158775Y0115536D02*
X0154769Y0115536D01*
X0156604Y0116534D02*
X0157828Y0116534D01*
X0157828Y0117533D02*
X0157603Y0117533D01*
X0172914Y0104883D02*
X0172914Y0104096D01*
X0168977Y0100159D01*
X0155591Y0100159D01*
X0184132Y0082585D02*
X0190052Y0082585D01*
X0189895Y0081587D02*
X0184962Y0081587D01*
X0185454Y0080588D02*
X0189836Y0080588D01*
X0189836Y0079590D02*
X0185718Y0079590D01*
X0193988Y0076594D02*
X0194988Y0076594D01*
X0194988Y0075596D02*
X0193988Y0075596D01*
X0193988Y0074597D02*
X0194988Y0074597D01*
X0198368Y0074597D02*
X0233276Y0074597D01*
X0240504Y0074597D02*
X0240757Y0074597D01*
X0232631Y0081587D02*
X0225306Y0081587D01*
X0224308Y0082585D02*
X0232660Y0082585D01*
X0223078Y0077593D02*
X0214928Y0077593D01*
X0215723Y0078591D02*
X0222079Y0078591D01*
X0221080Y0079590D02*
X0215723Y0079590D01*
X0215723Y0080588D02*
X0220082Y0080588D01*
X0219083Y0081587D02*
X0215723Y0081587D01*
X0215723Y0082585D02*
X0218085Y0082585D01*
X0217086Y0083584D02*
X0215723Y0083584D01*
X0215723Y0084582D02*
X0216088Y0084582D01*
X0256378Y0100159D02*
X0256418Y0100120D01*
X0263307Y0100120D01*
X0275945Y0094567D02*
X0282321Y0094567D01*
X0283319Y0095566D02*
X0276943Y0095566D01*
X0277942Y0096564D02*
X0284318Y0096564D01*
X0285316Y0097563D02*
X0278940Y0097563D01*
X0279939Y0098561D02*
X0286315Y0098561D01*
X0287313Y0099560D02*
X0280937Y0099560D01*
X0281936Y0100558D02*
X0288312Y0100558D01*
X0289310Y0101557D02*
X0282934Y0101557D01*
X0283933Y0102555D02*
X0290309Y0102555D01*
X0291307Y0103554D02*
X0284932Y0103554D01*
X0285930Y0104552D02*
X0292306Y0104552D01*
X0293304Y0105551D02*
X0286929Y0105551D01*
X0287927Y0106549D02*
X0294303Y0106549D01*
X0296531Y0102555D02*
X0318281Y0102555D01*
X0318403Y0097563D02*
X0301775Y0097563D01*
X0297550Y0099560D02*
X0293536Y0099560D01*
X0294534Y0100558D02*
X0298548Y0100558D01*
X0299547Y0101557D02*
X0295533Y0101557D01*
X0296551Y0098561D02*
X0292537Y0098561D01*
X0291539Y0097563D02*
X0295553Y0097563D01*
X0294554Y0096564D02*
X0290540Y0096564D01*
X0289542Y0095566D02*
X0293556Y0095566D01*
X0292557Y0094567D02*
X0288543Y0094567D01*
X0287545Y0093569D02*
X0291559Y0093569D01*
X0290560Y0092570D02*
X0286546Y0092570D01*
X0285548Y0091572D02*
X0289561Y0091572D01*
X0288563Y0090573D02*
X0284549Y0090573D01*
X0283551Y0089575D02*
X0287564Y0089575D01*
X0286566Y0088576D02*
X0282552Y0088576D01*
X0281554Y0087578D02*
X0285567Y0087578D01*
X0284569Y0086579D02*
X0280555Y0086579D01*
X0281573Y0083584D02*
X0268307Y0083584D01*
X0268307Y0082585D02*
X0280575Y0082585D01*
X0293787Y0089575D02*
X0318517Y0089575D01*
X0318150Y0090573D02*
X0294786Y0090573D01*
X0295784Y0091572D02*
X0318150Y0091572D01*
X0318150Y0092570D02*
X0296783Y0092570D01*
X0297781Y0093569D02*
X0318150Y0093569D01*
X0318303Y0094567D02*
X0298780Y0094567D01*
X0322850Y0094567D02*
X0323450Y0094567D01*
X0323450Y0093569D02*
X0322850Y0093569D01*
X0322850Y0092570D02*
X0323450Y0092570D01*
X0323450Y0091572D02*
X0322850Y0091572D01*
X0322850Y0090573D02*
X0323450Y0090573D01*
X0323450Y0089575D02*
X0322850Y0089575D01*
X0279822Y0112540D02*
X0259272Y0112540D01*
X0258553Y0110543D02*
X0256927Y0110543D01*
X0268283Y0113539D02*
X0280820Y0113539D01*
X0281819Y0114537D02*
X0268307Y0114537D01*
X0268307Y0115536D02*
X0282817Y0115536D01*
X0283816Y0116534D02*
X0268307Y0116534D01*
X0268307Y0117533D02*
X0284814Y0117533D01*
X0300908Y0119530D02*
X0327494Y0119530D01*
X0327494Y0120529D02*
X0327241Y0120529D01*
X0299792Y0132511D02*
X0268307Y0132511D01*
X0268307Y0133509D02*
X0300790Y0133509D01*
X0298793Y0131512D02*
X0268307Y0131512D01*
X0268307Y0130514D02*
X0297795Y0130514D01*
X0296796Y0129515D02*
X0268307Y0129515D01*
X0267512Y0128517D02*
X0295798Y0128517D01*
X0294799Y0127518D02*
X0254565Y0127518D01*
X0253854Y0126520D02*
X0258781Y0126520D01*
X0258307Y0125521D02*
X0253854Y0125521D01*
X0253854Y0124523D02*
X0254008Y0124523D01*
X0251654Y0127718D02*
X0255591Y0131655D01*
X0263268Y0131655D01*
X0263307Y0131616D01*
X0259102Y0128517D02*
X0255564Y0128517D01*
X0251654Y0127718D02*
X0251654Y0119057D01*
X0250079Y0117482D01*
X0229607Y0117482D01*
X0223937Y0123151D01*
X0214617Y0123151D01*
X0217796Y0126143D02*
X0216221Y0127718D01*
X0217796Y0126143D02*
X0224095Y0126143D01*
X0227268Y0122970D01*
X0232185Y0122970D01*
X0243780Y0134565D01*
X0243780Y0136576D01*
X0239127Y0136505D02*
X0230225Y0136505D01*
X0230225Y0136879D02*
X0233787Y0136879D01*
X0233787Y0138966D01*
X0233671Y0139398D01*
X0233447Y0139786D01*
X0233131Y0140102D01*
X0232743Y0140326D01*
X0232311Y0140442D01*
X0230225Y0140442D01*
X0230225Y0136880D01*
X0229225Y0136880D01*
X0229225Y0140442D01*
X0227139Y0140442D01*
X0226706Y0140326D01*
X0226319Y0140102D01*
X0226002Y0139786D01*
X0225778Y0139398D01*
X0225662Y0138966D01*
X0225662Y0136879D01*
X0229225Y0136879D01*
X0229225Y0135880D01*
X0225662Y0135880D01*
X0225662Y0134099D01*
X0225535Y0134152D01*
X0224709Y0134152D01*
X0223708Y0135153D01*
X0223708Y0139918D01*
X0223231Y0140395D01*
X0223708Y0140872D01*
X0223708Y0141935D01*
X0225662Y0141935D01*
X0225662Y0141581D01*
X0226658Y0140585D01*
X0232791Y0140585D01*
X0233787Y0141581D01*
X0233787Y0146865D01*
X0239127Y0146865D01*
X0239127Y0140793D01*
X0239604Y0140317D01*
X0239127Y0139840D01*
X0239127Y0133313D01*
X0239272Y0133168D01*
X0233774Y0127670D01*
X0229981Y0127670D01*
X0228985Y0126674D01*
X0228985Y0125170D01*
X0228179Y0125170D01*
X0226295Y0127055D01*
X0225698Y0127651D01*
X0226743Y0128083D01*
X0227666Y0129007D01*
X0228166Y0130214D01*
X0228166Y0131521D01*
X0227837Y0132317D01*
X0229225Y0132317D01*
X0229225Y0135879D01*
X0230225Y0135879D01*
X0230225Y0132317D01*
X0232311Y0132317D01*
X0232743Y0132433D01*
X0233131Y0132657D01*
X0233447Y0132973D01*
X0233671Y0133361D01*
X0233787Y0133794D01*
X0233787Y0135880D01*
X0230225Y0135880D01*
X0230225Y0136879D01*
X0230225Y0137503D02*
X0229225Y0137503D01*
X0229225Y0136505D02*
X0223708Y0136505D01*
X0223708Y0137503D02*
X0225662Y0137503D01*
X0225662Y0138502D02*
X0223708Y0138502D01*
X0223708Y0139500D02*
X0225837Y0139500D01*
X0225746Y0141497D02*
X0223708Y0141497D01*
X0223335Y0140499D02*
X0239422Y0140499D01*
X0239127Y0141497D02*
X0233703Y0141497D01*
X0233787Y0142496D02*
X0239127Y0142496D01*
X0239127Y0143494D02*
X0233787Y0143494D01*
X0233787Y0144493D02*
X0239127Y0144493D01*
X0239127Y0145491D02*
X0233787Y0145491D01*
X0233787Y0146490D02*
X0239127Y0146490D01*
X0229725Y0144647D02*
X0229213Y0144135D01*
X0219055Y0144135D01*
X0214403Y0144493D02*
X0206485Y0144493D01*
X0206485Y0144557D02*
X0210637Y0144557D01*
X0210637Y0146840D01*
X0210630Y0146865D01*
X0214403Y0146865D01*
X0214403Y0140872D01*
X0214880Y0140395D01*
X0214403Y0139918D01*
X0214403Y0138580D01*
X0213735Y0138580D01*
X0212446Y0137291D01*
X0210637Y0135482D01*
X0210637Y0139840D01*
X0210160Y0140317D01*
X0210298Y0140454D01*
X0210521Y0140841D01*
X0210637Y0141274D01*
X0210637Y0143557D01*
X0206485Y0143557D01*
X0206485Y0144557D01*
X0210637Y0145491D02*
X0214403Y0145491D01*
X0214403Y0146490D02*
X0210637Y0146490D01*
X0210637Y0143494D02*
X0214403Y0143494D01*
X0214403Y0142496D02*
X0210637Y0142496D01*
X0210637Y0141497D02*
X0214403Y0141497D01*
X0214776Y0140499D02*
X0210324Y0140499D01*
X0210637Y0139500D02*
X0214403Y0139500D01*
X0213657Y0138502D02*
X0210637Y0138502D01*
X0210637Y0137503D02*
X0212658Y0137503D01*
X0211660Y0136505D02*
X0210637Y0136505D01*
X0210637Y0135506D02*
X0210661Y0135506D01*
X0214646Y0136380D02*
X0217992Y0136380D01*
X0219055Y0136655D01*
X0219055Y0136694D01*
X0224882Y0130868D01*
X0227176Y0128517D02*
X0234621Y0128517D01*
X0235619Y0129515D02*
X0227877Y0129515D01*
X0228166Y0130514D02*
X0236618Y0130514D01*
X0237616Y0131512D02*
X0228166Y0131512D01*
X0229225Y0132511D02*
X0230225Y0132511D01*
X0230225Y0133509D02*
X0229225Y0133509D01*
X0229225Y0134508D02*
X0230225Y0134508D01*
X0230225Y0135506D02*
X0229225Y0135506D01*
X0225662Y0135506D02*
X0223708Y0135506D01*
X0224353Y0134508D02*
X0225662Y0134508D01*
X0229225Y0138502D02*
X0230225Y0138502D01*
X0230225Y0139500D02*
X0229225Y0139500D01*
X0233612Y0139500D02*
X0239127Y0139500D01*
X0239127Y0138502D02*
X0233787Y0138502D01*
X0233787Y0137503D02*
X0239127Y0137503D01*
X0239127Y0135506D02*
X0233787Y0135506D01*
X0233787Y0134508D02*
X0239127Y0134508D01*
X0239127Y0133509D02*
X0233711Y0133509D01*
X0232877Y0132511D02*
X0238615Y0132511D01*
X0242840Y0130514D02*
X0251338Y0130514D01*
X0252337Y0131512D02*
X0243839Y0131512D01*
X0247630Y0132511D02*
X0253335Y0132511D01*
X0254334Y0133509D02*
X0248433Y0133509D01*
X0250340Y0129515D02*
X0241842Y0129515D01*
X0240843Y0128517D02*
X0249454Y0128517D01*
X0249454Y0127518D02*
X0249404Y0127518D01*
X0247435Y0127518D02*
X0246935Y0127518D01*
X0246935Y0127670D02*
X0245461Y0127670D01*
X0245029Y0127554D01*
X0244641Y0127330D01*
X0244325Y0127014D01*
X0244101Y0126626D01*
X0243985Y0126194D01*
X0243985Y0123220D01*
X0246935Y0123220D01*
X0246935Y0127670D01*
X0246935Y0126520D02*
X0247435Y0126520D01*
X0247435Y0125521D02*
X0246935Y0125521D01*
X0246935Y0124523D02*
X0247435Y0124523D01*
X0247435Y0123524D02*
X0246935Y0123524D01*
X0243985Y0123524D02*
X0235851Y0123524D01*
X0235385Y0122526D02*
X0243985Y0122526D01*
X0243985Y0121527D02*
X0235385Y0121527D01*
X0235385Y0120529D02*
X0243985Y0120529D01*
X0243985Y0124523D02*
X0236849Y0124523D01*
X0237848Y0125521D02*
X0243985Y0125521D01*
X0244073Y0126520D02*
X0238846Y0126520D01*
X0239845Y0127518D02*
X0244967Y0127518D01*
X0229829Y0127518D02*
X0225831Y0127518D01*
X0226830Y0126520D02*
X0228985Y0126520D01*
X0228985Y0125521D02*
X0227828Y0125521D01*
X0214646Y0136380D02*
X0208740Y0130474D01*
X0208740Y0129028D01*
X0248138Y0140499D02*
X0258307Y0140499D01*
X0258357Y0141497D02*
X0248433Y0141497D01*
X0248433Y0142496D02*
X0259043Y0142496D01*
X0263007Y0142496D02*
X0263607Y0142496D01*
X0263607Y0141497D02*
X0263007Y0141497D01*
X0263007Y0140499D02*
X0263607Y0140499D01*
X0267572Y0142496D02*
X0300628Y0142496D01*
X0299371Y0141497D02*
X0268258Y0141497D01*
X0268307Y0140499D02*
X0298894Y0140499D01*
X0303467Y0142496D02*
X0318852Y0142496D01*
X0293801Y0126520D02*
X0267834Y0126520D01*
X0268307Y0125521D02*
X0292802Y0125521D01*
X0291804Y0124523D02*
X0268307Y0124523D01*
X0259216Y0120529D02*
X0256237Y0120529D01*
X0087007Y0116534D02*
X0074684Y0116534D01*
X0075682Y0117533D02*
X0078529Y0117533D01*
X0086196Y0117533D02*
X0086797Y0117533D01*
X0086568Y0118532D02*
X0086425Y0118532D01*
X0086425Y0119530D02*
X0086568Y0119530D01*
X0056898Y0132511D02*
X0050937Y0132511D01*
X0037730Y0127518D02*
X0026803Y0127518D01*
X0027529Y0126520D02*
X0037730Y0126520D01*
X0037730Y0125521D02*
X0027586Y0125521D01*
X0027586Y0124523D02*
X0037730Y0124523D01*
X0037730Y0123524D02*
X0027586Y0123524D01*
X0023433Y0123524D02*
X0022433Y0123524D01*
X0022433Y0124523D02*
X0023433Y0124523D01*
X0023433Y0125521D02*
X0022433Y0125521D01*
X0022433Y0126520D02*
X0023433Y0126520D01*
X0023433Y0127518D02*
X0022433Y0127518D01*
X0023433Y0122526D02*
X0037730Y0122526D01*
X0037730Y0121527D02*
X0027586Y0121527D01*
X0027586Y0120529D02*
X0037730Y0120529D01*
X0037730Y0119530D02*
X0027586Y0119530D01*
X0027521Y0118532D02*
X0037730Y0118532D01*
X0037146Y0117533D02*
X0026749Y0117533D01*
X0026544Y0114537D02*
X0029107Y0114537D01*
X0029107Y0113539D02*
X0027489Y0113539D01*
X0027586Y0112540D02*
X0029107Y0112540D01*
X0029107Y0111542D02*
X0027586Y0111542D01*
X0027586Y0110543D02*
X0029107Y0110543D01*
X0029107Y0109545D02*
X0027586Y0109545D01*
X0027586Y0108546D02*
X0029107Y0108546D01*
X0018281Y0108546D02*
X0017133Y0108546D01*
X0017133Y0109545D02*
X0018281Y0109545D01*
X0018281Y0110543D02*
X0017133Y0110543D01*
X0017133Y0111542D02*
X0018281Y0111542D01*
X0018281Y0112540D02*
X0017133Y0112540D01*
X0017133Y0113539D02*
X0018377Y0113539D01*
X0019323Y0114537D02*
X0017133Y0114537D01*
X0017133Y0115536D02*
X0030001Y0115536D01*
X0036147Y0116534D02*
X0017133Y0116534D01*
X0017133Y0117533D02*
X0019117Y0117533D01*
X0018345Y0118532D02*
X0017133Y0118532D01*
X0017133Y0119530D02*
X0018281Y0119530D01*
X0018281Y0120529D02*
X0017133Y0120529D01*
X0017133Y0121527D02*
X0018281Y0121527D01*
D29*
X0232185Y0122970D03*
X0247185Y0122970D03*
X0247185Y0100970D03*
X0232185Y0100970D03*
D30*
X0180394Y0078687D03*
X0170394Y0079687D03*
X0160394Y0078687D03*
X0150394Y0079687D03*
X0140394Y0078687D03*
X0130394Y0079687D03*
D31*
X0102441Y0093466D03*
X0092992Y0098191D03*
X0090236Y0093860D03*
X0080000Y0097009D03*
X0059194Y0093047D03*
X0050894Y0090147D03*
X0041494Y0089747D03*
X0033994Y0085947D03*
X0024095Y0084411D03*
X0022694Y0077247D03*
X0033594Y0077447D03*
X0042594Y0078047D03*
X0050079Y0078899D03*
X0058740Y0085986D03*
X0066094Y0086347D03*
X0050494Y0098047D03*
X0040630Y0097797D03*
X0075276Y0115120D03*
X0089449Y0114332D03*
X0124095Y0130080D03*
X0102048Y0137954D03*
X0115433Y0145828D03*
X0104803Y0147797D03*
X0085118Y0147797D03*
X0128032Y0145828D03*
X0140630Y0145828D03*
X0155591Y0145828D03*
X0155591Y0135592D03*
X0163465Y0130868D03*
X0170158Y0123781D03*
X0170551Y0116694D03*
X0175276Y0114332D03*
X0194173Y0121419D03*
X0200473Y0121419D03*
X0208347Y0122994D03*
X0216221Y0127718D03*
X0224882Y0130868D03*
X0236693Y0135592D03*
X0252441Y0135592D03*
X0254803Y0143466D03*
X0271339Y0143466D03*
X0283150Y0143466D03*
X0294173Y0143466D03*
X0302048Y0139529D03*
X0290236Y0134805D03*
X0281575Y0134017D03*
X0271339Y0134017D03*
X0272126Y0125356D03*
X0279213Y0125356D03*
X0271339Y0118269D03*
X0255591Y0113545D03*
X0256378Y0100159D03*
X0229607Y0086773D03*
X0222520Y0088348D03*
X0213859Y0089923D03*
X0207559Y0101734D03*
X0208347Y0106458D03*
X0197323Y0100946D03*
X0174488Y0095435D03*
X0168977Y0094647D03*
X0156378Y0094254D03*
X0140630Y0095435D03*
X0119370Y0094647D03*
X0142599Y0113939D03*
X0146142Y0119844D03*
X0196536Y0112364D03*
X0177244Y0085986D03*
X0205197Y0075750D03*
X0209922Y0075750D03*
X0253229Y0079687D03*
X0252441Y0085198D03*
X0285512Y0077324D03*
X0294173Y0077324D03*
X0304410Y0077324D03*
X0315433Y0077324D03*
X0325670Y0077324D03*
X0339055Y0077324D03*
X0313859Y0085986D03*
X0302835Y0085986D03*
X0292599Y0084411D03*
X0303622Y0094647D03*
X0313859Y0094647D03*
X0330394Y0094647D03*
X0338268Y0092285D03*
X0337894Y0101547D03*
X0331094Y0102147D03*
X0331094Y0108747D03*
X0338294Y0109047D03*
X0313859Y0115907D03*
X0303622Y0115907D03*
X0295748Y0111183D03*
X0336693Y0133230D03*
X0336693Y0140317D03*
X0336693Y0146616D03*
X0212284Y0144254D03*
X0046929Y0120631D03*
X0024882Y0130868D03*
X0033544Y0134805D03*
X0024882Y0141891D03*
X0031181Y0144254D03*
X0039055Y0144254D03*
X0020694Y0147647D03*
D32*
X0040630Y0130120D02*
X0046851Y0136340D01*
X0060985Y0136340D01*
X0061024Y0136301D01*
X0067008Y0136301D01*
X0066929Y0136222D01*
X0066929Y0126931D01*
X0067008Y0126852D01*
X0087481Y0126852D01*
X0088150Y0127521D01*
X0088150Y0134371D01*
X0102048Y0137954D02*
X0108662Y0137954D01*
X0109213Y0137403D01*
X0122008Y0137403D02*
X0122205Y0137206D01*
X0134331Y0137206D01*
X0147441Y0137088D02*
X0147441Y0125789D01*
X0147717Y0125513D01*
X0151417Y0125513D01*
X0151653Y0125750D01*
X0147717Y0125513D02*
X0140473Y0125513D01*
X0135512Y0120159D02*
X0133898Y0121773D01*
X0135512Y0120159D02*
X0135512Y0108033D01*
X0142599Y0113939D02*
X0140473Y0116065D01*
X0140473Y0118033D01*
X0161890Y0125750D02*
X0161890Y0129293D01*
X0163465Y0130868D01*
X0163465Y0137285D01*
X0163189Y0136773D01*
X0167008Y0137561D01*
X0173701Y0144254D01*
X0177126Y0144254D01*
X0177953Y0144293D01*
X0180827Y0145080D01*
X0185512Y0149765D01*
X0198110Y0149765D01*
X0198898Y0148978D01*
X0198898Y0137954D01*
X0200276Y0136576D01*
X0205985Y0136576D01*
X0198110Y0149765D02*
X0242205Y0149765D01*
X0324882Y0149765D01*
X0330394Y0144254D01*
X0330394Y0115907D01*
X0330355Y0115868D01*
X0323150Y0115868D01*
X0323740Y0116458D01*
X0337362Y0116458D01*
X0243780Y0144057D02*
X0243780Y0148191D01*
X0242205Y0149765D01*
X0163189Y0144254D02*
X0157166Y0144254D01*
X0155591Y0145828D01*
X0148701Y0145828D01*
X0147441Y0144569D01*
X0147402Y0144569D01*
X0146142Y0145828D01*
X0140630Y0145828D01*
X0135473Y0145828D01*
X0134331Y0144687D01*
X0132323Y0144687D01*
X0131181Y0145828D01*
X0128032Y0145828D01*
X0122953Y0145828D01*
X0122008Y0144883D01*
X0121063Y0145828D01*
X0115433Y0145828D01*
X0109213Y0144883D02*
X0107717Y0144883D01*
X0104803Y0147797D01*
X0088150Y0144765D02*
X0085118Y0147797D01*
X0088150Y0144765D02*
X0088150Y0144608D01*
X0071024Y0136261D02*
X0070985Y0136301D01*
X0067008Y0136301D01*
X0066929Y0126931D02*
X0066929Y0121025D01*
X0087481Y0126852D02*
X0109370Y0126852D01*
X0109607Y0126616D01*
X0109607Y0121419D01*
X0109607Y0116025D01*
X0116851Y0126852D02*
X0120866Y0126852D01*
X0124095Y0130080D01*
X0040630Y0130120D02*
X0040630Y0117482D01*
X0024882Y0130868D02*
X0024095Y0130080D01*
X0024095Y0084411D01*
X0042205Y0102521D02*
X0042599Y0102915D01*
X0177244Y0085986D02*
X0177323Y0086065D01*
X0194488Y0086065D01*
X0194488Y0088348D01*
X0194488Y0078584D02*
X0196851Y0078584D01*
X0199685Y0075750D01*
X0205181Y0075750D02*
X0205197Y0075765D01*
X0206000Y0074962D01*
X0209922Y0075750D01*
X0207323Y0077891D02*
X0205197Y0075765D01*
X0205197Y0075750D01*
D33*
X0199292Y0095228D02*
X0199685Y0095621D01*
X0199685Y0100159D01*
X0198898Y0100946D01*
X0197323Y0100946D01*
X0194961Y0100946D01*
X0192992Y0098978D01*
X0192992Y0095228D01*
X0149583Y0092541D02*
X0143524Y0092541D01*
X0140630Y0095435D01*
X0090236Y0093860D02*
X0090236Y0093403D01*
X0087533Y0090700D01*
X0087533Y0087428D01*
X0087431Y0087326D01*
X0146142Y0119844D02*
X0146142Y0120631D01*
X0147717Y0122206D01*
X0151457Y0122206D01*
X0151653Y0122009D01*
X0122008Y0137403D02*
X0116851Y0137403D01*
X0115433Y0135986D01*
X0115433Y0132836D01*
X0114646Y0132049D01*
X0096142Y0132049D01*
X0095748Y0132443D01*
X0095748Y0134253D01*
X0095630Y0134371D01*
X0109213Y0137403D02*
X0111733Y0137403D01*
X0114646Y0140317D01*
X0114646Y0145041D01*
X0115433Y0145828D01*
X0195748Y0128634D02*
X0195748Y0123781D01*
X0194173Y0122206D01*
X0194173Y0121419D01*
X0195748Y0128634D02*
X0196142Y0129028D01*
D34*
X0198898Y0129421D02*
X0199292Y0129028D01*
X0198898Y0129421D02*
X0198898Y0132443D01*
X0194567Y0136773D01*
X0192284Y0136773D01*
X0205985Y0136576D02*
X0205985Y0132443D01*
X0205197Y0131655D01*
X0205197Y0129421D01*
X0205591Y0129028D01*
X0156772Y0123781D02*
X0156772Y0120238D01*
X0154803Y0118269D01*
X0151653Y0118269D01*
X0156772Y0123781D02*
X0155197Y0125356D01*
X0152047Y0125356D01*
X0151653Y0125750D01*
X0140473Y0125513D02*
X0140315Y0125356D01*
X0136299Y0125356D01*
X0135512Y0124569D01*
X0135512Y0123387D01*
X0133898Y0121773D01*
X0130236Y0121773D01*
X0130236Y0118033D02*
X0127087Y0118033D01*
X0123307Y0121813D01*
X0122914Y0121419D01*
X0109607Y0121419D01*
X0123307Y0121813D02*
X0127008Y0125513D01*
X0130236Y0125513D01*
X0085118Y0098584D02*
X0081181Y0102521D01*
X0074488Y0102521D01*
X0066929Y0110080D01*
X0066929Y0121025D01*
X0040630Y0117482D02*
X0036299Y0113151D01*
X0033662Y0113151D01*
X0033662Y0110592D02*
X0036221Y0110611D01*
X0058253Y0110611D01*
X0077431Y0091827D01*
X0077431Y0087326D01*
X0074931Y0087326D02*
X0074731Y0090832D01*
X0066289Y0098987D01*
X0066289Y0098986D02*
X0066231Y0099045D01*
X0066171Y0099101D01*
X0066108Y0099153D01*
X0066042Y0099203D01*
X0065974Y0099249D01*
X0065904Y0099293D01*
X0065832Y0099333D01*
X0065758Y0099369D01*
X0065682Y0099402D01*
X0065605Y0099431D01*
X0065527Y0099456D01*
X0065448Y0099478D01*
X0065367Y0099496D01*
X0065286Y0099510D01*
X0065204Y0099520D01*
X0065122Y0099527D01*
X0065040Y0099529D01*
X0064958Y0099527D01*
X0064876Y0099522D01*
X0064794Y0099513D01*
X0064712Y0099499D01*
X0064632Y0099482D01*
X0064552Y0099461D01*
X0064474Y0099437D01*
X0064396Y0099408D01*
X0064321Y0099376D01*
X0064246Y0099341D01*
X0064174Y0099302D01*
X0064103Y0099259D01*
X0064035Y0099213D01*
X0063969Y0099164D01*
X0063905Y0099112D01*
X0063844Y0099057D01*
X0063845Y0099058D02*
X0063788Y0099002D01*
X0063729Y0098950D01*
X0063668Y0098900D01*
X0063604Y0098854D01*
X0063538Y0098810D01*
X0063470Y0098770D01*
X0063400Y0098733D01*
X0063329Y0098699D01*
X0063256Y0098669D01*
X0063182Y0098642D01*
X0063106Y0098619D01*
X0063030Y0098599D01*
X0062952Y0098583D01*
X0062874Y0098571D01*
X0062796Y0098563D01*
X0062717Y0098558D01*
X0062638Y0098557D01*
X0062559Y0098560D01*
X0062480Y0098566D01*
X0062402Y0098577D01*
X0062324Y0098591D01*
X0062247Y0098608D01*
X0062171Y0098630D01*
X0062097Y0098655D01*
X0062023Y0098683D01*
X0061951Y0098715D01*
X0061880Y0098750D01*
X0061811Y0098789D01*
X0061744Y0098831D01*
X0061679Y0098876D01*
X0061617Y0098924D01*
X0061556Y0098975D01*
X0061499Y0099028D01*
X0061499Y0099029D02*
X0059534Y0100948D01*
X0059535Y0100949D02*
X0059477Y0101008D01*
X0059421Y0101070D01*
X0059369Y0101135D01*
X0059320Y0101202D01*
X0059274Y0101271D01*
X0059231Y0101342D01*
X0059191Y0101415D01*
X0059155Y0101490D01*
X0059122Y0101567D01*
X0059093Y0101645D01*
X0059067Y0101724D01*
X0059046Y0101804D01*
X0059028Y0101885D01*
X0059013Y0101967D01*
X0059003Y0102050D01*
X0058996Y0102132D01*
X0058993Y0102215D01*
X0058994Y0102299D01*
X0058999Y0102382D01*
X0059008Y0102464D01*
X0059020Y0102547D01*
X0059036Y0102628D01*
X0059056Y0102709D01*
X0059080Y0102789D01*
X0059107Y0102867D01*
X0059138Y0102944D01*
X0059173Y0103020D01*
X0059211Y0103094D01*
X0059252Y0103166D01*
X0059297Y0103236D01*
X0059344Y0103304D01*
X0059395Y0103370D01*
X0059449Y0103433D01*
X0059506Y0103494D01*
X0059505Y0103494D02*
X0059562Y0103555D01*
X0059616Y0103618D01*
X0059667Y0103684D01*
X0059714Y0103752D01*
X0059759Y0103822D01*
X0059800Y0103894D01*
X0059838Y0103968D01*
X0059873Y0104044D01*
X0059904Y0104121D01*
X0059931Y0104199D01*
X0059955Y0104279D01*
X0059975Y0104360D01*
X0059991Y0104441D01*
X0060003Y0104524D01*
X0060012Y0104606D01*
X0060017Y0104689D01*
X0060018Y0104773D01*
X0060015Y0104856D01*
X0060008Y0104938D01*
X0059998Y0105021D01*
X0059983Y0105103D01*
X0059965Y0105184D01*
X0059944Y0105264D01*
X0059918Y0105343D01*
X0059889Y0105421D01*
X0059856Y0105498D01*
X0059820Y0105573D01*
X0059780Y0105646D01*
X0059737Y0105717D01*
X0059691Y0105786D01*
X0059642Y0105853D01*
X0059590Y0105918D01*
X0059534Y0105980D01*
X0059476Y0106039D01*
X0057456Y0108014D01*
X0035433Y0108014D01*
X0033662Y0108033D01*
X0085118Y0098584D02*
X0085118Y0093072D01*
X0085118Y0087513D01*
X0084931Y0087326D01*
X0194488Y0088348D02*
X0196851Y0090710D01*
X0201260Y0090710D01*
X0202441Y0091891D01*
X0202441Y0095228D01*
X0196142Y0095228D02*
X0195748Y0094834D01*
X0195748Y0090710D01*
X0194488Y0089450D01*
X0194488Y0088348D01*
D35*
X0135512Y0108033D03*
D36*
X0323150Y0084372D02*
X0333032Y0084372D01*
M02*
