G75*
%MOIN*%
%OFA0B0*%
%FSLAX25Y25*%
%IPPOS*%
%LPD*%
%AMOC8*
5,1,8,0,0,1.08239X$1,22.5*
%
%ADD10C,0.00000*%
%ADD11OC8,0.10400*%
%ADD12R,0.06306X0.05518*%
%ADD13R,0.05518X0.06306*%
%ADD14R,0.05912X0.06699*%
%ADD15R,0.06109X0.01975*%
%ADD16R,0.06693X0.07874*%
%ADD17R,0.06693X0.10630*%
%ADD18R,0.05124X0.05124*%
%ADD19R,0.06400X0.03400*%
%ADD20R,0.05124X0.02565*%
%ADD21R,0.01900X0.04900*%
%ADD22R,0.02565X0.05124*%
%ADD23R,0.02600X0.05400*%
%ADD24R,0.05400X0.02600*%
%ADD25R,0.07000X0.03600*%
%ADD26R,0.04337X0.03156*%
%ADD27C,0.02172*%
%ADD28R,0.13760X0.06040*%
%ADD29R,0.03400X0.06400*%
%ADD30C,0.07800*%
D10*
X0015433Y0071025D02*
X0015433Y0153387D01*
X0343780Y0153387D01*
X0343780Y0071025D01*
X0015433Y0071025D01*
D11*
X0333032Y0084372D03*
D12*
X0337362Y0116458D03*
X0337362Y0123939D03*
X0243780Y0136576D03*
X0243780Y0144057D03*
X0219055Y0144135D03*
X0205985Y0144057D03*
X0192284Y0144254D03*
X0177953Y0144293D03*
X0163189Y0144254D03*
X0147441Y0144569D03*
X0134331Y0144687D03*
X0122008Y0144883D03*
X0109213Y0144883D03*
X0109213Y0137403D03*
X0122008Y0137403D03*
X0134331Y0137206D03*
X0147441Y0137088D03*
X0163189Y0136773D03*
X0177953Y0136813D03*
X0192284Y0136773D03*
X0205985Y0136576D03*
X0219055Y0136655D03*
X0194488Y0086065D03*
X0194488Y0078584D03*
X0061024Y0136301D03*
X0046851Y0136340D03*
X0046851Y0143820D03*
X0061024Y0143781D03*
D13*
X0071024Y0136261D03*
X0078504Y0136261D03*
X0109370Y0126852D03*
X0116851Y0126852D03*
X0117087Y0116025D03*
X0109607Y0116025D03*
X0160551Y0107757D03*
X0168032Y0107757D03*
X0236890Y0078899D03*
X0244370Y0078899D03*
X0116457Y0077994D03*
X0108977Y0077994D03*
X0065591Y0078427D03*
X0058110Y0078427D03*
D14*
X0055906Y0121025D03*
X0066929Y0121025D03*
D15*
X0033662Y0113151D03*
X0033662Y0110592D03*
X0033662Y0108033D03*
X0033662Y0105474D03*
X0033662Y0102915D03*
D16*
X0022933Y0093529D03*
X0022933Y0122537D03*
D17*
X0022933Y0108033D03*
D18*
X0082362Y0120828D03*
X0090630Y0120828D03*
X0078819Y0143820D03*
X0070551Y0143820D03*
X0229725Y0144647D03*
X0229725Y0136380D03*
X0236496Y0087561D03*
X0244764Y0087561D03*
X0090630Y0077836D03*
X0082362Y0077836D03*
D19*
X0127583Y0092541D03*
X0149583Y0092541D03*
X0149583Y0107541D03*
X0127583Y0107541D03*
D20*
X0151653Y0118269D03*
X0161890Y0118269D03*
X0151653Y0122009D03*
X0151653Y0125750D03*
X0161890Y0125750D03*
D21*
X0097431Y0108426D03*
X0094931Y0108426D03*
X0092431Y0108426D03*
X0089931Y0108426D03*
X0087431Y0108426D03*
X0084931Y0108426D03*
X0082431Y0108426D03*
X0079931Y0108426D03*
X0077431Y0108426D03*
X0074931Y0108426D03*
X0074931Y0087326D03*
X0077431Y0087326D03*
X0079931Y0087326D03*
X0082431Y0087326D03*
X0084931Y0087326D03*
X0087431Y0087326D03*
X0089931Y0087326D03*
X0092431Y0087326D03*
X0094931Y0087326D03*
X0097431Y0087326D03*
D22*
X0095630Y0134371D03*
X0088150Y0134371D03*
X0088150Y0144608D03*
X0091890Y0144608D03*
X0095630Y0144608D03*
D23*
X0186693Y0129028D03*
X0189843Y0129028D03*
X0192992Y0129028D03*
X0196142Y0129028D03*
X0199292Y0129028D03*
X0202441Y0129028D03*
X0205591Y0129028D03*
X0208740Y0129028D03*
X0208740Y0095228D03*
X0205591Y0095228D03*
X0202441Y0095228D03*
X0199292Y0095228D03*
X0196142Y0095228D03*
X0192992Y0095228D03*
X0189843Y0095228D03*
X0186693Y0095228D03*
D24*
X0180817Y0101104D03*
X0180817Y0104254D03*
X0180817Y0107403D03*
X0180817Y0110553D03*
X0180817Y0113702D03*
X0180817Y0116852D03*
X0180817Y0120002D03*
X0180817Y0123151D03*
X0214617Y0123151D03*
X0214617Y0120002D03*
X0214617Y0116852D03*
X0214617Y0113702D03*
X0214617Y0110553D03*
X0214617Y0107403D03*
X0214617Y0104254D03*
X0214617Y0101104D03*
D25*
X0263307Y0100120D03*
X0263307Y0107994D03*
X0263307Y0115868D03*
X0263307Y0123742D03*
X0263307Y0131616D03*
X0263307Y0139490D03*
X0323150Y0139490D03*
X0323150Y0131616D03*
X0323150Y0123742D03*
X0323150Y0115868D03*
X0323150Y0107994D03*
X0323150Y0100120D03*
X0323150Y0092246D03*
X0323150Y0084372D03*
X0263307Y0084372D03*
X0263307Y0092246D03*
D26*
X0140473Y0118033D03*
X0140473Y0121773D03*
X0130236Y0121773D03*
X0130236Y0118033D03*
X0130236Y0125513D03*
X0140473Y0125513D03*
D27*
X0202599Y0084755D02*
X0202599Y0079027D01*
X0207323Y0079027D02*
X0207323Y0084755D01*
X0212048Y0084755D02*
X0212048Y0079027D01*
D28*
X0207313Y0081881D03*
D29*
X0232185Y0100970D03*
X0247185Y0100970D03*
X0247185Y0122970D03*
X0232185Y0122970D03*
D30*
X0170394Y0079687D03*
X0180394Y0078687D03*
X0160394Y0078687D03*
X0150394Y0079687D03*
X0140394Y0078687D03*
X0130394Y0079687D03*
M02*
