G75*
%MOIN*%
%OFA0B0*%
%FSLAX25Y25*%
%IPPOS*%
%LPD*%
%AMOC8*
5,1,8,0,0,1.08239X$1,22.5*
%
%ADD10C,0.00000*%
%ADD11OC8,0.10000*%
%ADD12R,0.18110X0.03937*%
%ADD13R,0.13386X0.06299*%
%ADD14C,0.07400*%
%ADD15C,0.03169*%
%ADD16C,0.01000*%
%ADD17C,0.02400*%
%ADD18C,0.01200*%
%ADD19C,0.03562*%
D10*
X0015433Y0071025D02*
X0015433Y0153387D01*
X0343780Y0153387D01*
X0343780Y0071025D01*
X0015433Y0071025D01*
D11*
X0333032Y0084372D03*
D12*
X0043780Y0104096D03*
X0043780Y0111970D03*
D13*
X0023307Y0121419D03*
X0023307Y0094647D03*
D14*
X0130394Y0079687D03*
X0140394Y0078687D03*
X0150394Y0079687D03*
X0160394Y0078687D03*
X0170394Y0079687D03*
X0180394Y0078687D03*
D15*
X0177244Y0085986D03*
X0174488Y0095435D03*
X0168977Y0094647D03*
X0156378Y0094254D03*
X0140630Y0095435D03*
X0119370Y0094647D03*
X0102441Y0093466D03*
X0092992Y0098191D03*
X0090236Y0093860D03*
X0080000Y0097009D03*
X0059194Y0093047D03*
X0050894Y0090147D03*
X0041494Y0089747D03*
X0033994Y0085947D03*
X0024095Y0084411D03*
X0022694Y0077247D03*
X0033594Y0077447D03*
X0042594Y0078047D03*
X0050079Y0078899D03*
X0058740Y0085986D03*
X0066094Y0086347D03*
X0050494Y0098047D03*
X0040630Y0097797D03*
X0075276Y0115120D03*
X0089449Y0114332D03*
X0124095Y0130080D03*
X0102048Y0137954D03*
X0115433Y0145828D03*
X0104803Y0147797D03*
X0085118Y0147797D03*
X0128032Y0145828D03*
X0140630Y0145828D03*
X0155591Y0145828D03*
X0155591Y0135592D03*
X0163465Y0130868D03*
X0170158Y0123781D03*
X0170551Y0116694D03*
X0175276Y0114332D03*
X0194173Y0121419D03*
X0200473Y0121419D03*
X0208347Y0122994D03*
X0216221Y0127718D03*
X0224882Y0130868D03*
X0236693Y0135592D03*
X0252441Y0135592D03*
X0254803Y0143466D03*
X0271339Y0143466D03*
X0283150Y0143466D03*
X0294173Y0143466D03*
X0302048Y0139529D03*
X0290236Y0134805D03*
X0281575Y0134017D03*
X0271339Y0134017D03*
X0272126Y0125356D03*
X0279213Y0125356D03*
X0271339Y0118269D03*
X0255591Y0113545D03*
X0256378Y0100159D03*
X0229607Y0086773D03*
X0222520Y0088348D03*
X0213859Y0089923D03*
X0207559Y0101734D03*
X0208347Y0106458D03*
X0197323Y0100946D03*
X0196536Y0112364D03*
X0146142Y0119844D03*
X0142599Y0113939D03*
X0212284Y0144254D03*
X0295748Y0111183D03*
X0303622Y0115907D03*
X0313859Y0115907D03*
X0331094Y0108747D03*
X0338294Y0109047D03*
X0331094Y0102147D03*
X0337894Y0101547D03*
X0330394Y0094647D03*
X0338268Y0092285D03*
X0313859Y0094647D03*
X0303622Y0094647D03*
X0302835Y0085986D03*
X0292599Y0084411D03*
X0294173Y0077324D03*
X0285512Y0077324D03*
X0304410Y0077324D03*
X0315433Y0077324D03*
X0325670Y0077324D03*
X0339055Y0077324D03*
X0313859Y0085986D03*
X0253229Y0079687D03*
X0252441Y0085198D03*
X0209922Y0075750D03*
X0205197Y0075750D03*
X0336693Y0133230D03*
X0336693Y0140317D03*
X0336693Y0146616D03*
X0046929Y0120631D03*
X0024882Y0130868D03*
X0033544Y0134805D03*
X0024882Y0141891D03*
X0031181Y0144254D03*
X0039055Y0144254D03*
X0020694Y0147647D03*
D16*
X0016933Y0147488D02*
X0072108Y0147488D01*
X0071110Y0146490D02*
X0016933Y0146490D01*
X0016933Y0145491D02*
X0070111Y0145491D01*
X0069113Y0144493D02*
X0016933Y0144493D01*
X0016933Y0143494D02*
X0068114Y0143494D01*
X0067116Y0142496D02*
X0016933Y0142496D01*
X0016933Y0141497D02*
X0066117Y0141497D01*
X0066055Y0141435D02*
X0064708Y0140088D01*
X0064708Y0109379D01*
X0061725Y0106396D01*
X0053935Y0106396D01*
X0053935Y0106520D01*
X0053291Y0107165D01*
X0034269Y0107165D01*
X0033625Y0106520D01*
X0033625Y0101672D01*
X0034269Y0101028D01*
X0053291Y0101028D01*
X0053935Y0101672D01*
X0053935Y0101796D01*
X0063630Y0101796D01*
X0064977Y0103143D01*
X0069308Y0107474D01*
X0069308Y0138183D01*
X0076622Y0145497D01*
X0083657Y0145497D01*
X0084526Y0145137D01*
X0087709Y0141954D01*
X0100244Y0141954D01*
X0101592Y0143301D01*
X0103657Y0145366D01*
X0104211Y0145137D01*
X0110544Y0138804D01*
X0129441Y0138804D01*
X0131244Y0137002D01*
X0131244Y0115742D01*
X0132591Y0114394D01*
X0135347Y0111639D01*
X0141137Y0111639D01*
X0142065Y0111254D01*
X0143133Y0111254D01*
X0144119Y0111663D01*
X0144874Y0112418D01*
X0145283Y0113405D01*
X0145283Y0114473D01*
X0144874Y0115459D01*
X0144119Y0116214D01*
X0143133Y0116623D01*
X0142065Y0116623D01*
X0141137Y0116239D01*
X0137252Y0116239D01*
X0135844Y0117647D01*
X0135844Y0138907D01*
X0132694Y0142057D01*
X0131347Y0143404D01*
X0112449Y0143404D01*
X0107463Y0148390D01*
X0107079Y0149317D01*
X0106324Y0150072D01*
X0105337Y0150481D01*
X0104269Y0150481D01*
X0103342Y0150097D01*
X0101882Y0150097D01*
X0098339Y0146554D01*
X0089614Y0146554D01*
X0087778Y0148390D01*
X0087394Y0149317D01*
X0086639Y0150072D01*
X0085652Y0150481D01*
X0084584Y0150481D01*
X0083657Y0150097D01*
X0074717Y0150097D01*
X0066055Y0141435D01*
X0065119Y0140499D02*
X0016933Y0140499D01*
X0016933Y0139500D02*
X0064708Y0139500D01*
X0064708Y0138502D02*
X0016933Y0138502D01*
X0016933Y0137503D02*
X0064708Y0137503D01*
X0064708Y0136505D02*
X0016933Y0136505D01*
X0016933Y0135506D02*
X0064708Y0135506D01*
X0064708Y0134508D02*
X0016933Y0134508D01*
X0016933Y0133509D02*
X0064708Y0133509D01*
X0064708Y0132511D02*
X0016933Y0132511D01*
X0016933Y0131512D02*
X0064708Y0131512D01*
X0064708Y0130514D02*
X0016933Y0130514D01*
X0016933Y0129515D02*
X0064708Y0129515D01*
X0064708Y0128517D02*
X0016933Y0128517D01*
X0016933Y0127518D02*
X0064708Y0127518D01*
X0064708Y0126520D02*
X0016933Y0126520D01*
X0016933Y0125668D02*
X0016933Y0151340D01*
X0342280Y0151340D01*
X0342280Y0073387D01*
X0181455Y0073387D01*
X0181658Y0073420D01*
X0182467Y0073682D01*
X0183224Y0074068D01*
X0183912Y0074568D01*
X0184513Y0075169D01*
X0185012Y0075856D01*
X0185398Y0076614D01*
X0185661Y0077422D01*
X0185782Y0078187D01*
X0180894Y0078187D01*
X0180894Y0079187D01*
X0179894Y0079187D01*
X0179894Y0084075D01*
X0179129Y0083954D01*
X0178950Y0083895D01*
X0179520Y0084465D01*
X0179929Y0085452D01*
X0179929Y0086520D01*
X0179520Y0087506D01*
X0178765Y0088261D01*
X0177778Y0088670D01*
X0176710Y0088670D01*
X0175783Y0088286D01*
X0149063Y0088286D01*
X0146836Y0090513D01*
X0165408Y0109086D01*
X0165408Y0105546D01*
X0156800Y0096938D01*
X0155844Y0096938D01*
X0154858Y0096529D01*
X0154103Y0095774D01*
X0153694Y0094787D01*
X0153694Y0093720D01*
X0154103Y0092733D01*
X0154858Y0091978D01*
X0155844Y0091569D01*
X0156912Y0091569D01*
X0157899Y0091978D01*
X0158654Y0092733D01*
X0159062Y0093720D01*
X0159062Y0094675D01*
X0168608Y0104221D01*
X0168608Y0114842D01*
X0168951Y0114498D01*
X0168951Y0097331D01*
X0168443Y0097331D01*
X0167456Y0096923D01*
X0166701Y0096168D01*
X0166292Y0095181D01*
X0166292Y0094113D01*
X0166701Y0093127D01*
X0167456Y0092372D01*
X0168443Y0091963D01*
X0169511Y0091963D01*
X0170497Y0092372D01*
X0171252Y0093127D01*
X0171661Y0094113D01*
X0171661Y0095069D01*
X0171804Y0095212D01*
X0171804Y0094901D01*
X0172213Y0093914D01*
X0172968Y0093159D01*
X0173955Y0092750D01*
X0175022Y0092750D01*
X0176009Y0093159D01*
X0176764Y0093914D01*
X0177173Y0094901D01*
X0177173Y0095969D01*
X0176764Y0096955D01*
X0176009Y0097710D01*
X0175301Y0098003D01*
X0175301Y0111307D01*
X0175642Y0111648D01*
X0175810Y0111648D01*
X0176796Y0112057D01*
X0177551Y0112812D01*
X0177960Y0113798D01*
X0177960Y0114866D01*
X0177551Y0115853D01*
X0176796Y0116608D01*
X0175810Y0117017D01*
X0174742Y0117017D01*
X0173755Y0116608D01*
X0173185Y0116037D01*
X0173236Y0116161D01*
X0173236Y0117228D01*
X0172827Y0118215D01*
X0172072Y0118970D01*
X0171085Y0119379D01*
X0170017Y0119379D01*
X0169031Y0118970D01*
X0168608Y0118547D01*
X0168608Y0119575D01*
X0170130Y0121097D01*
X0170692Y0121097D01*
X0171678Y0121505D01*
X0172433Y0122261D01*
X0172842Y0123247D01*
X0172842Y0124315D01*
X0172433Y0125302D01*
X0171678Y0126057D01*
X0170692Y0126465D01*
X0169624Y0126465D01*
X0168637Y0126057D01*
X0167882Y0125302D01*
X0167473Y0124315D01*
X0167473Y0123247D01*
X0167556Y0123048D01*
X0165765Y0121257D01*
X0165765Y0129406D01*
X0166149Y0130334D01*
X0166149Y0131402D01*
X0165740Y0132388D01*
X0164985Y0133143D01*
X0163999Y0133552D01*
X0162931Y0133552D01*
X0161944Y0133143D01*
X0161189Y0132388D01*
X0160781Y0131402D01*
X0160781Y0130334D01*
X0161165Y0129406D01*
X0161165Y0111348D01*
X0142630Y0092813D01*
X0141283Y0091466D01*
X0139677Y0089861D01*
X0138330Y0088513D01*
X0138330Y0083027D01*
X0137675Y0082756D01*
X0136325Y0081406D01*
X0135594Y0079641D01*
X0135594Y0077732D01*
X0136325Y0075968D01*
X0137675Y0074617D01*
X0139439Y0073887D01*
X0141349Y0073887D01*
X0143113Y0074617D01*
X0144463Y0075968D01*
X0145194Y0077732D01*
X0145194Y0079641D01*
X0144463Y0081406D01*
X0143113Y0082756D01*
X0142930Y0082832D01*
X0142930Y0086608D01*
X0143583Y0087261D01*
X0147158Y0083686D01*
X0147605Y0083686D01*
X0146325Y0082406D01*
X0145594Y0080641D01*
X0145594Y0078732D01*
X0146325Y0076968D01*
X0147675Y0075617D01*
X0149439Y0074887D01*
X0151349Y0074887D01*
X0153113Y0075617D01*
X0154463Y0076968D01*
X0155194Y0078732D01*
X0155194Y0080641D01*
X0154463Y0082406D01*
X0153183Y0083686D01*
X0167605Y0083686D01*
X0166325Y0082406D01*
X0165594Y0080641D01*
X0165594Y0078732D01*
X0166325Y0076968D01*
X0167675Y0075617D01*
X0169439Y0074887D01*
X0171349Y0074887D01*
X0173113Y0075617D01*
X0174463Y0076968D01*
X0175194Y0078732D01*
X0175194Y0079187D01*
X0179894Y0079187D01*
X0179894Y0078187D01*
X0175006Y0078187D01*
X0175127Y0077422D01*
X0175390Y0076614D01*
X0175775Y0075856D01*
X0176275Y0075169D01*
X0176876Y0074568D01*
X0177564Y0074068D01*
X0178321Y0073682D01*
X0179129Y0073420D01*
X0179333Y0073387D01*
X0016933Y0073387D01*
X0016933Y0090398D01*
X0030456Y0090398D01*
X0031100Y0091042D01*
X0031100Y0098252D01*
X0030456Y0098897D01*
X0016933Y0098897D01*
X0016933Y0117169D01*
X0030456Y0117169D01*
X0031100Y0117814D01*
X0031100Y0125024D01*
X0030456Y0125668D01*
X0016933Y0125668D01*
X0030603Y0125521D02*
X0064708Y0125521D01*
X0064708Y0124523D02*
X0031100Y0124523D01*
X0031100Y0123524D02*
X0064708Y0123524D01*
X0064708Y0122526D02*
X0031100Y0122526D01*
X0031100Y0121527D02*
X0064708Y0121527D01*
X0064708Y0120529D02*
X0031100Y0120529D01*
X0031100Y0119530D02*
X0064708Y0119530D01*
X0064708Y0118532D02*
X0031100Y0118532D01*
X0030820Y0117533D02*
X0064708Y0117533D01*
X0064708Y0116534D02*
X0016933Y0116534D01*
X0016933Y0115536D02*
X0034118Y0115536D01*
X0034068Y0115523D02*
X0033681Y0115299D01*
X0033364Y0114982D01*
X0033141Y0114595D01*
X0033025Y0114162D01*
X0033025Y0112454D01*
X0043295Y0112454D01*
X0043295Y0111486D01*
X0033025Y0111486D01*
X0033025Y0109778D01*
X0033141Y0109345D01*
X0033364Y0108958D01*
X0033681Y0108641D01*
X0034068Y0108417D01*
X0034501Y0108302D01*
X0043296Y0108302D01*
X0043296Y0111486D01*
X0044264Y0111486D01*
X0044264Y0112454D01*
X0054535Y0112454D01*
X0054535Y0114162D01*
X0054419Y0114595D01*
X0054195Y0114982D01*
X0053879Y0115299D01*
X0053491Y0115523D01*
X0053059Y0115639D01*
X0044264Y0115639D01*
X0044264Y0112454D01*
X0043296Y0112454D01*
X0043296Y0115639D01*
X0034501Y0115639D01*
X0034068Y0115523D01*
X0033125Y0114537D02*
X0016933Y0114537D01*
X0016933Y0113539D02*
X0033025Y0113539D01*
X0033025Y0112540D02*
X0016933Y0112540D01*
X0016933Y0111542D02*
X0043295Y0111542D01*
X0044264Y0111542D02*
X0064708Y0111542D01*
X0064708Y0112540D02*
X0054535Y0112540D01*
X0054535Y0113539D02*
X0064708Y0113539D01*
X0064708Y0114537D02*
X0054434Y0114537D01*
X0053442Y0115536D02*
X0064708Y0115536D01*
X0069308Y0115536D02*
X0080516Y0115536D01*
X0080912Y0115932D02*
X0079338Y0114357D01*
X0078400Y0113420D01*
X0078400Y0099206D01*
X0077725Y0098530D01*
X0077316Y0097543D01*
X0077316Y0096476D01*
X0077725Y0095489D01*
X0078480Y0094734D01*
X0079466Y0094325D01*
X0080534Y0094325D01*
X0081521Y0094734D01*
X0082276Y0095489D01*
X0082684Y0096476D01*
X0082684Y0097543D01*
X0082276Y0098530D01*
X0081600Y0099206D01*
X0081600Y0112095D01*
X0082238Y0112732D01*
X0087253Y0112732D01*
X0087929Y0112057D01*
X0088915Y0111648D01*
X0089983Y0111648D01*
X0090970Y0112057D01*
X0091725Y0112812D01*
X0092133Y0113798D01*
X0092133Y0114866D01*
X0091725Y0115853D01*
X0090970Y0116608D01*
X0089983Y0117017D01*
X0088915Y0117017D01*
X0087929Y0116608D01*
X0087253Y0115932D01*
X0080912Y0115932D01*
X0081575Y0114332D02*
X0080000Y0112757D01*
X0080000Y0097009D01*
X0078882Y0094567D02*
X0031100Y0094567D01*
X0031100Y0093569D02*
X0098658Y0093569D01*
X0099757Y0093019D02*
X0099757Y0092932D01*
X0100166Y0091946D01*
X0100921Y0091191D01*
X0101907Y0090782D01*
X0102975Y0090782D01*
X0103962Y0091191D01*
X0104717Y0091946D01*
X0105125Y0092932D01*
X0105125Y0094000D01*
X0104717Y0094987D01*
X0103962Y0095742D01*
X0102975Y0096150D01*
X0101907Y0096150D01*
X0101220Y0095866D01*
X0095677Y0098637D01*
X0095677Y0098724D01*
X0095268Y0099711D01*
X0094513Y0100466D01*
X0093526Y0100875D01*
X0092458Y0100875D01*
X0091472Y0100466D01*
X0090717Y0099711D01*
X0090308Y0098724D01*
X0090308Y0097657D01*
X0090717Y0096670D01*
X0091472Y0095915D01*
X0092458Y0095506D01*
X0093526Y0095506D01*
X0094214Y0095791D01*
X0099757Y0093019D01*
X0099907Y0092570D02*
X0031100Y0092570D01*
X0031100Y0091572D02*
X0100540Y0091572D01*
X0102441Y0093466D02*
X0092992Y0098191D01*
X0090654Y0099560D02*
X0081600Y0099560D01*
X0081600Y0100558D02*
X0091694Y0100558D01*
X0094290Y0100558D02*
X0133212Y0100558D01*
X0133212Y0099560D02*
X0095331Y0099560D01*
X0095829Y0098561D02*
X0133212Y0098561D01*
X0133212Y0097563D02*
X0097826Y0097563D01*
X0099823Y0096564D02*
X0133212Y0096564D01*
X0133212Y0095566D02*
X0104138Y0095566D01*
X0104891Y0094567D02*
X0133212Y0094567D01*
X0133212Y0093569D02*
X0105125Y0093569D01*
X0104976Y0092570D02*
X0133212Y0092570D01*
X0133212Y0091572D02*
X0104343Y0091572D01*
X0096661Y0094567D02*
X0081119Y0094567D01*
X0082308Y0095566D02*
X0092315Y0095566D01*
X0093670Y0095566D02*
X0094664Y0095566D01*
X0090823Y0096564D02*
X0082684Y0096564D01*
X0082676Y0097563D02*
X0090347Y0097563D01*
X0090308Y0098561D02*
X0082245Y0098561D01*
X0078400Y0099560D02*
X0016933Y0099560D01*
X0016933Y0100558D02*
X0078400Y0100558D01*
X0078400Y0101557D02*
X0053820Y0101557D01*
X0064389Y0102555D02*
X0078400Y0102555D01*
X0078400Y0103554D02*
X0065388Y0103554D01*
X0066386Y0104552D02*
X0078400Y0104552D01*
X0078400Y0105551D02*
X0067385Y0105551D01*
X0068383Y0106549D02*
X0078400Y0106549D01*
X0078400Y0107548D02*
X0069308Y0107548D01*
X0069308Y0108546D02*
X0078400Y0108546D01*
X0078400Y0109545D02*
X0069308Y0109545D01*
X0069308Y0110543D02*
X0078400Y0110543D01*
X0078400Y0111542D02*
X0069308Y0111542D01*
X0069308Y0112540D02*
X0078400Y0112540D01*
X0078519Y0113539D02*
X0069308Y0113539D01*
X0069308Y0114537D02*
X0079518Y0114537D01*
X0081575Y0114332D02*
X0089449Y0114332D01*
X0091856Y0115536D02*
X0131449Y0115536D01*
X0131244Y0116534D02*
X0091043Y0116534D01*
X0092133Y0114537D02*
X0132448Y0114537D01*
X0133446Y0113539D02*
X0092026Y0113539D01*
X0091453Y0112540D02*
X0134445Y0112540D01*
X0134939Y0110914D02*
X0133880Y0110476D01*
X0133070Y0109665D01*
X0132631Y0108606D01*
X0132631Y0107460D01*
X0133070Y0106401D01*
X0133212Y0106259D01*
X0133212Y0087726D01*
X0129973Y0084487D01*
X0129439Y0084487D01*
X0127675Y0083756D01*
X0126325Y0082406D01*
X0125594Y0080641D01*
X0125594Y0078732D01*
X0126325Y0076968D01*
X0127675Y0075617D01*
X0129439Y0074887D01*
X0131349Y0074887D01*
X0133113Y0075617D01*
X0134463Y0076968D01*
X0135194Y0078732D01*
X0135194Y0080641D01*
X0134463Y0082406D01*
X0134430Y0082439D01*
X0136465Y0084473D01*
X0137812Y0085821D01*
X0137812Y0106259D01*
X0137955Y0106401D01*
X0138393Y0107460D01*
X0138393Y0108606D01*
X0137955Y0109665D01*
X0137144Y0110476D01*
X0136085Y0110914D01*
X0134939Y0110914D01*
X0134044Y0110543D02*
X0081600Y0110543D01*
X0081600Y0109545D02*
X0133020Y0109545D01*
X0132631Y0108546D02*
X0081600Y0108546D01*
X0081600Y0107548D02*
X0132631Y0107548D01*
X0133008Y0106549D02*
X0081600Y0106549D01*
X0081600Y0105551D02*
X0133212Y0105551D01*
X0133212Y0104552D02*
X0081600Y0104552D01*
X0081600Y0103554D02*
X0133212Y0103554D01*
X0133212Y0102555D02*
X0081600Y0102555D01*
X0081600Y0101557D02*
X0133212Y0101557D01*
X0137812Y0101557D02*
X0151374Y0101557D01*
X0152372Y0102555D02*
X0137812Y0102555D01*
X0137812Y0103554D02*
X0153371Y0103554D01*
X0154369Y0104552D02*
X0137812Y0104552D01*
X0137812Y0105551D02*
X0155368Y0105551D01*
X0156366Y0106549D02*
X0138016Y0106549D01*
X0138393Y0107548D02*
X0157365Y0107548D01*
X0158363Y0108546D02*
X0138393Y0108546D01*
X0138004Y0109545D02*
X0159362Y0109545D01*
X0160360Y0110543D02*
X0136980Y0110543D01*
X0141370Y0111542D02*
X0081600Y0111542D01*
X0082046Y0112540D02*
X0087445Y0112540D01*
X0087855Y0116534D02*
X0069308Y0116534D01*
X0069308Y0117533D02*
X0131244Y0117533D01*
X0131244Y0118532D02*
X0069308Y0118532D01*
X0069308Y0119530D02*
X0131244Y0119530D01*
X0131244Y0120529D02*
X0069308Y0120529D01*
X0069308Y0121527D02*
X0131244Y0121527D01*
X0131244Y0122526D02*
X0069308Y0122526D01*
X0069308Y0123524D02*
X0131244Y0123524D01*
X0131244Y0124523D02*
X0069308Y0124523D01*
X0069308Y0125521D02*
X0131244Y0125521D01*
X0131244Y0126520D02*
X0069308Y0126520D01*
X0069308Y0127518D02*
X0131244Y0127518D01*
X0131244Y0128517D02*
X0069308Y0128517D01*
X0069308Y0129515D02*
X0131244Y0129515D01*
X0131244Y0130514D02*
X0069308Y0130514D01*
X0069308Y0131512D02*
X0131244Y0131512D01*
X0131244Y0132511D02*
X0069308Y0132511D01*
X0069308Y0133509D02*
X0131244Y0133509D01*
X0131244Y0134508D02*
X0069308Y0134508D01*
X0069308Y0135506D02*
X0131244Y0135506D01*
X0131244Y0136505D02*
X0069308Y0136505D01*
X0069308Y0137503D02*
X0130742Y0137503D01*
X0129743Y0138502D02*
X0069627Y0138502D01*
X0070626Y0139500D02*
X0109847Y0139500D01*
X0108849Y0140499D02*
X0071624Y0140499D01*
X0072623Y0141497D02*
X0107850Y0141497D01*
X0106852Y0142496D02*
X0100787Y0142496D01*
X0101785Y0143494D02*
X0105853Y0143494D01*
X0104855Y0144493D02*
X0102784Y0144493D01*
X0099274Y0147488D02*
X0088680Y0147488D01*
X0087738Y0148487D02*
X0100272Y0148487D01*
X0101271Y0149485D02*
X0087226Y0149485D01*
X0083670Y0145491D02*
X0076617Y0145491D01*
X0075618Y0144493D02*
X0085170Y0144493D01*
X0086168Y0143494D02*
X0074620Y0143494D01*
X0073621Y0142496D02*
X0087167Y0142496D01*
X0074105Y0149485D02*
X0016933Y0149485D01*
X0016933Y0148487D02*
X0073107Y0148487D01*
X0106911Y0149485D02*
X0342280Y0149485D01*
X0342280Y0148487D02*
X0107423Y0148487D01*
X0108365Y0147488D02*
X0342280Y0147488D01*
X0342280Y0146490D02*
X0109363Y0146490D01*
X0110362Y0145491D02*
X0342280Y0145491D01*
X0342280Y0144493D02*
X0111360Y0144493D01*
X0112359Y0143494D02*
X0342280Y0143494D01*
X0342280Y0142496D02*
X0132255Y0142496D01*
X0133253Y0141497D02*
X0300220Y0141497D01*
X0300527Y0141805D02*
X0299772Y0141050D01*
X0299363Y0140063D01*
X0299363Y0139108D01*
X0269739Y0109483D01*
X0269739Y0095460D01*
X0257828Y0095460D01*
X0255791Y0097497D01*
X0255844Y0097475D01*
X0256912Y0097475D01*
X0257899Y0097883D01*
X0258654Y0098639D01*
X0259062Y0099625D01*
X0259062Y0100693D01*
X0258654Y0101680D01*
X0257899Y0102435D01*
X0256912Y0102843D01*
X0255844Y0102843D01*
X0254858Y0102435D01*
X0254182Y0101759D01*
X0215309Y0101759D01*
X0211031Y0106037D01*
X0211031Y0106992D01*
X0210622Y0107979D01*
X0209867Y0108734D01*
X0208881Y0109143D01*
X0207813Y0109143D01*
X0206826Y0108734D01*
X0206071Y0107979D01*
X0205662Y0106992D01*
X0205662Y0105924D01*
X0206071Y0104938D01*
X0206718Y0104291D01*
X0206039Y0104009D01*
X0205284Y0103254D01*
X0204875Y0102268D01*
X0204875Y0101200D01*
X0204897Y0101147D01*
X0198136Y0107908D01*
X0198136Y0110168D01*
X0198811Y0110843D01*
X0199220Y0111830D01*
X0199220Y0112898D01*
X0198811Y0113884D01*
X0198056Y0114639D01*
X0197070Y0115048D01*
X0196002Y0115048D01*
X0195015Y0114639D01*
X0194260Y0113884D01*
X0193851Y0112898D01*
X0193851Y0111830D01*
X0194260Y0110843D01*
X0194936Y0110168D01*
X0194936Y0106583D01*
X0211174Y0090344D01*
X0211174Y0089389D01*
X0211583Y0088402D01*
X0212338Y0087647D01*
X0213325Y0087239D01*
X0214392Y0087239D01*
X0215379Y0087647D01*
X0216134Y0088402D01*
X0216543Y0089389D01*
X0216543Y0090457D01*
X0216134Y0091443D01*
X0215379Y0092198D01*
X0214392Y0092607D01*
X0213437Y0092607D01*
X0206973Y0099071D01*
X0207025Y0099050D01*
X0207981Y0099050D01*
X0211471Y0095559D01*
X0212408Y0094622D01*
X0254141Y0094622D01*
X0255566Y0093197D01*
X0256503Y0092260D01*
X0271214Y0092260D01*
X0272002Y0093047D01*
X0272939Y0093984D01*
X0272939Y0108158D01*
X0301626Y0136845D01*
X0302581Y0136845D01*
X0303568Y0137254D01*
X0304323Y0138009D01*
X0304732Y0138995D01*
X0304732Y0140063D01*
X0304323Y0141050D01*
X0303568Y0141805D01*
X0302581Y0142213D01*
X0301514Y0142213D01*
X0300527Y0141805D01*
X0299544Y0140499D02*
X0134252Y0140499D01*
X0135250Y0139500D02*
X0299363Y0139500D01*
X0298757Y0138502D02*
X0135844Y0138502D01*
X0135844Y0137503D02*
X0297759Y0137503D01*
X0296760Y0136505D02*
X0135844Y0136505D01*
X0135844Y0135506D02*
X0295762Y0135506D01*
X0294763Y0134508D02*
X0135844Y0134508D01*
X0135844Y0133509D02*
X0162828Y0133509D01*
X0164102Y0133509D02*
X0224245Y0133509D01*
X0224348Y0133552D02*
X0223362Y0133143D01*
X0222607Y0132388D01*
X0222198Y0131402D01*
X0222198Y0130334D01*
X0222607Y0129347D01*
X0223362Y0128592D01*
X0224348Y0128183D01*
X0225416Y0128183D01*
X0226403Y0128592D01*
X0227078Y0129268D01*
X0237605Y0129268D01*
X0252907Y0113966D01*
X0252907Y0113011D01*
X0253315Y0112024D01*
X0254070Y0111269D01*
X0255057Y0110861D01*
X0256125Y0110861D01*
X0257111Y0111269D01*
X0257866Y0112024D01*
X0258275Y0113011D01*
X0258275Y0114079D01*
X0257866Y0115065D01*
X0257111Y0115820D01*
X0256125Y0116229D01*
X0255169Y0116229D01*
X0238931Y0132468D01*
X0227078Y0132468D01*
X0226403Y0133143D01*
X0225416Y0133552D01*
X0224348Y0133552D01*
X0225519Y0133509D02*
X0293765Y0133509D01*
X0292766Y0132511D02*
X0227035Y0132511D01*
X0224882Y0130868D02*
X0238268Y0130868D01*
X0255591Y0113545D01*
X0258275Y0113539D02*
X0273795Y0113539D01*
X0274793Y0114537D02*
X0258085Y0114537D01*
X0257396Y0115536D02*
X0275792Y0115536D01*
X0276790Y0116534D02*
X0254864Y0116534D01*
X0253865Y0117533D02*
X0277789Y0117533D01*
X0278787Y0118532D02*
X0252867Y0118532D01*
X0251868Y0119530D02*
X0279786Y0119530D01*
X0280784Y0120529D02*
X0250870Y0120529D01*
X0249871Y0121527D02*
X0281783Y0121527D01*
X0282781Y0122526D02*
X0248873Y0122526D01*
X0247874Y0123524D02*
X0283780Y0123524D01*
X0284778Y0124523D02*
X0246876Y0124523D01*
X0245877Y0125521D02*
X0285777Y0125521D01*
X0286775Y0126520D02*
X0244879Y0126520D01*
X0243880Y0127518D02*
X0287774Y0127518D01*
X0288772Y0128517D02*
X0242882Y0128517D01*
X0241883Y0129515D02*
X0289771Y0129515D01*
X0290769Y0130514D02*
X0240885Y0130514D01*
X0239886Y0131512D02*
X0291768Y0131512D01*
X0295295Y0130514D02*
X0342280Y0130514D01*
X0342280Y0131512D02*
X0296293Y0131512D01*
X0297292Y0132511D02*
X0342280Y0132511D01*
X0342280Y0133509D02*
X0298290Y0133509D01*
X0299289Y0134508D02*
X0342280Y0134508D01*
X0342280Y0135506D02*
X0300287Y0135506D01*
X0301286Y0136505D02*
X0342280Y0136505D01*
X0342280Y0137503D02*
X0303818Y0137503D01*
X0304527Y0138502D02*
X0342280Y0138502D01*
X0342280Y0139500D02*
X0304732Y0139500D01*
X0304551Y0140499D02*
X0342280Y0140499D01*
X0342280Y0141497D02*
X0303875Y0141497D01*
X0302048Y0139529D02*
X0271339Y0108820D01*
X0271339Y0094647D01*
X0270551Y0093860D01*
X0257166Y0093860D01*
X0254803Y0096222D01*
X0213071Y0096222D01*
X0207559Y0101734D01*
X0204875Y0101557D02*
X0204487Y0101557D01*
X0204994Y0102555D02*
X0203489Y0102555D01*
X0202490Y0103554D02*
X0205583Y0103554D01*
X0206457Y0104552D02*
X0201492Y0104552D01*
X0200493Y0105551D02*
X0205817Y0105551D01*
X0205662Y0106549D02*
X0199495Y0106549D01*
X0198496Y0107548D02*
X0205893Y0107548D01*
X0206639Y0108546D02*
X0198136Y0108546D01*
X0198136Y0109545D02*
X0269801Y0109545D01*
X0269739Y0108546D02*
X0210055Y0108546D01*
X0210801Y0107548D02*
X0269739Y0107548D01*
X0269739Y0106549D02*
X0211031Y0106549D01*
X0211517Y0105551D02*
X0269739Y0105551D01*
X0269739Y0104552D02*
X0212515Y0104552D01*
X0213514Y0103554D02*
X0269739Y0103554D01*
X0269739Y0102555D02*
X0257607Y0102555D01*
X0258705Y0101557D02*
X0269739Y0101557D01*
X0269739Y0100558D02*
X0259062Y0100558D01*
X0259035Y0099560D02*
X0269739Y0099560D01*
X0269739Y0098561D02*
X0258577Y0098561D01*
X0257125Y0097563D02*
X0269739Y0097563D01*
X0269739Y0096564D02*
X0256724Y0096564D01*
X0257722Y0095566D02*
X0269739Y0095566D01*
X0272939Y0095566D02*
X0342280Y0095566D01*
X0342280Y0096564D02*
X0272939Y0096564D01*
X0272939Y0097563D02*
X0342280Y0097563D01*
X0342280Y0098561D02*
X0272939Y0098561D01*
X0272939Y0099560D02*
X0342280Y0099560D01*
X0342280Y0100558D02*
X0272939Y0100558D01*
X0272939Y0101557D02*
X0342280Y0101557D01*
X0342280Y0102555D02*
X0272939Y0102555D01*
X0272939Y0103554D02*
X0342280Y0103554D01*
X0342280Y0104552D02*
X0272939Y0104552D01*
X0272939Y0105551D02*
X0342280Y0105551D01*
X0342280Y0106549D02*
X0272939Y0106549D01*
X0272939Y0107548D02*
X0342280Y0107548D01*
X0342280Y0108546D02*
X0273328Y0108546D01*
X0274326Y0109545D02*
X0342280Y0109545D01*
X0342280Y0110543D02*
X0275325Y0110543D01*
X0276323Y0111542D02*
X0342280Y0111542D01*
X0342280Y0112540D02*
X0277322Y0112540D01*
X0278320Y0113539D02*
X0342280Y0113539D01*
X0342280Y0114537D02*
X0279319Y0114537D01*
X0280317Y0115536D02*
X0342280Y0115536D01*
X0342280Y0116534D02*
X0281316Y0116534D01*
X0282314Y0117533D02*
X0342280Y0117533D01*
X0342280Y0118532D02*
X0283313Y0118532D01*
X0284311Y0119530D02*
X0342280Y0119530D01*
X0342280Y0120529D02*
X0285310Y0120529D01*
X0286308Y0121527D02*
X0342280Y0121527D01*
X0342280Y0122526D02*
X0287307Y0122526D01*
X0288305Y0123524D02*
X0342280Y0123524D01*
X0342280Y0124523D02*
X0289304Y0124523D01*
X0290302Y0125521D02*
X0342280Y0125521D01*
X0342280Y0126520D02*
X0291301Y0126520D01*
X0292299Y0127518D02*
X0342280Y0127518D01*
X0342280Y0128517D02*
X0293298Y0128517D01*
X0294296Y0129515D02*
X0342280Y0129515D01*
X0342280Y0150484D02*
X0016933Y0150484D01*
X0043296Y0115536D02*
X0044264Y0115536D01*
X0044264Y0114537D02*
X0043296Y0114537D01*
X0043296Y0113539D02*
X0044264Y0113539D01*
X0044264Y0112540D02*
X0043296Y0112540D01*
X0044264Y0111486D02*
X0044264Y0108302D01*
X0053059Y0108302D01*
X0053491Y0108417D01*
X0053879Y0108641D01*
X0054195Y0108958D01*
X0054419Y0109345D01*
X0054535Y0109778D01*
X0054535Y0111486D01*
X0044264Y0111486D01*
X0044264Y0110543D02*
X0043296Y0110543D01*
X0043296Y0109545D02*
X0044264Y0109545D01*
X0044264Y0108546D02*
X0043296Y0108546D01*
X0053714Y0108546D02*
X0063875Y0108546D01*
X0064708Y0109545D02*
X0054473Y0109545D01*
X0054535Y0110543D02*
X0064708Y0110543D01*
X0062877Y0107548D02*
X0016933Y0107548D01*
X0016933Y0108546D02*
X0033845Y0108546D01*
X0033087Y0109545D02*
X0016933Y0109545D01*
X0016933Y0110543D02*
X0033025Y0110543D01*
X0033654Y0106549D02*
X0016933Y0106549D01*
X0016933Y0105551D02*
X0033625Y0105551D01*
X0033625Y0104552D02*
X0016933Y0104552D01*
X0016933Y0103554D02*
X0033625Y0103554D01*
X0033625Y0102555D02*
X0016933Y0102555D01*
X0016933Y0101557D02*
X0033740Y0101557D01*
X0030791Y0098561D02*
X0077756Y0098561D01*
X0077324Y0097563D02*
X0031100Y0097563D01*
X0031100Y0096564D02*
X0077316Y0096564D01*
X0077693Y0095566D02*
X0031100Y0095566D01*
X0030631Y0090573D02*
X0133212Y0090573D01*
X0133212Y0089575D02*
X0016933Y0089575D01*
X0016933Y0088576D02*
X0133212Y0088576D01*
X0133064Y0087578D02*
X0016933Y0087578D01*
X0016933Y0086579D02*
X0132065Y0086579D01*
X0131067Y0085581D02*
X0016933Y0085581D01*
X0016933Y0084582D02*
X0130068Y0084582D01*
X0127503Y0083584D02*
X0016933Y0083584D01*
X0016933Y0082585D02*
X0126504Y0082585D01*
X0125985Y0081587D02*
X0016933Y0081587D01*
X0016933Y0080588D02*
X0125594Y0080588D01*
X0125594Y0079590D02*
X0016933Y0079590D01*
X0016933Y0078591D02*
X0125652Y0078591D01*
X0126066Y0077593D02*
X0016933Y0077593D01*
X0016933Y0076594D02*
X0126698Y0076594D01*
X0127728Y0075596D02*
X0016933Y0075596D01*
X0016933Y0074597D02*
X0137724Y0074597D01*
X0136697Y0075596D02*
X0133060Y0075596D01*
X0134090Y0076594D02*
X0136065Y0076594D01*
X0135652Y0077593D02*
X0134722Y0077593D01*
X0135136Y0078591D02*
X0135594Y0078591D01*
X0135594Y0079590D02*
X0135194Y0079590D01*
X0135194Y0080588D02*
X0135986Y0080588D01*
X0136506Y0081587D02*
X0134802Y0081587D01*
X0134577Y0082585D02*
X0137504Y0082585D01*
X0138330Y0083584D02*
X0135575Y0083584D01*
X0136574Y0084582D02*
X0138330Y0084582D01*
X0138330Y0085581D02*
X0137572Y0085581D01*
X0137812Y0086579D02*
X0138330Y0086579D01*
X0138330Y0087578D02*
X0137812Y0087578D01*
X0137812Y0088576D02*
X0138393Y0088576D01*
X0137812Y0089575D02*
X0139392Y0089575D01*
X0140390Y0090573D02*
X0137812Y0090573D01*
X0137812Y0091572D02*
X0141389Y0091572D01*
X0142387Y0092570D02*
X0137812Y0092570D01*
X0137812Y0093569D02*
X0143386Y0093569D01*
X0144384Y0094567D02*
X0137812Y0094567D01*
X0137812Y0095566D02*
X0145383Y0095566D01*
X0146381Y0096564D02*
X0137812Y0096564D01*
X0137812Y0097563D02*
X0147380Y0097563D01*
X0148378Y0098561D02*
X0137812Y0098561D01*
X0137812Y0099560D02*
X0149377Y0099560D01*
X0150375Y0100558D02*
X0137812Y0100558D01*
X0152886Y0096564D02*
X0154943Y0096564D01*
X0154016Y0095566D02*
X0151888Y0095566D01*
X0150889Y0094567D02*
X0153694Y0094567D01*
X0153756Y0093569D02*
X0149891Y0093569D01*
X0148892Y0092570D02*
X0154265Y0092570D01*
X0155838Y0091572D02*
X0147894Y0091572D01*
X0146895Y0090573D02*
X0210945Y0090573D01*
X0211174Y0089575D02*
X0147774Y0089575D01*
X0148773Y0088576D02*
X0176484Y0088576D01*
X0178005Y0088576D02*
X0211511Y0088576D01*
X0212506Y0087578D02*
X0179449Y0087578D01*
X0179904Y0086579D02*
X0220493Y0086579D01*
X0220244Y0086828D02*
X0220920Y0086152D01*
X0220920Y0082173D01*
X0224070Y0079024D01*
X0225007Y0078087D01*
X0251032Y0078087D01*
X0251708Y0077411D01*
X0252695Y0077002D01*
X0253763Y0077002D01*
X0254749Y0077411D01*
X0255504Y0078166D01*
X0255913Y0079153D01*
X0255913Y0080221D01*
X0255504Y0081207D01*
X0254749Y0081962D01*
X0253763Y0082371D01*
X0252695Y0082371D01*
X0251708Y0081962D01*
X0251032Y0081287D01*
X0226332Y0081287D01*
X0224120Y0083499D01*
X0224120Y0086152D01*
X0224796Y0086828D01*
X0225204Y0087814D01*
X0225204Y0088882D01*
X0224796Y0089869D01*
X0224040Y0090624D01*
X0223054Y0091032D01*
X0221986Y0091032D01*
X0220999Y0090624D01*
X0220244Y0089869D01*
X0219836Y0088882D01*
X0219836Y0087814D01*
X0220244Y0086828D01*
X0219934Y0087578D02*
X0215211Y0087578D01*
X0216206Y0088576D02*
X0219836Y0088576D01*
X0220123Y0089575D02*
X0216543Y0089575D01*
X0216495Y0090573D02*
X0220949Y0090573D01*
X0222520Y0088348D02*
X0222520Y0082836D01*
X0225670Y0079687D01*
X0253229Y0079687D01*
X0255125Y0081587D02*
X0327190Y0081587D01*
X0326932Y0081845D02*
X0330505Y0078272D01*
X0335558Y0078272D01*
X0339132Y0081845D01*
X0339132Y0086898D01*
X0335558Y0090472D01*
X0330505Y0090472D01*
X0326932Y0086898D01*
X0326932Y0081845D01*
X0326932Y0082585D02*
X0225034Y0082585D01*
X0224120Y0083584D02*
X0326932Y0083584D01*
X0326932Y0084582D02*
X0224120Y0084582D01*
X0224120Y0085581D02*
X0326932Y0085581D01*
X0326932Y0086579D02*
X0224547Y0086579D01*
X0225106Y0087578D02*
X0327611Y0087578D01*
X0328610Y0088576D02*
X0225204Y0088576D01*
X0224917Y0089575D02*
X0329608Y0089575D01*
X0336455Y0089575D02*
X0342280Y0089575D01*
X0342280Y0090573D02*
X0224091Y0090573D01*
X0216006Y0091572D02*
X0342280Y0091572D01*
X0342280Y0092570D02*
X0271525Y0092570D01*
X0272523Y0093569D02*
X0342280Y0093569D01*
X0342280Y0094567D02*
X0272939Y0094567D01*
X0256192Y0092570D02*
X0214481Y0092570D01*
X0212475Y0093569D02*
X0255194Y0093569D01*
X0254195Y0094567D02*
X0211477Y0094567D01*
X0211471Y0095559D02*
X0211471Y0095559D01*
X0211465Y0095566D02*
X0210478Y0095566D01*
X0210466Y0096564D02*
X0209480Y0096564D01*
X0209468Y0097563D02*
X0208481Y0097563D01*
X0208469Y0098561D02*
X0207483Y0098561D01*
X0204954Y0096564D02*
X0176926Y0096564D01*
X0177173Y0095566D02*
X0205953Y0095566D01*
X0206951Y0094567D02*
X0177035Y0094567D01*
X0176419Y0093569D02*
X0207950Y0093569D01*
X0208948Y0092570D02*
X0170696Y0092570D01*
X0171435Y0093569D02*
X0172558Y0093569D01*
X0171942Y0094567D02*
X0171661Y0094567D01*
X0170551Y0096222D02*
X0168977Y0094647D01*
X0170551Y0096222D02*
X0170551Y0116694D01*
X0172510Y0118532D02*
X0248341Y0118532D01*
X0247343Y0119530D02*
X0168608Y0119530D01*
X0169562Y0120529D02*
X0207284Y0120529D01*
X0206826Y0120718D02*
X0207813Y0120309D01*
X0208881Y0120309D01*
X0209867Y0120718D01*
X0210622Y0121473D01*
X0211031Y0122460D01*
X0211031Y0123415D01*
X0213734Y0126118D01*
X0214025Y0126118D01*
X0214700Y0125443D01*
X0215687Y0125034D01*
X0216755Y0125034D01*
X0217741Y0125443D01*
X0218496Y0126198D01*
X0218905Y0127184D01*
X0218905Y0128252D01*
X0218496Y0129239D01*
X0217741Y0129994D01*
X0216755Y0130402D01*
X0215687Y0130402D01*
X0214700Y0129994D01*
X0214025Y0129318D01*
X0212408Y0129318D01*
X0208768Y0125678D01*
X0207813Y0125678D01*
X0206826Y0125269D01*
X0206071Y0124514D01*
X0205662Y0123528D01*
X0205662Y0122460D01*
X0206071Y0121473D01*
X0206826Y0120718D01*
X0206049Y0121527D02*
X0171700Y0121527D01*
X0172543Y0122526D02*
X0205662Y0122526D01*
X0205662Y0123524D02*
X0172842Y0123524D01*
X0172756Y0124523D02*
X0206080Y0124523D01*
X0207434Y0125521D02*
X0172214Y0125521D01*
X0170158Y0123781D02*
X0170158Y0123387D01*
X0167008Y0120238D01*
X0167008Y0104883D01*
X0156378Y0094254D01*
X0159062Y0094567D02*
X0166292Y0094567D01*
X0166452Y0095566D02*
X0159953Y0095566D01*
X0160952Y0096564D02*
X0167098Y0096564D01*
X0168951Y0097563D02*
X0161950Y0097563D01*
X0162949Y0098561D02*
X0168951Y0098561D01*
X0168951Y0099560D02*
X0163947Y0099560D01*
X0164946Y0100558D02*
X0168951Y0100558D01*
X0168951Y0101557D02*
X0165944Y0101557D01*
X0166943Y0102555D02*
X0168951Y0102555D01*
X0168951Y0103554D02*
X0167941Y0103554D01*
X0168608Y0104552D02*
X0168951Y0104552D01*
X0168951Y0105551D02*
X0168608Y0105551D01*
X0168608Y0106549D02*
X0168951Y0106549D01*
X0168951Y0107548D02*
X0168608Y0107548D01*
X0168608Y0108546D02*
X0168951Y0108546D01*
X0168951Y0109545D02*
X0168608Y0109545D01*
X0168608Y0110543D02*
X0168951Y0110543D01*
X0168951Y0111542D02*
X0168608Y0111542D01*
X0168608Y0112540D02*
X0168951Y0112540D01*
X0168951Y0113539D02*
X0168608Y0113539D01*
X0168608Y0114537D02*
X0168912Y0114537D01*
X0173236Y0116534D02*
X0173682Y0116534D01*
X0173110Y0117533D02*
X0249340Y0117533D01*
X0250338Y0116534D02*
X0176870Y0116534D01*
X0177683Y0115536D02*
X0251337Y0115536D01*
X0252335Y0114537D02*
X0198158Y0114537D01*
X0198954Y0113539D02*
X0252907Y0113539D01*
X0253101Y0112540D02*
X0199220Y0112540D01*
X0199101Y0111542D02*
X0253798Y0111542D01*
X0257384Y0111542D02*
X0271798Y0111542D01*
X0272796Y0112540D02*
X0258080Y0112540D01*
X0270799Y0110543D02*
X0198511Y0110543D01*
X0196536Y0112364D02*
X0196536Y0107246D01*
X0213859Y0089923D01*
X0209947Y0091572D02*
X0156918Y0091572D01*
X0158491Y0092570D02*
X0167258Y0092570D01*
X0166518Y0093569D02*
X0159000Y0093569D01*
X0157425Y0097563D02*
X0153885Y0097563D01*
X0154884Y0098561D02*
X0158423Y0098561D01*
X0159422Y0099560D02*
X0155882Y0099560D01*
X0156881Y0100558D02*
X0160420Y0100558D01*
X0161419Y0101557D02*
X0157879Y0101557D01*
X0158878Y0102555D02*
X0162417Y0102555D01*
X0163416Y0103554D02*
X0159876Y0103554D01*
X0160875Y0104552D02*
X0164414Y0104552D01*
X0165408Y0105551D02*
X0161873Y0105551D01*
X0162872Y0106549D02*
X0165408Y0106549D01*
X0165408Y0107548D02*
X0163870Y0107548D01*
X0164869Y0108546D02*
X0165408Y0108546D01*
X0161165Y0111542D02*
X0143827Y0111542D01*
X0144925Y0112540D02*
X0161165Y0112540D01*
X0161165Y0113539D02*
X0145283Y0113539D01*
X0145256Y0114537D02*
X0161165Y0114537D01*
X0161165Y0115536D02*
X0144797Y0115536D01*
X0143346Y0116534D02*
X0161165Y0116534D01*
X0161165Y0117533D02*
X0135958Y0117533D01*
X0135844Y0118532D02*
X0161165Y0118532D01*
X0161165Y0119530D02*
X0135844Y0119530D01*
X0135844Y0120529D02*
X0161165Y0120529D01*
X0161165Y0121527D02*
X0135844Y0121527D01*
X0135844Y0122526D02*
X0161165Y0122526D01*
X0161165Y0123524D02*
X0135844Y0123524D01*
X0135844Y0124523D02*
X0161165Y0124523D01*
X0161165Y0125521D02*
X0135844Y0125521D01*
X0135844Y0126520D02*
X0161165Y0126520D01*
X0161165Y0127518D02*
X0135844Y0127518D01*
X0135844Y0128517D02*
X0161165Y0128517D01*
X0161120Y0129515D02*
X0135844Y0129515D01*
X0135844Y0130514D02*
X0160781Y0130514D01*
X0160826Y0131512D02*
X0135844Y0131512D01*
X0135844Y0132511D02*
X0161312Y0132511D01*
X0165618Y0132511D02*
X0222729Y0132511D01*
X0222244Y0131512D02*
X0166103Y0131512D01*
X0166149Y0130514D02*
X0222198Y0130514D01*
X0222537Y0129515D02*
X0218220Y0129515D01*
X0218795Y0128517D02*
X0223544Y0128517D01*
X0226220Y0128517D02*
X0238356Y0128517D01*
X0239355Y0127518D02*
X0218905Y0127518D01*
X0218630Y0126520D02*
X0240353Y0126520D01*
X0241352Y0125521D02*
X0217820Y0125521D01*
X0216221Y0127718D02*
X0213071Y0127718D01*
X0208347Y0122994D01*
X0209410Y0120529D02*
X0246344Y0120529D01*
X0245346Y0121527D02*
X0210645Y0121527D01*
X0211031Y0122526D02*
X0244347Y0122526D01*
X0243349Y0123524D02*
X0211140Y0123524D01*
X0212138Y0124523D02*
X0242350Y0124523D01*
X0214622Y0125521D02*
X0213137Y0125521D01*
X0210608Y0127518D02*
X0165765Y0127518D01*
X0165765Y0126520D02*
X0209610Y0126520D01*
X0211607Y0128517D02*
X0165765Y0128517D01*
X0165810Y0129515D02*
X0214222Y0129515D01*
X0194913Y0114537D02*
X0177960Y0114537D01*
X0177853Y0113539D02*
X0194117Y0113539D01*
X0193851Y0112540D02*
X0177280Y0112540D01*
X0175536Y0111542D02*
X0193971Y0111542D01*
X0194560Y0110543D02*
X0175301Y0110543D01*
X0175301Y0109545D02*
X0194936Y0109545D01*
X0194936Y0108546D02*
X0175301Y0108546D01*
X0175301Y0107548D02*
X0194936Y0107548D01*
X0194969Y0106549D02*
X0175301Y0106549D01*
X0175301Y0105551D02*
X0195968Y0105551D01*
X0196966Y0104552D02*
X0175301Y0104552D01*
X0175301Y0103554D02*
X0197965Y0103554D01*
X0198963Y0102555D02*
X0175301Y0102555D01*
X0175301Y0101557D02*
X0199962Y0101557D01*
X0200960Y0100558D02*
X0175301Y0100558D01*
X0175301Y0099560D02*
X0201959Y0099560D01*
X0202957Y0098561D02*
X0175301Y0098561D01*
X0176156Y0097563D02*
X0203956Y0097563D01*
X0208347Y0106458D02*
X0214646Y0100159D01*
X0256378Y0100159D01*
X0255149Y0102555D02*
X0214512Y0102555D01*
X0174488Y0095435D02*
X0173701Y0096222D01*
X0173701Y0111970D01*
X0175276Y0113545D01*
X0175276Y0114332D01*
X0166035Y0121527D02*
X0165765Y0121527D01*
X0165765Y0122526D02*
X0167033Y0122526D01*
X0167473Y0123524D02*
X0165765Y0123524D01*
X0165765Y0124523D02*
X0167559Y0124523D01*
X0168102Y0125521D02*
X0165765Y0125521D01*
X0141852Y0116534D02*
X0136956Y0116534D01*
X0061878Y0106549D02*
X0053906Y0106549D01*
X0142930Y0086579D02*
X0144264Y0086579D01*
X0145263Y0085581D02*
X0142930Y0085581D01*
X0142930Y0084582D02*
X0146261Y0084582D01*
X0147503Y0083584D02*
X0142930Y0083584D01*
X0143284Y0082585D02*
X0146504Y0082585D01*
X0145985Y0081587D02*
X0144282Y0081587D01*
X0144802Y0080588D02*
X0145594Y0080588D01*
X0145594Y0079590D02*
X0145194Y0079590D01*
X0145194Y0078591D02*
X0145652Y0078591D01*
X0146066Y0077593D02*
X0145136Y0077593D01*
X0144723Y0076594D02*
X0146698Y0076594D01*
X0147728Y0075596D02*
X0144091Y0075596D01*
X0143064Y0074597D02*
X0157724Y0074597D01*
X0157675Y0074617D02*
X0159439Y0073887D01*
X0161349Y0073887D01*
X0163113Y0074617D01*
X0164463Y0075968D01*
X0165194Y0077732D01*
X0165194Y0079641D01*
X0164463Y0081406D01*
X0163113Y0082756D01*
X0161349Y0083487D01*
X0159439Y0083487D01*
X0157675Y0082756D01*
X0156325Y0081406D01*
X0155594Y0079641D01*
X0155594Y0077732D01*
X0156325Y0075968D01*
X0157675Y0074617D01*
X0156697Y0075596D02*
X0153060Y0075596D01*
X0154090Y0076594D02*
X0156065Y0076594D01*
X0155652Y0077593D02*
X0154722Y0077593D01*
X0155136Y0078591D02*
X0155594Y0078591D01*
X0155594Y0079590D02*
X0155194Y0079590D01*
X0155194Y0080588D02*
X0155986Y0080588D01*
X0156506Y0081587D02*
X0154802Y0081587D01*
X0154284Y0082585D02*
X0157504Y0082585D01*
X0153285Y0083584D02*
X0167503Y0083584D01*
X0166504Y0082585D02*
X0163284Y0082585D01*
X0164282Y0081587D02*
X0165985Y0081587D01*
X0165594Y0080588D02*
X0164802Y0080588D01*
X0165194Y0079590D02*
X0165594Y0079590D01*
X0165652Y0078591D02*
X0165194Y0078591D01*
X0165136Y0077593D02*
X0166066Y0077593D01*
X0166698Y0076594D02*
X0164723Y0076594D01*
X0164091Y0075596D02*
X0167728Y0075596D01*
X0173060Y0075596D02*
X0175965Y0075596D01*
X0175400Y0076594D02*
X0174090Y0076594D01*
X0174722Y0077593D02*
X0175100Y0077593D01*
X0175136Y0078591D02*
X0179894Y0078591D01*
X0179894Y0079590D02*
X0180894Y0079590D01*
X0180894Y0079187D02*
X0180894Y0084075D01*
X0181658Y0083954D01*
X0182467Y0083691D01*
X0183224Y0083305D01*
X0183912Y0082805D01*
X0184513Y0082204D01*
X0185012Y0081517D01*
X0185398Y0080759D01*
X0185661Y0079951D01*
X0185782Y0079187D01*
X0180894Y0079187D01*
X0180894Y0078591D02*
X0224502Y0078591D01*
X0223504Y0079590D02*
X0185718Y0079590D01*
X0185454Y0080588D02*
X0222505Y0080588D01*
X0221507Y0081587D02*
X0184962Y0081587D01*
X0184132Y0082585D02*
X0220920Y0082585D01*
X0220920Y0083584D02*
X0182678Y0083584D01*
X0180894Y0083584D02*
X0179894Y0083584D01*
X0179894Y0082585D02*
X0180894Y0082585D01*
X0180894Y0081587D02*
X0179894Y0081587D01*
X0179894Y0080588D02*
X0180894Y0080588D01*
X0179568Y0084582D02*
X0220920Y0084582D01*
X0220920Y0085581D02*
X0179929Y0085581D01*
X0170551Y0079844D02*
X0170394Y0079687D01*
X0176847Y0074597D02*
X0163064Y0074597D01*
X0178579Y0073599D02*
X0016933Y0073599D01*
X0182209Y0073599D02*
X0342280Y0073599D01*
X0342280Y0074597D02*
X0183941Y0074597D01*
X0184823Y0075596D02*
X0342280Y0075596D01*
X0342280Y0076594D02*
X0185388Y0076594D01*
X0185688Y0077593D02*
X0251527Y0077593D01*
X0254931Y0077593D02*
X0342280Y0077593D01*
X0342280Y0078591D02*
X0335878Y0078591D01*
X0336876Y0079590D02*
X0342280Y0079590D01*
X0342280Y0080588D02*
X0337875Y0080588D01*
X0338873Y0081587D02*
X0342280Y0081587D01*
X0342280Y0082585D02*
X0339132Y0082585D01*
X0339132Y0083584D02*
X0342280Y0083584D01*
X0342280Y0084582D02*
X0339132Y0084582D01*
X0339132Y0085581D02*
X0342280Y0085581D01*
X0342280Y0086579D02*
X0339132Y0086579D01*
X0338452Y0087578D02*
X0342280Y0087578D01*
X0342280Y0088576D02*
X0337454Y0088576D01*
X0328189Y0080588D02*
X0255761Y0080588D01*
X0255913Y0079590D02*
X0329187Y0079590D01*
X0330186Y0078591D02*
X0255680Y0078591D01*
X0251332Y0081587D02*
X0226032Y0081587D01*
D17*
X0177244Y0085986D02*
X0148110Y0085986D01*
X0143583Y0090513D01*
X0140630Y0087561D01*
X0140630Y0078923D01*
X0140394Y0078687D01*
X0135512Y0086773D02*
X0130394Y0081655D01*
X0130394Y0079687D01*
X0135512Y0086773D02*
X0135512Y0108033D01*
X0136299Y0113939D02*
X0133544Y0116694D01*
X0133544Y0137954D01*
X0130394Y0141104D01*
X0111496Y0141104D01*
X0104803Y0147797D01*
X0102835Y0147797D01*
X0099292Y0144254D01*
X0088662Y0144254D01*
X0085118Y0147797D01*
X0075670Y0147797D01*
X0067008Y0139135D01*
X0067008Y0108427D01*
X0062677Y0104096D01*
X0047717Y0104096D01*
X0047323Y0103702D01*
X0044173Y0103702D01*
X0043780Y0104096D01*
X0102048Y0137954D02*
X0109922Y0130080D01*
X0124095Y0130080D01*
X0163465Y0130868D02*
X0163465Y0110395D01*
X0143583Y0090513D01*
X0142599Y0113939D02*
X0136299Y0113939D01*
D18*
X0146142Y0119844D02*
X0147717Y0118269D01*
X0147717Y0108033D01*
X0140630Y0100946D01*
X0140630Y0095435D01*
D19*
X0135512Y0108033D03*
M02*
